<svg width="45" height="58" viewBox="0 0 45 58" fill="none" xmlns="http://www.w3.org/2000/svg">
<path d="M42 18.3871C42 28.542 33.0457 36.7742 22 36.7742C10.9543 36.7742 2 28.542 2 18.3871C2 8.23218 10.9543 0 22 0C33.0457 0 42 8.23218 42 18.3871Z" fill="#7A5AF8" fill-opacity="0.1"/>
<path d="M3.33785 47.989C3.94452 47.989 4.45119 48.0457 4.85785 48.159C5.27119 48.2724 5.58119 48.4624 5.78785 48.729C6.00119 48.989 6.10785 49.3357 6.10785 49.769C6.10785 50.049 6.05785 50.299 5.95785 50.519C5.85785 50.7324 5.71118 50.9124 5.51785 51.059C5.33119 51.199 5.09785 51.2924 4.81785 51.339V51.389C5.10452 51.4357 5.36119 51.5224 5.58785 51.649C5.81452 51.769 5.99452 51.9457 6.12785 52.179C6.26119 52.4124 6.32785 52.7157 6.32785 53.089C6.32785 53.5224 6.22452 53.8924 6.01785 54.199C5.81785 54.499 5.52785 54.729 5.14785 54.889C4.77452 55.049 4.32785 55.129 3.80785 55.129H1.24785V47.989H3.33785ZM3.51785 50.969C4.07785 50.969 4.46119 50.879 4.66785 50.699C4.88118 50.519 4.98785 50.2524 4.98785 49.899C4.98785 49.539 4.86119 49.2824 4.60785 49.129C4.35452 48.9757 3.95118 48.899 3.39785 48.899H2.32785V50.969H3.51785ZM2.32785 51.849V54.229H3.63785C4.21785 54.229 4.62119 54.1157 4.84785 53.889C5.07452 53.6624 5.18785 53.3624 5.18785 52.989C5.18785 52.7624 5.13785 52.5624 5.03785 52.389C4.93785 52.2157 4.76785 52.0824 4.52785 51.989C4.29452 51.8957 3.97452 51.849 3.56785 51.849H2.32785ZM12.4404 52.429C12.4404 52.8757 12.3804 53.2724 12.2604 53.619C12.1404 53.9657 11.9704 54.259 11.7504 54.499C11.5304 54.739 11.2637 54.9224 10.9504 55.049C10.637 55.169 10.2837 55.229 9.89035 55.229C9.53035 55.229 9.19702 55.169 8.89035 55.049C8.58368 54.9224 8.31702 54.739 8.09035 54.499C7.87035 54.259 7.69702 53.9657 7.57035 53.619C7.44368 53.2724 7.38035 52.8724 7.38035 52.419C7.38035 51.8257 7.48035 51.3224 7.68035 50.909C7.88702 50.4957 8.18035 50.1824 8.56035 49.969C8.94702 49.749 9.40035 49.639 9.92035 49.639C10.4137 49.639 10.847 49.749 11.2204 49.969C11.6004 50.1824 11.897 50.4957 12.1104 50.909C12.3304 51.3224 12.4404 51.829 12.4404 52.429ZM8.47035 52.429C8.47035 52.829 8.52035 53.1757 8.62035 53.469C8.72035 53.7557 8.87702 53.9757 9.09035 54.129C9.30369 54.2824 9.57702 54.359 9.91035 54.359C10.2437 54.359 10.517 54.2824 10.7304 54.129C10.9437 53.9757 11.1004 53.7557 11.2004 53.469C11.3004 53.1757 11.3504 52.829 11.3504 52.429C11.3504 52.0157 11.297 51.669 11.1904 51.389C11.0904 51.109 10.9337 50.8957 10.7204 50.749C10.5137 50.5957 10.2404 50.519 9.90035 50.519C9.40035 50.519 9.03702 50.6857 8.81035 51.019C8.58369 51.3524 8.47035 51.8224 8.47035 52.429ZM18.5341 52.429C18.5341 52.8757 18.4741 53.2724 18.3541 53.619C18.2341 53.9657 18.0641 54.259 17.8441 54.499C17.6241 54.739 17.3574 54.9224 17.0441 55.049C16.7308 55.169 16.3774 55.229 15.9841 55.229C15.6241 55.229 15.2908 55.169 14.9841 55.049C14.6774 54.9224 14.4108 54.739 14.1841 54.499C13.9641 54.259 13.7908 53.9657 13.6641 53.619C13.5374 53.2724 13.4741 52.8724 13.4741 52.419C13.4741 51.8257 13.5741 51.3224 13.7741 50.909C13.9808 50.4957 14.2741 50.1824 14.6541 49.969C15.0408 49.749 15.4941 49.639 16.0141 49.639C16.5074 49.639 16.9408 49.749 17.3141 49.969C17.6941 50.1824 17.9908 50.4957 18.2041 50.909C18.4241 51.3224 18.5341 51.829 18.5341 52.429ZM14.5641 52.429C14.5641 52.829 14.6141 53.1757 14.7141 53.469C14.8141 53.7557 14.9708 53.9757 15.1841 54.129C15.3974 54.2824 15.6708 54.359 16.0041 54.359C16.3374 54.359 16.6108 54.2824 16.8241 54.129C17.0374 53.9757 17.1941 53.7557 17.2941 53.469C17.3941 53.1757 17.4441 52.829 17.4441 52.429C17.4441 52.0157 17.3908 51.669 17.2841 51.389C17.1841 51.109 17.0274 50.8957 16.8141 50.749C16.6074 50.5957 16.3341 50.519 15.9941 50.519C15.4941 50.519 15.1308 50.6857 14.9041 51.019C14.6774 51.3524 14.5641 51.8224 14.5641 52.429ZM20.9279 51.329C20.9279 51.469 20.9212 51.629 20.9079 51.809C20.9012 51.989 20.8912 52.1557 20.8779 52.309H20.9079C20.9612 52.2424 21.0245 52.1624 21.0979 52.069C21.1779 51.969 21.2579 51.869 21.3379 51.769C21.4179 51.669 21.4912 51.5824 21.5579 51.509L23.2079 49.739H24.4379L22.2679 52.049L24.5779 55.129H23.3279L21.5479 52.719L20.9279 53.239V55.129H19.8779V47.529H20.9279V51.329ZM26.5238 49.739V55.129H25.4638V49.739H26.5238ZM26.0038 47.689C26.1638 47.689 26.3038 47.7357 26.4238 47.829C26.5438 47.9224 26.6038 48.079 26.6038 48.299C26.6038 48.5124 26.5438 48.669 26.4238 48.769C26.3038 48.8624 26.1638 48.909 26.0038 48.909C25.8305 48.909 25.6838 48.8624 25.5638 48.769C25.4505 48.669 25.3938 48.5124 25.3938 48.299C25.3938 48.079 25.4505 47.9224 25.5638 47.829C25.6838 47.7357 25.8305 47.689 26.0038 47.689ZM30.9184 49.639C31.5451 49.639 32.0251 49.7957 32.3584 50.109C32.6917 50.4224 32.8584 50.9257 32.8584 51.619V55.129H31.8084V51.769C31.8084 51.349 31.7184 51.0357 31.5384 50.829C31.3651 50.6157 31.0851 50.509 30.6984 50.509C30.1517 50.509 29.7717 50.6724 29.5584 50.999C29.3517 51.3257 29.2484 51.7957 29.2484 52.409V55.129H28.1884V49.739H29.0284L29.1784 50.459H29.2384C29.3584 50.2724 29.5051 50.119 29.6784 49.999C29.8517 49.879 30.0451 49.789 30.2584 49.729C30.4717 49.669 30.6917 49.639 30.9184 49.639ZM36.3472 49.639C36.6939 49.639 37.0072 49.7057 37.2872 49.839C37.5672 49.9724 37.8039 50.1757 37.9972 50.449H38.0472L38.1672 49.739H39.0272V55.199C39.0272 55.7057 38.9372 56.1324 38.7572 56.479C38.5772 56.8257 38.3006 57.0857 37.9272 57.259C37.5606 57.439 37.0972 57.529 36.5372 57.529C36.1506 57.529 35.7939 57.5024 35.4672 57.449C35.1406 57.3957 34.8406 57.3124 34.5672 57.199V56.269C34.7606 56.3624 34.9639 56.439 35.1772 56.499C35.3906 56.5657 35.6172 56.6124 35.8572 56.639C36.0972 56.6724 36.3439 56.689 36.5972 56.689C37.0372 56.689 37.3772 56.5624 37.6172 56.309C37.8572 56.0624 37.9772 55.7124 37.9772 55.259V55.079C37.9772 54.9924 37.9806 54.879 37.9872 54.739C37.9939 54.5924 38.0006 54.4857 38.0072 54.419H37.9672C37.7806 54.699 37.5506 54.9057 37.2772 55.039C37.0106 55.1657 36.7006 55.229 36.3472 55.229C35.6672 55.229 35.1339 54.9857 34.7472 54.499C34.3672 54.0057 34.1772 53.3224 34.1772 52.449C34.1772 51.8624 34.2639 51.3624 34.4372 50.949C34.6106 50.529 34.8572 50.2057 35.1772 49.979C35.5039 49.7524 35.8939 49.639 36.3472 49.639ZM36.5672 50.519C36.2872 50.519 36.0506 50.5957 35.8572 50.749C35.6639 50.8957 35.5172 51.1124 35.4172 51.399C35.3172 51.6857 35.2672 52.039 35.2672 52.459C35.2672 53.0857 35.3772 53.5624 35.5972 53.889C35.8239 54.2157 36.1539 54.379 36.5872 54.379C36.8406 54.379 37.0539 54.3457 37.2272 54.279C37.4072 54.2124 37.5539 54.109 37.6672 53.969C37.7872 53.829 37.8739 53.6524 37.9272 53.439C37.9872 53.219 38.0172 52.9557 38.0172 52.649V52.449C38.0172 51.989 37.9639 51.619 37.8572 51.339C37.7572 51.0524 37.6006 50.8457 37.3872 50.719C37.1739 50.5857 36.9006 50.519 36.5672 50.519ZM44.2684 53.609C44.2684 53.9624 44.1817 54.259 44.0084 54.499C43.8351 54.739 43.5851 54.9224 43.2584 55.049C42.9317 55.169 42.5384 55.229 42.0784 55.229C41.6984 55.229 41.3717 55.199 41.0984 55.139C40.8317 55.0857 40.5851 55.0057 40.3584 54.899V53.969C40.5984 54.0824 40.8751 54.1857 41.1884 54.279C41.5017 54.3657 41.8084 54.409 42.1084 54.409C42.5084 54.409 42.7951 54.3457 42.9684 54.219C43.1484 54.0924 43.2384 53.9224 43.2384 53.709C43.2384 53.589 43.2051 53.4824 43.1384 53.389C43.0717 53.289 42.9451 53.189 42.7584 53.089C42.5784 52.9824 42.3117 52.8624 41.9584 52.729C41.6184 52.589 41.3284 52.4524 41.0884 52.319C40.8484 52.179 40.6651 52.0157 40.5384 51.829C40.4117 51.6357 40.3484 51.389 40.3484 51.089C40.3484 50.6224 40.5351 50.2657 40.9084 50.019C41.2884 49.7657 41.7884 49.639 42.4084 49.639C42.7351 49.639 43.0417 49.6724 43.3284 49.739C43.6217 49.799 43.9051 49.8924 44.1784 50.019L43.8284 50.829C43.6751 50.7557 43.5151 50.6957 43.3484 50.649C43.1884 50.5957 43.0251 50.5524 42.8584 50.519C42.6984 50.4857 42.5317 50.469 42.3584 50.469C42.0384 50.469 41.7951 50.519 41.6284 50.619C41.4617 50.719 41.3784 50.859 41.3784 51.039C41.3784 51.1657 41.4151 51.2757 41.4884 51.369C41.5684 51.4624 41.7051 51.5557 41.8984 51.649C42.0917 51.7424 42.3551 51.8557 42.6884 51.989C43.0217 52.1157 43.3051 52.2457 43.5384 52.379C43.7784 52.5124 43.9584 52.6757 44.0784 52.869C44.2051 53.0624 44.2684 53.309 44.2684 53.609Z" fill="#1B2559"/>
<path d="M26.3333 21.3334C24.4929 21.3334 22.9999 22.8256 22.9999 24.6666C22.9999 26.5072 24.4929 28 26.3333 28C28.1737 28 29.6667 26.5072 29.6667 24.6666C29.6667 22.8256 28.1737 21.3334 26.3333 21.3334ZM28.3333 25.1666H25.8333V22.6666H26.8333V24.1666H28.3333V25.1666Z" fill="#7A5AF8"/>
<path d="M25.6667 12H16.3334C15.6004 12 15 12.6002 15 13.3334V25.3333C15 26.0663 15.6004 26.6665 16.3334 26.6665H21.6668V24.6665C21.6668 22.0937 23.7605 20 26.3333 20H26.9999V13.3334C26.9999 12.6002 26.3997 12 25.6667 12ZM17 14H23.6667V15.3334H17V14ZM19.6668 23.3333H17V21.9999H19.6668V23.3333ZM21 20.6665H17V19.3334H21V20.6665ZM24.9999 18H17V16.6666H24.9999V18Z" fill="#7A5AF8"/>
</svg>
