<svg width="56" height="62" viewBox="0 0 56 62" fill="none" xmlns="http://www.w3.org/2000/svg">
<path d="M49 20C49 31.0457 40.0457 40 29 40C17.9543 40 9 31.0457 9 20C9 8.9543 17.9543 0 29 0C40.0457 0 49 8.9543 49 20Z" fill="#7A5AF8" fill-opacity="0.1"/>
<path d="M28.7969 15.4857L27.1538 16.2286V12H30.8462V16.2057L29.3508 15.4914C29.2654 15.4503 29.1708 15.4284 29.0746 15.4274C28.9784 15.4264 28.8833 15.4464 28.7969 15.4857ZM37 13.7143V26.2857C37 26.7404 36.8055 27.1764 36.4593 27.4979C36.1131 27.8194 35.6435 28 35.1538 28H22.8462C22.3565 28 21.8869 27.8194 21.5407 27.4979C21.1945 27.1764 21 26.7404 21 26.2857V13.7143C21 13.2596 21.1945 12.8236 21.5407 12.5021C21.8869 12.1806 22.3565 12 22.8462 12H25.9231V17.1429C25.9229 17.24 25.9493 17.3355 25.9999 17.4205C26.0505 17.5055 26.1236 17.5771 26.2123 17.6286C26.301 17.68 26.4023 17.7097 26.5068 17.7147C26.6112 17.7197 26.7153 17.6999 26.8092 17.6571L29.0615 16.64L31.1785 17.6514C31.2666 17.6917 31.3633 17.7132 31.4615 17.7143C31.6247 17.7143 31.7813 17.6541 31.8967 17.5469C32.0121 17.4398 32.0769 17.2944 32.0769 17.1429V12H35.1538C35.6435 12 36.1131 12.1806 36.4593 12.5021C36.8055 12.8236 37 13.2596 37 13.7143ZM27.7692 24.5714H23.4615V25.7143H27.7692V24.5714ZM27.7692 22.2857H23.4615V23.4286H27.7692V22.2857Z" fill="#7A5AF8"/>
<path d="M3.53512 51.86C4.14178 51.86 4.64845 51.9167 5.05512 52.03C5.46845 52.1433 5.77845 52.3333 5.98512 52.6C6.19845 52.86 6.30512 53.2067 6.30512 53.64C6.30512 53.92 6.25512 54.17 6.15512 54.39C6.05512 54.6033 5.90845 54.7833 5.71512 54.93C5.52845 55.07 5.29512 55.1633 5.01512 55.21V55.26C5.30178 55.3067 5.55845 55.3933 5.78512 55.52C6.01178 55.64 6.19178 55.8167 6.32512 56.05C6.45845 56.2833 6.52512 56.5867 6.52512 56.96C6.52512 57.3933 6.42178 57.7633 6.21512 58.07C6.01512 58.37 5.72512 58.6 5.34512 58.76C4.97178 58.92 4.52512 59 4.00512 59H1.44512V51.86H3.53512ZM3.71512 54.84C4.27512 54.84 4.65845 54.75 4.86512 54.57C5.07845 54.39 5.18512 54.1233 5.18512 53.77C5.18512 53.41 5.05845 53.1533 4.80512 53C4.55178 52.8467 4.14845 52.77 3.59512 52.77H2.52512V54.84H3.71512ZM2.52512 55.72V58.1H3.83512C4.41512 58.1 4.81845 57.9867 5.04512 57.76C5.27178 57.5333 5.38512 57.2333 5.38512 56.86C5.38512 56.6333 5.33512 56.4333 5.23512 56.26C5.13512 56.0867 4.96512 55.9533 4.72512 55.86C4.49178 55.7667 4.17178 55.72 3.76512 55.72H2.52512ZM12.6376 56.3C12.6376 56.7467 12.5776 57.1433 12.4576 57.49C12.3376 57.8367 12.1676 58.13 11.9476 58.37C11.7276 58.61 11.461 58.7933 11.1476 58.92C10.8343 59.04 10.481 59.1 10.0876 59.1C9.72762 59.1 9.39428 59.04 9.08762 58.92C8.78095 58.7933 8.51428 58.61 8.28762 58.37C8.06762 58.13 7.89428 57.8367 7.76762 57.49C7.64095 57.1433 7.57762 56.7433 7.57762 56.29C7.57762 55.6967 7.67762 55.1933 7.87762 54.78C8.08428 54.3667 8.37762 54.0533 8.75762 53.84C9.14428 53.62 9.59762 53.51 10.1176 53.51C10.611 53.51 11.0443 53.62 11.4176 53.84C11.7976 54.0533 12.0943 54.3667 12.3076 54.78C12.5276 55.1933 12.6376 55.7 12.6376 56.3ZM8.66762 56.3C8.66762 56.7 8.71762 57.0467 8.81762 57.34C8.91762 57.6267 9.07428 57.8467 9.28762 58C9.50095 58.1533 9.77428 58.23 10.1076 58.23C10.441 58.23 10.7143 58.1533 10.9276 58C11.141 57.8467 11.2976 57.6267 11.3976 57.34C11.4976 57.0467 11.5476 56.7 11.5476 56.3C11.5476 55.8867 11.4943 55.54 11.3876 55.26C11.2876 54.98 11.131 54.7667 10.9176 54.62C10.711 54.4667 10.4376 54.39 10.0976 54.39C9.59762 54.39 9.23428 54.5567 9.00762 54.89C8.78095 55.2233 8.66762 55.6933 8.66762 56.3ZM18.7314 56.3C18.7314 56.7467 18.6714 57.1433 18.5514 57.49C18.4314 57.8367 18.2614 58.13 18.0414 58.37C17.8214 58.61 17.5547 58.7933 17.2414 58.92C16.928 59.04 16.5747 59.1 16.1814 59.1C15.8214 59.1 15.488 59.04 15.1814 58.92C14.8747 58.7933 14.608 58.61 14.3814 58.37C14.1614 58.13 13.988 57.8367 13.8614 57.49C13.7347 57.1433 13.6714 56.7433 13.6714 56.29C13.6714 55.6967 13.7714 55.1933 13.9714 54.78C14.178 54.3667 14.4714 54.0533 14.8514 53.84C15.238 53.62 15.6914 53.51 16.2114 53.51C16.7047 53.51 17.138 53.62 17.5114 53.84C17.8914 54.0533 18.188 54.3667 18.4014 54.78C18.6214 55.1933 18.7314 55.7 18.7314 56.3ZM14.7614 56.3C14.7614 56.7 14.8114 57.0467 14.9114 57.34C15.0114 57.6267 15.168 57.8467 15.3814 58C15.5947 58.1533 15.868 58.23 16.2014 58.23C16.5347 58.23 16.808 58.1533 17.0214 58C17.2347 57.8467 17.3914 57.6267 17.4914 57.34C17.5914 57.0467 17.6414 56.7 17.6414 56.3C17.6414 55.8867 17.588 55.54 17.4814 55.26C17.3814 54.98 17.2247 54.7667 17.0114 54.62C16.8047 54.4667 16.5314 54.39 16.1914 54.39C15.6914 54.39 15.328 54.5567 15.1014 54.89C14.8747 55.2233 14.7614 55.6933 14.7614 56.3ZM21.1251 55.2C21.1251 55.34 21.1185 55.5 21.1051 55.68C21.0985 55.86 21.0885 56.0267 21.0751 56.18H21.1051C21.1585 56.1133 21.2218 56.0333 21.2951 55.94C21.3751 55.84 21.4551 55.74 21.5351 55.64C21.6151 55.54 21.6885 55.4533 21.7551 55.38L23.4051 53.61H24.6351L22.4651 55.92L24.7751 59H23.5251L21.7451 56.59L21.1251 57.11V59H20.0751V51.4H21.1251V55.2ZM34.6787 55.42C34.6787 55.9733 34.6087 56.4767 34.4687 56.93C34.3354 57.3767 34.1287 57.7633 33.8487 58.09C33.5754 58.4167 33.2287 58.6667 32.8087 58.84C32.3954 59.0133 31.912 59.1 31.3587 59.1C30.792 59.1 30.2987 59.0133 29.8787 58.84C29.4654 58.66 29.1187 58.41 28.8387 58.09C28.5654 57.7633 28.362 57.3733 28.2287 56.92C28.0954 56.4667 28.0287 55.9633 28.0287 55.41C28.0287 54.6767 28.1487 54.0367 28.3887 53.49C28.6287 52.9433 28.9954 52.5167 29.4887 52.21C29.9887 51.9033 30.6154 51.75 31.3687 51.75C32.102 51.75 32.712 51.9033 33.1987 52.21C33.692 52.51 34.062 52.9367 34.3087 53.49C34.5554 54.0367 34.6787 54.68 34.6787 55.42ZM29.1687 55.42C29.1687 55.9933 29.2454 56.4867 29.3987 56.9C29.552 57.3067 29.792 57.6233 30.1187 57.85C30.4454 58.07 30.8587 58.18 31.3587 58.18C31.8654 58.18 32.2787 58.07 32.5987 57.85C32.9187 57.6233 33.1554 57.3067 33.3087 56.9C33.462 56.4867 33.5387 55.9933 33.5387 55.42C33.5387 54.56 33.3654 53.89 33.0187 53.41C32.6787 52.9233 32.1287 52.68 31.3687 52.68C30.862 52.68 30.4454 52.79 30.1187 53.01C29.792 53.23 29.552 53.5433 29.3987 53.95C29.2454 54.3567 29.1687 54.8467 29.1687 55.42ZM38.7703 53.51C38.8636 53.51 38.9669 53.5167 39.0803 53.53C39.1936 53.5367 39.2869 53.5467 39.3603 53.56L39.2503 54.55C39.1769 54.53 39.0903 54.5133 38.9903 54.5C38.8903 54.4867 38.7969 54.48 38.7103 54.48C38.5103 54.48 38.3169 54.52 38.1303 54.6C37.9503 54.6733 37.7869 54.7833 37.6403 54.93C37.4936 55.07 37.3769 55.2433 37.2903 55.45C37.2103 55.6567 37.1703 55.8933 37.1703 56.16V59H36.1103V53.61H36.9503L37.0903 54.57H37.1303C37.2436 54.3767 37.3803 54.2 37.5403 54.04C37.7003 53.88 37.8836 53.7533 38.0903 53.66C38.2969 53.56 38.5236 53.51 38.7703 53.51ZM42.013 59.1C41.3663 59.1 40.843 58.8667 40.443 58.4C40.0497 57.9333 39.853 57.24 39.853 56.32C39.853 55.3933 40.053 54.6933 40.453 54.22C40.853 53.7467 41.3797 53.51 42.033 53.51C42.3063 53.51 42.543 53.5467 42.743 53.62C42.9497 53.6867 43.1263 53.78 43.273 53.9C43.4263 54.02 43.5563 54.1533 43.663 54.3H43.723C43.7097 54.2067 43.693 54.0733 43.673 53.9C43.653 53.72 43.643 53.56 43.643 53.42V51.4H44.703V59H43.873L43.693 58.28H43.643C43.543 58.4333 43.4163 58.5733 43.263 58.7C43.1163 58.82 42.9397 58.9167 42.733 58.99C42.5263 59.0633 42.2863 59.1 42.013 59.1ZM42.263 58.23C42.783 58.23 43.1497 58.0867 43.363 57.8C43.5763 57.5067 43.683 57.07 43.683 56.49V56.33C43.683 55.6967 43.5797 55.2133 43.373 54.88C43.173 54.5467 42.7997 54.38 42.253 54.38C41.8197 54.38 41.493 54.5567 41.273 54.91C41.053 55.2567 40.943 55.7333 40.943 56.34C40.943 56.9467 41.053 57.4133 41.273 57.74C41.493 58.0667 41.823 58.23 42.263 58.23ZM48.4842 53.51C48.9575 53.51 49.3642 53.61 49.7042 53.81C50.0442 54.0033 50.3042 54.2833 50.4842 54.65C50.6708 55.0167 50.7642 55.45 50.7642 55.95V56.53H47.1442C47.1575 57.0833 47.3008 57.5067 47.5742 57.8C47.8542 58.0933 48.2442 58.24 48.7442 58.24C49.0908 58.24 49.3975 58.21 49.6642 58.15C49.9375 58.0833 50.2175 57.9867 50.5042 57.86V58.74C50.2375 58.86 49.9642 58.95 49.6842 59.01C49.4108 59.07 49.0842 59.1 48.7042 59.1C48.1842 59.1 47.7242 58.9967 47.3242 58.79C46.9242 58.5833 46.6108 58.2767 46.3842 57.87C46.1642 57.4567 46.0542 56.95 46.0542 56.35C46.0542 55.7433 46.1542 55.23 46.3542 54.81C46.5608 54.39 46.8442 54.07 47.2042 53.85C47.5708 53.6233 47.9975 53.51 48.4842 53.51ZM48.4842 54.33C48.1042 54.33 47.7975 54.4533 47.5642 54.7C47.3375 54.9467 47.2042 55.2967 47.1642 55.75H49.7042C49.7042 55.47 49.6608 55.2233 49.5742 55.01C49.4875 54.7967 49.3542 54.63 49.1742 54.51C48.9942 54.39 48.7642 54.33 48.4842 54.33ZM54.7468 53.51C54.8402 53.51 54.9435 53.5167 55.0568 53.53C55.1702 53.5367 55.2635 53.5467 55.3368 53.56L55.2268 54.55C55.1535 54.53 55.0668 54.5133 54.9668 54.5C54.8668 54.4867 54.7735 54.48 54.6868 54.48C54.4868 54.48 54.2935 54.52 54.1068 54.6C53.9268 54.6733 53.7635 54.7833 53.6168 54.93C53.4702 55.07 53.3535 55.2433 53.2668 55.45C53.1868 55.6567 53.1468 55.8933 53.1468 56.16V59H52.0868V53.61H52.9268L53.0668 54.57H53.1068C53.2202 54.3767 53.3568 54.2 53.5168 54.04C53.6768 53.88 53.8602 53.7533 54.0668 53.66C54.2735 53.56 54.5002 53.51 54.7468 53.51Z" fill="#1B2559"/>
</svg>
