<svg width="69" height="58" viewBox="0 0 69 58" fill="none" xmlns="http://www.w3.org/2000/svg">
<path d="M0.974609 47.8906H3.48926C4.02962 47.8906 4.49023 47.972 4.87109 48.1348C5.25195 48.2975 5.54329 48.5384 5.74512 48.8574C5.9502 49.1732 6.05273 49.5638 6.05273 50.0293C6.05273 50.3841 5.98763 50.6966 5.85742 50.9668C5.72721 51.237 5.54329 51.4648 5.30566 51.6504C5.06803 51.8327 4.78483 51.9743 4.45605 52.0752L4.08496 52.2559H1.82422L1.81445 51.2842H3.50879C3.80176 51.2842 4.0459 51.2321 4.24121 51.1279C4.43652 51.0238 4.58301 50.8822 4.68066 50.7031C4.78158 50.5208 4.83203 50.3158 4.83203 50.0879C4.83203 49.8405 4.7832 49.6257 4.68555 49.4434C4.59115 49.2578 4.44466 49.1162 4.24609 49.0186C4.04753 48.9176 3.79525 48.8672 3.48926 48.8672H2.2002V55H0.974609V47.8906ZM5.03223 55L3.3623 51.8066L4.64648 51.8018L6.34082 54.9365V55H5.03223ZM10.1348 53.9404V51.4209C10.1348 51.2321 10.1006 51.0693 10.0322 50.9326C9.96387 50.7959 9.8597 50.6901 9.71973 50.6152C9.58301 50.5404 9.41048 50.5029 9.20215 50.5029C9.01009 50.5029 8.84408 50.5355 8.7041 50.6006C8.56413 50.6657 8.45508 50.7536 8.37695 50.8643C8.29883 50.9749 8.25977 51.1003 8.25977 51.2402H7.08789C7.08789 51.0319 7.13835 50.8301 7.23926 50.6348C7.34017 50.4395 7.48665 50.2653 7.67871 50.1123C7.87077 49.9593 8.10026 49.8389 8.36719 49.751C8.63411 49.6631 8.93359 49.6191 9.26562 49.6191C9.66276 49.6191 10.0143 49.6859 10.3203 49.8193C10.6296 49.9528 10.8721 50.1546 11.0479 50.4248C11.2269 50.6917 11.3164 51.027 11.3164 51.4307V53.7793C11.3164 54.0202 11.3327 54.2367 11.3652 54.4287C11.401 54.6175 11.4515 54.7819 11.5166 54.9219V55H10.3105C10.2552 54.873 10.2113 54.7119 10.1787 54.5166C10.1494 54.318 10.1348 54.126 10.1348 53.9404ZM10.3057 51.7871L10.3154 52.5146H9.4707C9.2526 52.5146 9.06055 52.5358 8.89453 52.5781C8.72852 52.6172 8.59017 52.6758 8.47949 52.7539C8.36882 52.832 8.28581 52.9264 8.23047 53.0371C8.17513 53.1478 8.14746 53.2731 8.14746 53.4131C8.14746 53.5531 8.18001 53.6816 8.24512 53.7988C8.31022 53.9128 8.40462 54.0023 8.52832 54.0674C8.65527 54.1325 8.80827 54.165 8.9873 54.165C9.22819 54.165 9.43815 54.1162 9.61719 54.0186C9.79948 53.9176 9.94271 53.7956 10.0469 53.6523C10.151 53.5059 10.2064 53.3675 10.2129 53.2373L10.5938 53.7598C10.5547 53.8932 10.488 54.0365 10.3936 54.1895C10.2992 54.3424 10.1755 54.4889 10.0225 54.6289C9.87272 54.7656 9.69206 54.8779 9.48047 54.9658C9.27214 55.0537 9.03125 55.0977 8.75781 55.0977C8.41276 55.0977 8.10514 55.0293 7.83496 54.8926C7.56478 54.7526 7.35319 54.5654 7.2002 54.3311C7.0472 54.0934 6.9707 53.8249 6.9707 53.5254C6.9707 53.2454 7.02279 52.998 7.12695 52.7832C7.23438 52.5651 7.39062 52.3828 7.5957 52.2363C7.80404 52.0898 8.05794 51.9792 8.35742 51.9043C8.6569 51.8262 8.9987 51.7871 9.38281 51.7871H10.3057ZM14.9688 49.7168V50.5762H11.9902V49.7168H14.9688ZM12.8496 48.4229H14.0264V53.54C14.0264 53.7028 14.0492 53.8281 14.0947 53.916C14.1436 54.0007 14.2103 54.0576 14.2949 54.0869C14.3796 54.1162 14.4788 54.1309 14.5928 54.1309C14.6742 54.1309 14.7523 54.126 14.8271 54.1162C14.902 54.1064 14.9622 54.0967 15.0078 54.0869L15.0127 54.9854C14.915 55.0146 14.8011 55.0407 14.6709 55.0635C14.5439 55.0863 14.3975 55.0977 14.2314 55.0977C13.9613 55.0977 13.722 55.0505 13.5137 54.9561C13.3053 54.8584 13.1426 54.7005 13.0254 54.4824C12.9082 54.2643 12.8496 53.9746 12.8496 53.6133V48.4229ZM18.2061 55.0977C17.8154 55.0977 17.4622 55.0342 17.1465 54.9072C16.834 54.777 16.5671 54.5964 16.3457 54.3652C16.1276 54.1341 15.96 53.8623 15.8428 53.5498C15.7256 53.2373 15.667 52.9004 15.667 52.5391V52.3438C15.667 51.9303 15.7272 51.556 15.8477 51.2207C15.9681 50.8854 16.1357 50.599 16.3506 50.3613C16.5654 50.1204 16.8193 49.9365 17.1123 49.8096C17.4053 49.6826 17.7227 49.6191 18.0645 49.6191C18.4421 49.6191 18.7725 49.6826 19.0557 49.8096C19.3389 49.9365 19.5732 50.1156 19.7588 50.3467C19.9476 50.5745 20.0876 50.8464 20.1787 51.1621C20.2731 51.4779 20.3203 51.8262 20.3203 52.207V52.71H16.2383V51.8652H19.1582V51.7725C19.1517 51.5609 19.1094 51.3623 19.0312 51.1768C18.9564 50.9912 18.8408 50.8415 18.6846 50.7275C18.5283 50.6136 18.32 50.5566 18.0596 50.5566C17.8643 50.5566 17.6901 50.599 17.5371 50.6836C17.3874 50.765 17.262 50.8838 17.1611 51.04C17.0602 51.1963 16.9821 51.3851 16.9268 51.6064C16.8747 51.8245 16.8486 52.0703 16.8486 52.3438V52.5391C16.8486 52.7702 16.8796 52.985 16.9414 53.1836C17.0065 53.3789 17.1009 53.5498 17.2246 53.6963C17.3483 53.8428 17.498 53.9583 17.6738 54.043C17.8496 54.1243 18.0498 54.165 18.2744 54.165C18.5576 54.165 18.8099 54.1081 19.0312 53.9941C19.2526 53.8802 19.4447 53.7191 19.6074 53.5107L20.2275 54.1113C20.1136 54.2773 19.9655 54.4368 19.7832 54.5898C19.6009 54.7396 19.3779 54.8617 19.1143 54.9561C18.8538 55.0505 18.5511 55.0977 18.2061 55.0977ZM28.0449 52.6855H29.2656C29.2266 53.151 29.0964 53.5661 28.875 53.9307C28.6536 54.292 28.3428 54.5768 27.9424 54.7852C27.542 54.9935 27.0553 55.0977 26.4824 55.0977C26.043 55.0977 25.6475 55.0195 25.2959 54.8633C24.9443 54.7038 24.6432 54.4792 24.3926 54.1895C24.1419 53.8965 23.9499 53.5433 23.8164 53.1299C23.6862 52.7165 23.6211 52.2542 23.6211 51.7432V51.1523C23.6211 50.6413 23.6878 50.179 23.8213 49.7656C23.958 49.3522 24.1533 48.999 24.4072 48.7061C24.6611 48.4098 24.9655 48.1836 25.3203 48.0273C25.6784 47.8711 26.0804 47.793 26.5264 47.793C27.0928 47.793 27.5713 47.8971 27.9619 48.1055C28.3525 48.3138 28.6553 48.6019 28.8701 48.9697C29.0882 49.3376 29.2217 49.7591 29.2705 50.2344H28.0498C28.0173 49.9284 27.9456 49.6663 27.835 49.4482C27.7275 49.2301 27.568 49.0641 27.3564 48.9502C27.1449 48.833 26.8682 48.7744 26.5264 48.7744C26.2464 48.7744 26.0023 48.8265 25.7939 48.9307C25.5856 49.0348 25.4115 49.1878 25.2715 49.3896C25.1315 49.5915 25.0257 49.8405 24.9541 50.1367C24.8857 50.4297 24.8516 50.765 24.8516 51.1426V51.7432C24.8516 52.1012 24.8825 52.4268 24.9443 52.7197C25.0094 53.0094 25.1071 53.2585 25.2373 53.4668C25.3708 53.6751 25.54 53.8363 25.7451 53.9502C25.9502 54.0641 26.196 54.1211 26.4824 54.1211C26.8307 54.1211 27.1123 54.0658 27.3271 53.9551C27.5452 53.8444 27.7096 53.6833 27.8203 53.4717C27.9342 53.2568 28.0091 52.9948 28.0449 52.6855ZM33.2402 53.9404V51.4209C33.2402 51.2321 33.2061 51.0693 33.1377 50.9326C33.0693 50.7959 32.9652 50.6901 32.8252 50.6152C32.6885 50.5404 32.516 50.5029 32.3076 50.5029C32.1156 50.5029 31.9495 50.5355 31.8096 50.6006C31.6696 50.6657 31.5605 50.7536 31.4824 50.8643C31.4043 50.9749 31.3652 51.1003 31.3652 51.2402H30.1934C30.1934 51.0319 30.2438 50.8301 30.3447 50.6348C30.4456 50.4395 30.5921 50.2653 30.7842 50.1123C30.9762 49.9593 31.2057 49.8389 31.4727 49.751C31.7396 49.6631 32.0391 49.6191 32.3711 49.6191C32.7682 49.6191 33.1198 49.6859 33.4258 49.8193C33.735 49.9528 33.9775 50.1546 34.1533 50.4248C34.3324 50.6917 34.4219 51.027 34.4219 51.4307V53.7793C34.4219 54.0202 34.4382 54.2367 34.4707 54.4287C34.5065 54.6175 34.557 54.7819 34.6221 54.9219V55H33.416C33.3607 54.873 33.3167 54.7119 33.2842 54.5166C33.2549 54.318 33.2402 54.126 33.2402 53.9404ZM33.4111 51.7871L33.4209 52.5146H32.5762C32.3581 52.5146 32.166 52.5358 32 52.5781C31.834 52.6172 31.6956 52.6758 31.585 52.7539C31.4743 52.832 31.3913 52.9264 31.3359 53.0371C31.2806 53.1478 31.2529 53.2731 31.2529 53.4131C31.2529 53.5531 31.2855 53.6816 31.3506 53.7988C31.4157 53.9128 31.5101 54.0023 31.6338 54.0674C31.7607 54.1325 31.9137 54.165 32.0928 54.165C32.3337 54.165 32.5436 54.1162 32.7227 54.0186C32.9049 53.9176 33.0482 53.7956 33.1523 53.6523C33.2565 53.5059 33.3118 53.3675 33.3184 53.2373L33.6992 53.7598C33.6602 53.8932 33.5934 54.0365 33.499 54.1895C33.4046 54.3424 33.2809 54.4889 33.1279 54.6289C32.9782 54.7656 32.7975 54.8779 32.5859 54.9658C32.3776 55.0537 32.1367 55.0977 31.8633 55.0977C31.5182 55.0977 31.2106 55.0293 30.9404 54.8926C30.6702 54.7526 30.4587 54.5654 30.3057 54.3311C30.1527 54.0934 30.0762 53.8249 30.0762 53.5254C30.0762 53.2454 30.1283 52.998 30.2324 52.7832C30.3398 52.5651 30.4961 52.3828 30.7012 52.2363C30.9095 52.0898 31.1634 51.9792 31.4629 51.9043C31.7624 51.8262 32.1042 51.7871 32.4883 51.7871H33.4111ZM36.9121 47.5V55H35.7305V47.5H36.9121ZM40.3594 54.1602C40.5514 54.1602 40.724 54.1227 40.877 54.0479C41.0332 53.9697 41.1585 53.8623 41.2529 53.7256C41.3506 53.5889 41.4043 53.431 41.4141 53.252H42.5225C42.516 53.5938 42.415 53.9046 42.2197 54.1846C42.0244 54.4645 41.7656 54.6875 41.4434 54.8535C41.1211 55.0163 40.7646 55.0977 40.374 55.0977C39.9704 55.0977 39.6188 55.0293 39.3193 54.8926C39.0199 54.7526 38.7708 54.5605 38.5723 54.3164C38.3737 54.0723 38.224 53.7907 38.123 53.4717C38.0254 53.1527 37.9766 52.8109 37.9766 52.4463V52.2754C37.9766 51.9108 38.0254 51.569 38.123 51.25C38.224 50.9277 38.3737 50.6445 38.5723 50.4004C38.7708 50.1562 39.0199 49.9658 39.3193 49.8291C39.6188 49.6891 39.9688 49.6191 40.3691 49.6191C40.7923 49.6191 41.1634 49.7038 41.4824 49.873C41.8014 50.0391 42.0521 50.2718 42.2344 50.5713C42.4199 50.8675 42.516 51.2126 42.5225 51.6064H41.4141C41.4043 51.4111 41.3555 51.2354 41.2676 51.0791C41.1829 50.9196 41.0625 50.7926 40.9062 50.6982C40.7533 50.6038 40.5693 50.5566 40.3545 50.5566C40.1169 50.5566 39.9199 50.6055 39.7637 50.7031C39.6074 50.7975 39.4854 50.9277 39.3975 51.0938C39.3096 51.2565 39.2461 51.4404 39.207 51.6455C39.1712 51.8473 39.1533 52.0573 39.1533 52.2754V52.4463C39.1533 52.6644 39.1712 52.876 39.207 53.0811C39.2428 53.2861 39.3047 53.4701 39.3926 53.6328C39.4837 53.7923 39.6074 53.9209 39.7637 54.0186C39.9199 54.113 40.1185 54.1602 40.3594 54.1602ZM46.6045 53.7549V49.7168H47.7861V55H46.6729L46.6045 53.7549ZM46.7705 52.6562L47.166 52.6465C47.166 53.0013 47.127 53.3285 47.0488 53.6279C46.9707 53.9242 46.8503 54.1829 46.6875 54.4043C46.5247 54.6224 46.3164 54.7933 46.0625 54.917C45.8086 55.0374 45.5042 55.0977 45.1494 55.0977C44.8923 55.0977 44.6562 55.0602 44.4414 54.9854C44.2266 54.9105 44.041 54.7949 43.8848 54.6387C43.7318 54.4824 43.613 54.279 43.5283 54.0283C43.4437 53.7777 43.4014 53.4782 43.4014 53.1299V49.7168H44.5781V53.1396C44.5781 53.3317 44.6009 53.4928 44.6465 53.623C44.6921 53.75 44.7539 53.8525 44.832 53.9307C44.9102 54.0088 45.0013 54.0641 45.1055 54.0967C45.2096 54.1292 45.3203 54.1455 45.4375 54.1455C45.7728 54.1455 46.0365 54.0804 46.2285 53.9502C46.4238 53.8167 46.5622 53.6377 46.6436 53.4131C46.7282 53.1885 46.7705 52.9362 46.7705 52.6562ZM50.252 47.5V55H49.0703V47.5H50.252ZM54.5195 53.9404V51.4209C54.5195 51.2321 54.4854 51.0693 54.417 50.9326C54.3486 50.7959 54.2445 50.6901 54.1045 50.6152C53.9678 50.5404 53.7952 50.5029 53.5869 50.5029C53.3949 50.5029 53.2288 50.5355 53.0889 50.6006C52.9489 50.6657 52.8398 50.7536 52.7617 50.8643C52.6836 50.9749 52.6445 51.1003 52.6445 51.2402H51.4727C51.4727 51.0319 51.5231 50.8301 51.624 50.6348C51.7249 50.4395 51.8714 50.2653 52.0635 50.1123C52.2555 49.9593 52.485 49.8389 52.752 49.751C53.0189 49.6631 53.3184 49.6191 53.6504 49.6191C54.0475 49.6191 54.3991 49.6859 54.7051 49.8193C55.0143 49.9528 55.2568 50.1546 55.4326 50.4248C55.6117 50.6917 55.7012 51.027 55.7012 51.4307V53.7793C55.7012 54.0202 55.7174 54.2367 55.75 54.4287C55.7858 54.6175 55.8363 54.7819 55.9014 54.9219V55H54.6953C54.64 54.873 54.596 54.7119 54.5635 54.5166C54.5342 54.318 54.5195 54.126 54.5195 53.9404ZM54.6904 51.7871L54.7002 52.5146H53.8555C53.6374 52.5146 53.4453 52.5358 53.2793 52.5781C53.1133 52.6172 52.9749 52.6758 52.8643 52.7539C52.7536 52.832 52.6706 52.9264 52.6152 53.0371C52.5599 53.1478 52.5322 53.2731 52.5322 53.4131C52.5322 53.5531 52.5648 53.6816 52.6299 53.7988C52.695 53.9128 52.7894 54.0023 52.9131 54.0674C53.04 54.1325 53.193 54.165 53.3721 54.165C53.613 54.165 53.8229 54.1162 54.002 54.0186C54.1842 53.9176 54.3275 53.7956 54.4316 53.6523C54.5358 53.5059 54.5911 53.3675 54.5977 53.2373L54.9785 53.7598C54.9395 53.8932 54.8727 54.0365 54.7783 54.1895C54.6839 54.3424 54.5602 54.4889 54.4072 54.6289C54.2575 54.7656 54.0768 54.8779 53.8652 54.9658C53.6569 55.0537 53.416 55.0977 53.1426 55.0977C52.7975 55.0977 52.4899 55.0293 52.2197 54.8926C51.9495 54.7526 51.738 54.5654 51.585 54.3311C51.432 54.0934 51.3555 53.8249 51.3555 53.5254C51.3555 53.2454 51.4076 52.998 51.5117 52.7832C51.6191 52.5651 51.7754 52.3828 51.9805 52.2363C52.1888 52.0898 52.4427 51.9792 52.7422 51.9043C53.0417 51.8262 53.3835 51.7871 53.7676 51.7871H54.6904ZM59.3535 49.7168V50.5762H56.375V49.7168H59.3535ZM57.2344 48.4229H58.4111V53.54C58.4111 53.7028 58.4339 53.8281 58.4795 53.916C58.5283 54.0007 58.5951 54.0576 58.6797 54.0869C58.7643 54.1162 58.8636 54.1309 58.9775 54.1309C59.0589 54.1309 59.137 54.126 59.2119 54.1162C59.2868 54.1064 59.347 54.0967 59.3926 54.0869L59.3975 54.9854C59.2998 55.0146 59.1859 55.0407 59.0557 55.0635C58.9287 55.0863 58.7822 55.0977 58.6162 55.0977C58.346 55.0977 58.1068 55.0505 57.8984 54.9561C57.6901 54.8584 57.5273 54.7005 57.4102 54.4824C57.293 54.2643 57.2344 53.9746 57.2344 53.6133V48.4229ZM59.9199 52.417V52.3047C59.9199 51.9238 59.9753 51.5706 60.0859 51.2451C60.1966 50.9163 60.3561 50.6315 60.5645 50.3906C60.776 50.1465 61.0332 49.9577 61.3359 49.8242C61.6419 49.6875 61.987 49.6191 62.3711 49.6191C62.7585 49.6191 63.1035 49.6875 63.4062 49.8242C63.7122 49.9577 63.971 50.1465 64.1826 50.3906C64.3942 50.6315 64.5553 50.9163 64.666 51.2451C64.7767 51.5706 64.832 51.9238 64.832 52.3047V52.417C64.832 52.7979 64.7767 53.151 64.666 53.4766C64.5553 53.8021 64.3942 54.0869 64.1826 54.3311C63.971 54.5719 63.7139 54.7607 63.4111 54.8975C63.1084 55.0309 62.765 55.0977 62.3809 55.0977C61.9935 55.0977 61.6468 55.0309 61.3408 54.8975C61.0381 54.7607 60.7809 54.5719 60.5693 54.3311C60.3577 54.0869 60.1966 53.8021 60.0859 53.4766C59.9753 53.151 59.9199 52.7979 59.9199 52.417ZM61.0967 52.3047V52.417C61.0967 52.6546 61.1211 52.8792 61.1699 53.0908C61.2188 53.3024 61.2952 53.488 61.3994 53.6475C61.5036 53.807 61.637 53.9323 61.7998 54.0234C61.9626 54.1146 62.1562 54.1602 62.3809 54.1602C62.599 54.1602 62.7878 54.1146 62.9473 54.0234C63.11 53.9323 63.2435 53.807 63.3477 53.6475C63.4518 53.488 63.5283 53.3024 63.5771 53.0908C63.6292 52.8792 63.6553 52.6546 63.6553 52.417V52.3047C63.6553 52.0703 63.6292 51.849 63.5771 51.6406C63.5283 51.429 63.4502 51.2419 63.3428 51.0791C63.2386 50.9163 63.1051 50.7894 62.9424 50.6982C62.7829 50.6038 62.5924 50.5566 62.3711 50.5566C62.1497 50.5566 61.9577 50.6038 61.7949 50.6982C61.6354 50.7894 61.5036 50.9163 61.3994 51.0791C61.2952 51.2419 61.2188 51.429 61.1699 51.6406C61.1211 51.849 61.0967 52.0703 61.0967 52.3047ZM67 50.7227V55H65.8232V49.7168H66.9463L67 50.7227ZM68.6162 49.6826L68.6064 50.7764C68.5348 50.7633 68.4567 50.7536 68.3721 50.7471C68.2907 50.7406 68.2093 50.7373 68.1279 50.7373C67.9261 50.7373 67.7487 50.7666 67.5957 50.8252C67.4427 50.8805 67.3141 50.9619 67.21 51.0693C67.109 51.1735 67.0309 51.3005 66.9756 51.4502C66.9202 51.5999 66.8877 51.7676 66.8779 51.9531L66.6094 51.9727C66.6094 51.6406 66.6419 51.333 66.707 51.0498C66.7721 50.7666 66.8698 50.5176 67 50.3027C67.1335 50.0879 67.2995 49.9202 67.498 49.7998C67.6999 49.6794 67.9326 49.6191 68.1963 49.6191C68.2679 49.6191 68.3444 49.6257 68.4258 49.6387C68.5104 49.6517 68.5739 49.6663 68.6162 49.6826Z" fill="#1B2559"/>
<path d="M54 20C54 31.0457 45.0457 40 34 40C22.9543 40 14 31.0457 14 20C14 8.9543 22.9543 0 34 0C45.0457 0 54 8.9543 54 20Z" fill="#7A5AF8" fill-opacity="0.1"/>
<path d="M38.6764 12H29.4062C28.6308 12 28 12.6308 28 13.4062V26.5938C28 27.3692 28.6308 28 29.4062 28H38.6764C39.4518 28 40.0827 27.3692 40.0827 26.5938V13.4062C40.0827 12.6308 39.4518 12 38.6764 12ZM29.9092 14.7609C29.9092 14.5547 30.0779 14.3859 30.2842 14.3859H37.9239C38.1302 14.3859 38.2989 14.5547 38.2989 14.7609V16.1906C38.299 16.3968 38.1302 16.5656 37.924 16.5656H30.2842C30.0779 16.5656 29.9092 16.3968 29.9092 16.1906V14.7609ZM34.4797 19.8873H33.603C33.3441 19.8873 33.1343 19.6775 33.1343 19.4186V18.7816C33.1343 18.5227 33.3442 18.3129 33.603 18.3129H34.4797C34.7386 18.3129 34.9484 18.5227 34.9484 18.7816V19.4186C34.9484 19.6775 34.7386 19.8873 34.4797 19.8873ZM34.9484 21.8011V22.438C34.9484 22.6969 34.7386 22.9068 34.4797 22.9068H33.603C33.3442 22.9068 33.1343 22.6969 33.1343 22.438V21.8011C33.1343 21.5422 33.3441 21.3323 33.603 21.3323H34.4797C34.7386 21.3323 34.9484 21.5422 34.9484 21.8011ZM31.5978 25.4575C31.5978 25.7163 31.3879 25.9262 31.1291 25.9262H30.2524C29.9935 25.9262 29.7837 25.7163 29.7837 25.4575V24.8205C29.7837 24.5616 29.9935 24.3518 30.2524 24.3518H31.1291C31.3879 24.3518 31.5978 24.5616 31.5978 24.8205V25.4575ZM31.5978 22.438C31.5978 22.6969 31.3879 22.9068 31.1291 22.9068H30.2524C29.9935 22.9068 29.7837 22.6969 29.7837 22.438V21.8011C29.7837 21.5422 29.9935 21.3323 30.2524 21.3323H31.1291C31.3879 21.3323 31.5978 21.5422 31.5978 21.8011V22.438ZM31.5978 19.4186C31.5978 19.6775 31.3879 19.8873 31.1291 19.8873H30.2524C29.9935 19.8873 29.7837 19.6775 29.7837 19.4186V18.7816C29.7837 18.5227 29.9935 18.3129 30.2524 18.3129H31.1291C31.3879 18.3129 31.5978 18.5227 31.5978 18.7816V19.4186ZM38.299 25.4575C38.299 25.7163 38.0891 25.9262 37.8302 25.9262H33.603C33.3441 25.9262 33.1342 25.7163 33.1342 25.4575V24.8205C33.1342 24.5616 33.3441 24.3518 33.603 24.3518H37.8302C38.0891 24.3518 38.299 24.5616 38.299 24.8205V25.4575ZM38.299 22.438C38.299 22.6969 38.0891 22.9068 37.8302 22.9068H36.9536C36.6947 22.9068 36.4848 22.6969 36.4848 22.438V21.8011C36.4848 21.5422 36.6947 21.3323 36.9536 21.3323H37.8302C38.0891 21.3323 38.299 21.5422 38.299 21.8011V22.438ZM38.299 19.4186C38.299 19.6775 38.0891 19.8873 37.8302 19.8873H36.9536C36.6947 19.8873 36.4848 19.6775 36.4848 19.4186V18.7816C36.4848 18.5227 36.6947 18.3129 36.9536 18.3129H37.8302C38.0891 18.3129 38.299 18.5227 38.299 18.7816V19.4186Z" fill="#7A5AF8"/>
</svg>
