<svg width="44" height="60" viewBox="0 0 44 60" fill="none" xmlns="http://www.w3.org/2000/svg">
<path d="M42 20C42 31.0457 33.0457 40 22 40C10.9543 40 2 31.0457 2 20C2 8.9543 10.9543 0 22 0C33.0457 0 42 8.9543 42 20Z" fill="#7A5AF8" fill-opacity="0.1"/>
<g clip-path="url(#clip0_29_7929)" filter="url(#filter0_d_29_7929)">
<path d="M29.9999 19.8811C29.9952 20.1703 29.9017 20.4511 29.7319 20.6853C29.0742 21.6165 28.0048 23.0977 27.2642 24.1229C27.0074 24.4761 26.6709 24.7636 26.2819 24.9619C25.8929 25.1603 25.4625 25.2638 25.0259 25.2642H20.0794L19.9164 25.4272L16.6003 22.1112L17.3824 21.3291C17.5888 21.1214 17.8476 20.9734 18.1312 20.9008C18.2698 20.862 18.413 20.8425 18.5568 20.8428H24.5008C24.7207 20.8446 24.9308 20.9337 25.085 21.0905C25.2392 21.2473 25.3248 21.4588 25.3229 21.6787C25.3211 21.8986 25.232 22.1087 25.0752 22.2629C24.9185 22.4171 24.7069 22.5026 24.487 22.5008H21.4473C21.374 22.5008 21.3037 22.5299 21.2519 22.5818C21.2001 22.6336 21.171 22.7039 21.171 22.7772C21.171 22.8504 21.2001 22.9207 21.2519 22.9726C21.3037 23.0244 21.374 23.0535 21.4473 23.0535H24.487C24.8534 23.0534 25.2048 22.9077 25.4639 22.6487C25.7229 22.3896 25.8686 22.0382 25.8687 21.6718C25.8686 21.5647 25.8556 21.458 25.83 21.354C26.2224 20.9865 27.8141 19.4749 28.1125 19.1792C28.2564 19.0346 28.4354 18.9298 28.6321 18.8753C28.8117 18.8222 29.002 18.817 29.1843 18.8602C29.3665 18.9033 29.5343 18.9933 29.6711 19.1212C29.7763 19.2176 29.8599 19.3352 29.9166 19.4661C29.9732 19.597 30.0016 19.7385 29.9999 19.8811ZM14 23.6062L18.4186 28.0276L20.0794 26.3695L15.658 21.9481L14 23.6062ZM18.5568 20.2901C18.4138 20.2906 18.2713 20.3054 18.1312 20.3343V12H21.7236V15.0397C21.7234 15.0944 21.7397 15.1478 21.7702 15.1932C21.8008 15.2385 21.8442 15.2736 21.895 15.2939C21.9453 15.315 22.0007 15.3208 22.0543 15.3104C22.1079 15.3001 21.7767 15.2833 21.8156 15.245L23.3816 15.2359L24.9931 15.1932C25.0454 15.2447 24.6899 15.3163 24.7633 15.316C24.7996 15.317 24.9154 15.2734 24.9482 15.2579C24.999 15.2375 24.9625 15.2385 24.9931 15.1932C25.0236 15.1478 25.0399 15.0944 25.0397 15.0397V12H28.6321V18.3088C28.5826 18.3169 28.5337 18.328 28.4856 18.3419C28.1977 18.4231 27.9353 18.5762 27.7229 18.7868C27.4272 19.0798 25.9792 20.4559 25.6587 20.7599C25.3494 20.4574 24.9335 20.2886 24.5008 20.2901H18.5568ZM19.2366 17.5267C19.2368 17.6 19.266 17.6701 19.3178 17.7219C19.3695 17.7737 19.4397 17.8029 19.5129 17.8031H20.8946C20.9679 17.8031 21.0382 17.774 21.09 17.7221C21.1418 17.6703 21.171 17.6 21.171 17.5267C21.171 17.4535 21.1418 17.3832 21.09 17.3313C21.0382 17.2795 20.9679 17.2504 20.8946 17.2504H19.5129C19.4397 17.2506 19.3695 17.2798 19.3178 17.3316C19.266 17.3834 19.2368 17.4535 19.2366 17.5267ZM19.2366 18.6321C19.2368 18.7053 19.266 18.7755 19.3178 18.8273C19.3695 18.879 19.4397 18.9082 19.5129 18.9084H20.8946C20.9679 18.9084 21.0382 18.8793 21.09 18.8275C21.1418 18.7757 21.171 18.7054 21.171 18.6321C21.171 18.5588 21.1418 18.4885 21.09 18.4367C21.0382 18.3849 20.9679 18.3558 20.8946 18.3558H19.5129C19.4397 18.356 19.3695 18.3852 19.3178 18.4369C19.266 18.4887 19.2368 18.5589 19.2366 18.6321Z" fill="#7A5AF8"/>
</g>
<path d="M2.86914 57H1.35059L1.36035 56.0283H2.86914C3.30859 56.0283 3.67643 55.9323 3.97266 55.7402C4.27214 55.5482 4.49674 55.2731 4.64648 54.915C4.79948 54.557 4.87598 54.1305 4.87598 53.6357V53.25C4.87598 52.8659 4.83203 52.5257 4.74414 52.2295C4.65951 51.9333 4.53255 51.6842 4.36328 51.4824C4.19727 51.2806 3.99219 51.1276 3.74805 51.0234C3.50716 50.9193 3.22884 50.8672 2.91309 50.8672H1.32129V49.8906H2.91309C3.38509 49.8906 3.81641 49.9704 4.20703 50.1299C4.59766 50.2861 4.93457 50.5124 5.21777 50.8086C5.50423 51.1048 5.72396 51.4596 5.87695 51.873C6.02995 52.2865 6.10645 52.7487 6.10645 53.2598V53.6357C6.10645 54.1468 6.02995 54.609 5.87695 55.0225C5.72396 55.4359 5.50423 55.7907 5.21777 56.0869C4.93132 56.3799 4.58952 56.6061 4.19238 56.7656C3.7985 56.9219 3.35742 57 2.86914 57ZM2.0293 49.8906V57H0.803711V49.8906H2.0293ZM9.54883 57.0977C9.1582 57.0977 8.80501 57.0342 8.48926 56.9072C8.17676 56.777 7.90983 56.5964 7.68848 56.3652C7.47038 56.1341 7.30273 55.8623 7.18555 55.5498C7.06836 55.2373 7.00977 54.9004 7.00977 54.5391V54.3438C7.00977 53.9303 7.06999 53.556 7.19043 53.2207C7.31087 52.8854 7.47852 52.599 7.69336 52.3613C7.9082 52.1204 8.16211 51.9365 8.45508 51.8096C8.74805 51.6826 9.06543 51.6191 9.40723 51.6191C9.78483 51.6191 10.1152 51.6826 10.3984 51.8096C10.6816 51.9365 10.916 52.1156 11.1016 52.3467C11.2904 52.5745 11.4303 52.8464 11.5215 53.1621C11.6159 53.4779 11.6631 53.8262 11.6631 54.207V54.71H7.58105V53.8652H10.501V53.7725C10.4945 53.5609 10.4521 53.3623 10.374 53.1768C10.2992 52.9912 10.1836 52.8415 10.0273 52.7275C9.87109 52.6136 9.66276 52.5566 9.40234 52.5566C9.20703 52.5566 9.03288 52.599 8.87988 52.6836C8.73014 52.765 8.60482 52.8838 8.50391 53.04C8.40299 53.1963 8.32487 53.3851 8.26953 53.6064C8.21745 53.8245 8.19141 54.0703 8.19141 54.3438V54.5391C8.19141 54.7702 8.22233 54.985 8.28418 55.1836C8.34928 55.3789 8.44368 55.5498 8.56738 55.6963C8.69108 55.8428 8.84082 55.9583 9.0166 56.043C9.19238 56.1243 9.39258 56.165 9.61719 56.165C9.90039 56.165 10.1527 56.1081 10.374 55.9941C10.5954 55.8802 10.7874 55.7191 10.9502 55.5107L11.5703 56.1113C11.4564 56.2773 11.3083 56.4368 11.126 56.5898C10.9437 56.7396 10.7207 56.8617 10.457 56.9561C10.1966 57.0505 9.89388 57.0977 9.54883 57.0977ZM13.8408 49.5V57H12.6592V49.5H13.8408ZM16.3896 51.7168V57H15.208V51.7168H16.3896ZM15.1299 50.3301C15.1299 50.151 15.1885 50.0029 15.3057 49.8857C15.4261 49.7653 15.5921 49.7051 15.8037 49.7051C16.012 49.7051 16.1764 49.7653 16.2969 49.8857C16.4173 50.0029 16.4775 50.151 16.4775 50.3301C16.4775 50.5059 16.4173 50.6523 16.2969 50.7695C16.1764 50.8867 16.012 50.9453 15.8037 50.9453C15.5921 50.9453 15.4261 50.8867 15.3057 50.7695C15.1885 50.6523 15.1299 50.5059 15.1299 50.3301ZM19.3975 56.0674L20.6914 51.7168H21.9121L20.0762 57H19.3145L19.3975 56.0674ZM18.4062 51.7168L19.7246 56.0869L19.7881 57H19.0264L17.1807 51.7168H18.4062ZM24.9004 57.0977C24.5098 57.0977 24.1566 57.0342 23.8408 56.9072C23.5283 56.777 23.2614 56.5964 23.04 56.3652C22.8219 56.1341 22.6543 55.8623 22.5371 55.5498C22.4199 55.2373 22.3613 54.9004 22.3613 54.5391V54.3438C22.3613 53.9303 22.4215 53.556 22.542 53.2207C22.6624 52.8854 22.8301 52.599 23.0449 52.3613C23.2598 52.1204 23.5137 51.9365 23.8066 51.8096C24.0996 51.6826 24.417 51.6191 24.7588 51.6191C25.1364 51.6191 25.4668 51.6826 25.75 51.8096C26.0332 51.9365 26.2676 52.1156 26.4531 52.3467C26.6419 52.5745 26.7819 52.8464 26.873 53.1621C26.9674 53.4779 27.0146 53.8262 27.0146 54.207V54.71H22.9326V53.8652H25.8525V53.7725C25.846 53.5609 25.8037 53.3623 25.7256 53.1768C25.6507 52.9912 25.5352 52.8415 25.3789 52.7275C25.2227 52.6136 25.0143 52.5566 24.7539 52.5566C24.5586 52.5566 24.3844 52.599 24.2314 52.6836C24.0817 52.765 23.9564 52.8838 23.8555 53.04C23.7546 53.1963 23.6764 53.3851 23.6211 53.6064C23.569 53.8245 23.543 54.0703 23.543 54.3438V54.5391C23.543 54.7702 23.5739 54.985 23.6357 55.1836C23.7008 55.3789 23.7952 55.5498 23.9189 55.6963C24.0426 55.8428 24.1924 55.9583 24.3682 56.043C24.5439 56.1243 24.7441 56.165 24.9688 56.165C25.252 56.165 25.5042 56.1081 25.7256 55.9941C25.9469 55.8802 26.139 55.7191 26.3018 55.5107L26.9219 56.1113C26.8079 56.2773 26.6598 56.4368 26.4775 56.5898C26.2952 56.7396 26.0723 56.8617 25.8086 56.9561C25.5482 57.0505 25.2454 57.0977 24.9004 57.0977ZM29.1143 52.7227V57H27.9375V51.7168H29.0605L29.1143 52.7227ZM30.7305 51.6826L30.7207 52.7764C30.6491 52.7633 30.571 52.7536 30.4863 52.7471C30.4049 52.7406 30.3236 52.7373 30.2422 52.7373C30.0404 52.7373 29.863 52.7666 29.71 52.8252C29.557 52.8805 29.4284 52.9619 29.3242 53.0693C29.2233 53.1735 29.1452 53.3005 29.0898 53.4502C29.0345 53.5999 29.002 53.7676 28.9922 53.9531L28.7236 53.9727C28.7236 53.6406 28.7562 53.333 28.8213 53.0498C28.8864 52.7666 28.984 52.5176 29.1143 52.3027C29.2477 52.0879 29.4137 51.9202 29.6123 51.7998C29.8141 51.6794 30.0469 51.6191 30.3105 51.6191C30.3822 51.6191 30.4587 51.6257 30.54 51.6387C30.6247 51.6517 30.6882 51.6663 30.7305 51.6826ZM32.7275 51.7168V57H31.5459V51.7168H32.7275ZM31.4678 50.3301C31.4678 50.151 31.5264 50.0029 31.6436 49.8857C31.764 49.7653 31.93 49.7051 32.1416 49.7051C32.3499 49.7051 32.5143 49.7653 32.6348 49.8857C32.7552 50.0029 32.8154 50.151 32.8154 50.3301C32.8154 50.5059 32.7552 50.6523 32.6348 50.7695C32.5143 50.8867 32.3499 50.9453 32.1416 50.9453C31.93 50.9453 31.764 50.8867 31.6436 50.7695C31.5264 50.6523 31.4678 50.5059 31.4678 50.3301ZM36.3457 57.0977C35.9551 57.0977 35.6019 57.0342 35.2861 56.9072C34.9736 56.777 34.7067 56.5964 34.4854 56.3652C34.2673 56.1341 34.0996 55.8623 33.9824 55.5498C33.8652 55.2373 33.8066 54.9004 33.8066 54.5391V54.3438C33.8066 53.9303 33.8669 53.556 33.9873 53.2207C34.1077 52.8854 34.2754 52.599 34.4902 52.3613C34.7051 52.1204 34.959 51.9365 35.252 51.8096C35.5449 51.6826 35.8623 51.6191 36.2041 51.6191C36.5817 51.6191 36.9121 51.6826 37.1953 51.8096C37.4785 51.9365 37.7129 52.1156 37.8984 52.3467C38.0872 52.5745 38.2272 52.8464 38.3184 53.1621C38.4128 53.4779 38.46 53.8262 38.46 54.207V54.71H34.3779V53.8652H37.2979V53.7725C37.2913 53.5609 37.249 53.3623 37.1709 53.1768C37.096 52.9912 36.9805 52.8415 36.8242 52.7275C36.668 52.6136 36.4596 52.5566 36.1992 52.5566C36.0039 52.5566 35.8298 52.599 35.6768 52.6836C35.527 52.765 35.4017 52.8838 35.3008 53.04C35.1999 53.1963 35.1217 53.3851 35.0664 53.6064C35.0143 53.8245 34.9883 54.0703 34.9883 54.3438V54.5391C34.9883 54.7702 35.0192 54.985 35.0811 55.1836C35.1462 55.3789 35.2406 55.5498 35.3643 55.6963C35.488 55.8428 35.6377 55.9583 35.8135 56.043C35.9893 56.1243 36.1895 56.165 36.4141 56.165C36.6973 56.165 36.9495 56.1081 37.1709 55.9941C37.3923 55.8802 37.5843 55.7191 37.7471 55.5107L38.3672 56.1113C38.2533 56.2773 38.1051 56.4368 37.9229 56.5898C37.7406 56.7396 37.5176 56.8617 37.2539 56.9561C36.9935 57.0505 36.6908 57.0977 36.3457 57.0977ZM42.3418 55.5693C42.3418 55.4521 42.3125 55.3464 42.2539 55.252C42.1953 55.1543 42.083 55.0664 41.917 54.9883C41.7542 54.9102 41.5133 54.8385 41.1943 54.7734C40.9144 54.7116 40.6572 54.6383 40.4229 54.5537C40.1917 54.4658 39.9932 54.36 39.8271 54.2363C39.6611 54.1126 39.5326 53.9661 39.4414 53.7969C39.3503 53.6276 39.3047 53.4323 39.3047 53.2109C39.3047 52.9961 39.3519 52.7926 39.4463 52.6006C39.5407 52.4085 39.6758 52.2393 39.8516 52.0928C40.0273 51.9463 40.2406 51.8307 40.4912 51.7461C40.7451 51.6615 41.0283 51.6191 41.3408 51.6191C41.7835 51.6191 42.1628 51.694 42.4785 51.8438C42.7975 51.9902 43.0417 52.1904 43.2109 52.4443C43.3802 52.695 43.4648 52.9782 43.4648 53.2939H42.2881C42.2881 53.154 42.2523 53.0238 42.1807 52.9033C42.1123 52.7796 42.0081 52.6803 41.8682 52.6055C41.7282 52.5273 41.5524 52.4883 41.3408 52.4883C41.139 52.4883 40.9714 52.5208 40.8379 52.5859C40.7077 52.6478 40.61 52.7292 40.5449 52.8301C40.4831 52.931 40.4521 53.0417 40.4521 53.1621C40.4521 53.25 40.4684 53.3298 40.501 53.4014C40.5368 53.4697 40.5954 53.5332 40.6768 53.5918C40.7581 53.6471 40.8688 53.6992 41.0088 53.748C41.152 53.7969 41.3311 53.8441 41.5459 53.8896C41.9495 53.9743 42.2962 54.0833 42.5859 54.2168C42.8789 54.347 43.1035 54.5163 43.2598 54.7246C43.416 54.9297 43.4941 55.1901 43.4941 55.5059C43.4941 55.7402 43.4437 55.9551 43.3428 56.1504C43.2451 56.3424 43.1019 56.5101 42.9131 56.6533C42.7243 56.7933 42.498 56.9023 42.2344 56.9805C41.974 57.0586 41.681 57.0977 41.3555 57.0977C40.877 57.0977 40.4717 57.013 40.1396 56.8438C39.8076 56.6712 39.5553 56.4515 39.3828 56.1846C39.2135 55.9144 39.1289 55.6344 39.1289 55.3447H40.2666C40.2796 55.5628 40.3398 55.737 40.4473 55.8672C40.5579 55.9941 40.6947 56.0869 40.8574 56.1455C41.0234 56.2008 41.1943 56.2285 41.3701 56.2285C41.5817 56.2285 41.7591 56.2008 41.9023 56.1455C42.0456 56.0869 42.1546 56.0088 42.2295 55.9111C42.3044 55.8102 42.3418 55.6963 42.3418 55.5693Z" fill="#1B2559"/>
<defs>
<filter id="filter0_d_29_7929" x="10" y="12" width="24" height="24" filterUnits="userSpaceOnUse" color-interpolation-filters="sRGB">
<feFlood flood-opacity="0" result="BackgroundImageFix"/>
<feColorMatrix in="SourceAlpha" type="matrix" values="0 0 0 0 0 0 0 0 0 0 0 0 0 0 0 0 0 0 127 0" result="hardAlpha"/>
<feOffset dy="4"/>
<feGaussianBlur stdDeviation="2"/>
<feComposite in2="hardAlpha" operator="out"/>
<feColorMatrix type="matrix" values="0 0 0 0 0 0 0 0 0 0 0 0 0 0 0 0 0 0 0.02 0"/>
<feBlend mode="normal" in2="BackgroundImageFix" result="effect1_dropShadow_29_7929"/>
<feBlend mode="normal" in="SourceGraphic" in2="effect1_dropShadow_29_7929" result="shape"/>
</filter>
<clipPath id="clip0_29_7929">
<rect width="16" height="16" fill="white" transform="translate(14 12)"/>
</clipPath>
</defs>
</svg>
