<svg width="135" height="110" viewBox="0 0 157 122" fill="none" xmlns="http://www.w3.org/2000/svg">
<g filter="url(#filter0_d_29_8100)">
<g filter="url(#filter1_d_29_8100)">
<rect x="25" y="25" width="106" height="64" rx="16" fill="white"/>
<g clip-path="url(#clip0_29_8100)">
<path d="M76 64C84.8366 64 92 56.8366 92 48C92 39.1634 84.8366 32 76 32C67.1634 32 60 39.1634 60 48C60 56.8366 67.1634 64 76 64Z" fill="#DEEEFF"/>
<path d="M81.8182 43.9273C79.8903 43.9273 78.3273 43.5366 78.3273 43.0545V47.7091C78.3273 48.1891 79.8895 48.5818 81.8182 48.5818C83.7469 48.5818 85.3091 48.1891 85.3091 47.7091V43.0545C85.3091 43.5366 83.746 43.9273 81.8182 43.9273Z" fill="#2E3ECD"/>
<path d="M81.8182 43.9273C83.7462 43.9273 85.3091 43.5366 85.3091 43.0546C85.3091 42.5725 83.7462 42.1818 81.8182 42.1818C79.8902 42.1818 78.3273 42.5725 78.3273 43.0546C78.3273 43.5366 79.8902 43.9273 81.8182 43.9273Z" fill="#6BAFFF"/>
<path d="M78.3273 44.9318C79.1188 45.3757 80.8049 45.5092 81.8182 45.5092C82.8314 45.5092 84.5175 45.3757 85.3091 44.9318V44.3636C85.3091 44.5757 84.1213 45.0729 81.8182 45.0729C79.5151 45.0729 78.3273 44.5757 78.3273 44.3636V44.9318Z" fill="#6BAFFF"/>
<path d="M78.3273 46.6772C79.1188 47.1212 80.8049 47.2547 81.8182 47.2547C82.8314 47.2547 84.5175 47.1212 85.3091 46.6772V46.1091C85.3091 46.3212 84.1213 46.8183 81.8182 46.8183C79.5151 46.8183 78.3273 46.3212 78.3273 46.1091V46.6772Z" fill="#6BAFFF"/>
<path d="M74.8364 40.4364C72.9085 40.4364 71.3455 40.0457 71.3455 39.5636V47.4182C71.3455 47.8982 72.9076 48.2909 74.8364 48.2909C76.7651 48.2909 78.3273 47.8982 78.3273 47.4182V39.5636C78.3273 40.0457 76.7642 40.4364 74.8364 40.4364Z" fill="#2E3ECD"/>
<path d="M74.8364 40.4364C76.7643 40.4364 78.3273 40.0457 78.3273 39.5636C78.3273 39.0816 76.7643 38.6909 74.8364 38.6909C72.9084 38.6909 71.3455 39.0816 71.3455 39.5636C71.3455 40.0457 72.9084 40.4364 74.8364 40.4364Z" fill="#6BAFFF"/>
<path d="M71.3455 41.4409C72.137 41.8848 73.8231 42.0183 74.8364 42.0183C75.8496 42.0183 77.5357 41.8848 78.3273 41.4409V40.8727C78.3273 41.0848 77.1395 41.582 74.8364 41.582C72.5332 41.582 71.3455 41.0848 71.3455 40.8727V41.4409Z" fill="#6BAFFF"/>
<path d="M71.3455 43.1863C72.137 43.6303 73.8231 43.7638 74.8364 43.7638C75.8496 43.7638 77.5357 43.6303 78.3273 43.1863V42.6182C78.3273 42.8303 77.1395 43.3274 74.8364 43.3274C72.5332 43.3274 71.3455 42.8303 71.3455 42.6182V43.1863Z" fill="#6BAFFF"/>
<path d="M71.3455 44.9318C72.137 45.3757 73.8231 45.5092 74.8364 45.5092C75.8496 45.5092 77.5357 45.3757 78.3273 44.9318V44.3636C78.3273 44.5757 77.1395 45.0729 74.8364 45.0729C72.5332 45.0729 71.3455 44.5757 71.3455 44.3636V44.9318Z" fill="#6BAFFF"/>
<path d="M71.3455 46.4044C72.137 46.8483 73.8231 46.9818 74.8364 46.9818C75.8496 46.9818 77.5357 46.8483 78.3273 46.4044V45.8362C78.3273 46.0486 77.1395 46.5454 74.8364 46.5454C72.5332 46.5454 71.3455 46.0486 71.3455 45.8365V46.4044Z" fill="#6BAFFF"/>
<path d="M69.6 46.1722C72.4681 47.4182 74.1123 47.4182 75.7091 47.4182C77.3141 47.4182 78.8346 47.4182 81.8182 48.8361V53.9005C78.9501 52.6545 77.3059 52.6545 75.7091 52.6545C74.1042 52.6545 72.5836 52.6545 69.6 51.2366V46.1722ZM68.7273 44.8V51.7818C75.7091 55.2727 75.7091 51.7818 82.6909 55.2727V48.2909C75.7091 44.8 75.7091 48.2909 68.7273 44.8Z" fill="#6BAFFF"/>
<path d="M81.8182 53.9005V48.8361C78.8346 47.4182 77.314 47.4182 75.7091 47.4182C74.1123 47.4182 72.468 47.4182 69.6 46.1722V51.2366C72.5835 52.6545 74.1041 52.6545 75.7091 52.6545C77.3059 52.6545 78.9501 52.6545 81.8182 53.9005Z" fill="#6BAFFF"/>
<path d="M67.5636 48.2086C70.4317 49.4545 72.0759 49.4545 73.6727 49.4545C75.2777 49.4545 76.7983 49.4545 79.7818 50.8724V55.9369C76.9138 54.6909 75.2695 54.6909 73.6727 54.6909C72.0678 54.6909 70.5472 54.6909 67.5636 53.273V48.2086ZM66.6909 46.8364V53.8182C73.6727 57.3091 73.6727 53.8182 80.6546 57.3091V50.3273C73.6727 46.8364 73.6727 50.3273 66.6909 46.8364Z" fill="#2E3ECD"/>
<path d="M79.7818 55.9369V50.8724C76.7983 49.4546 75.2777 49.4546 73.6727 49.4546C72.076 49.4546 70.4317 49.4546 67.5637 48.2086V53.273C70.5472 54.6909 72.0678 54.6909 73.6727 54.6909C75.2695 54.6909 76.9138 54.6909 79.7818 55.9369Z" fill="#2E3ECD"/>
<path d="M73.6727 53.8182C74.6367 53.8182 75.4182 53.0367 75.4182 52.0727C75.4182 51.1087 74.6367 50.3273 73.6727 50.3273C72.7087 50.3273 71.9272 51.1087 71.9272 52.0727C71.9272 53.0367 72.7087 53.8182 73.6727 53.8182Z" fill="#6BAFFF"/>
</g>
<path d="M44.5156 69.4688V78H42.9102V69.4688H44.5156ZM47.1641 69.4688V70.7402H40.291V69.4688H47.1641ZM46.9297 74.8945V74.7715C46.9297 74.3066 46.9961 73.8789 47.1289 73.4883C47.2617 73.0938 47.4551 72.752 47.709 72.4629C47.9629 72.1738 48.2734 71.9492 48.6406 71.7891C49.0078 71.625 49.4258 71.543 49.8945 71.543C50.3711 71.543 50.793 71.625 51.1602 71.7891C51.5312 71.9492 51.8438 72.1738 52.0977 72.4629C52.3516 72.752 52.5449 73.0938 52.6777 73.4883C52.8105 73.8789 52.877 74.3066 52.877 74.7715V74.8945C52.877 75.3555 52.8105 75.7832 52.6777 76.1777C52.5449 76.5684 52.3516 76.9102 52.0977 77.2031C51.8438 77.4922 51.5332 77.7168 51.166 77.877C50.7988 78.0371 50.3789 78.1172 49.9062 78.1172C49.4375 78.1172 49.0176 78.0371 48.6465 77.877C48.2754 77.7168 47.9629 77.4922 47.709 77.2031C47.4551 76.9102 47.2617 76.5684 47.1289 76.1777C46.9961 75.7832 46.9297 75.3555 46.9297 74.8945ZM48.4766 74.7715V74.8945C48.4766 75.1719 48.5039 75.4316 48.5586 75.6738C48.6133 75.916 48.6973 76.1289 48.8105 76.3125C48.9238 76.4961 49.0703 76.6406 49.25 76.7461C49.4336 76.8477 49.6523 76.8984 49.9062 76.8984C50.1562 76.8984 50.3711 76.8477 50.5508 76.7461C50.7305 76.6406 50.877 76.4961 50.9902 76.3125C51.1074 76.1289 51.1934 75.916 51.248 75.6738C51.3027 75.4316 51.3301 75.1719 51.3301 74.8945V74.7715C51.3301 74.498 51.3027 74.2422 51.248 74.0039C51.1934 73.7617 51.1074 73.5488 50.9902 73.3652C50.877 73.1777 50.7285 73.0312 50.5449 72.9258C50.3652 72.8164 50.1484 72.7617 49.8945 72.7617C49.6445 72.7617 49.4297 72.8164 49.25 72.9258C49.0703 73.0312 48.9238 73.1777 48.8105 73.3652C48.6973 73.5488 48.6133 73.7617 48.5586 74.0039C48.5039 74.2422 48.4766 74.498 48.4766 74.7715ZM57.002 71.6602V72.7734H53.3691V71.6602H57.002ZM54.3418 70.1016H55.8945V76.1719C55.8945 76.3594 55.9199 76.5039 55.9707 76.6055C56.0215 76.707 56.0977 76.7754 56.1992 76.8105C56.3008 76.8457 56.4219 76.8633 56.5625 76.8633C56.6641 76.8633 56.7578 76.8574 56.8438 76.8457C56.9297 76.834 57.002 76.8223 57.0605 76.8105L57.0664 77.9707C56.9375 78.0137 56.791 78.0488 56.627 78.0762C56.4668 78.1035 56.2852 78.1172 56.082 78.1172C55.7344 78.1172 55.4297 78.0586 55.168 77.9414C54.9062 77.8203 54.7031 77.627 54.5586 77.3613C54.4141 77.0918 54.3418 76.7363 54.3418 76.2949V70.1016ZM61.5254 76.6523V73.7285C61.5254 73.5137 61.4883 73.3281 61.4141 73.1719C61.3398 73.0156 61.2266 72.8945 61.0742 72.8086C60.9219 72.7227 60.7285 72.6797 60.4941 72.6797C60.2871 72.6797 60.1055 72.7148 59.9492 72.7852C59.7969 72.8555 59.6797 72.9551 59.5977 73.084C59.5156 73.209 59.4746 73.3535 59.4746 73.5176H57.9219C57.9219 73.2559 57.9844 73.0078 58.1094 72.7734C58.2344 72.5352 58.4121 72.3242 58.6426 72.1406C58.877 71.9531 59.1562 71.8066 59.4805 71.7012C59.8086 71.5957 60.1758 71.543 60.582 71.543C61.0625 71.543 61.4902 71.625 61.8652 71.7891C62.2441 71.9492 62.541 72.1914 62.7559 72.5156C62.9746 72.8398 63.084 73.248 63.084 73.7402V76.5059C63.084 76.8223 63.1035 77.0938 63.1426 77.3203C63.1855 77.543 63.248 77.7363 63.3301 77.9004V78H61.7539C61.6797 77.8398 61.623 77.6367 61.584 77.3906C61.5449 77.1406 61.5254 76.8945 61.5254 76.6523ZM61.7422 74.1387L61.7539 75.0586H60.7754C60.5332 75.0586 60.3203 75.084 60.1367 75.1348C59.9531 75.1816 59.8027 75.252 59.6855 75.3457C59.5684 75.4355 59.4805 75.5449 59.4219 75.6738C59.3633 75.7988 59.334 75.9414 59.334 76.1016C59.334 76.2578 59.3691 76.3984 59.4395 76.5234C59.5137 76.6484 59.6191 76.748 59.7559 76.8223C59.8965 76.8926 60.0605 76.9277 60.248 76.9277C60.5215 76.9277 60.7598 76.873 60.9629 76.7637C61.166 76.6504 61.3242 76.5137 61.4375 76.3535C61.5508 76.1934 61.6113 76.041 61.6191 75.8965L62.0645 76.5645C62.0098 76.7246 61.9277 76.8945 61.8184 77.0742C61.709 77.2539 61.5684 77.4219 61.3965 77.5781C61.2246 77.7344 61.0176 77.8633 60.7754 77.9648C60.5332 78.0664 60.252 78.1172 59.9316 78.1172C59.5215 78.1172 59.1543 78.0352 58.8301 77.8711C58.5059 77.707 58.25 77.4824 58.0625 77.1973C57.875 76.9121 57.7812 76.5879 57.7812 76.2246C57.7812 75.8887 57.8438 75.5918 57.9688 75.334C58.0938 75.0762 58.2793 74.8594 58.5254 74.6836C58.7715 74.5039 59.0762 74.3691 59.4395 74.2793C59.8066 74.1855 60.2266 74.1387 60.6992 74.1387H61.7422ZM66.1191 69V78H64.5664V69H66.1191ZM76.3555 76.7344V78H71.8203V76.7344H76.3555ZM72.3125 69.4688V78H70.7012V69.4688H72.3125ZM75.7637 72.9902V74.2266H71.8203V72.9902H75.7637ZM76.3379 69.4688V70.7402H71.8203V69.4688H76.3379ZM80.8496 76.6523V73.7285C80.8496 73.5137 80.8125 73.3281 80.7383 73.1719C80.6641 73.0156 80.5508 72.8945 80.3984 72.8086C80.2461 72.7227 80.0527 72.6797 79.8184 72.6797C79.6113 72.6797 79.4297 72.7148 79.2734 72.7852C79.1211 72.8555 79.0039 72.9551 78.9219 73.084C78.8398 73.209 78.7988 73.3535 78.7988 73.5176H77.2461C77.2461 73.2559 77.3086 73.0078 77.4336 72.7734C77.5586 72.5352 77.7363 72.3242 77.9668 72.1406C78.2012 71.9531 78.4805 71.8066 78.8047 71.7012C79.1328 71.5957 79.5 71.543 79.9062 71.543C80.3867 71.543 80.8145 71.625 81.1895 71.7891C81.5684 71.9492 81.8652 72.1914 82.0801 72.5156C82.2988 72.8398 82.4082 73.248 82.4082 73.7402V76.5059C82.4082 76.8223 82.4277 77.0938 82.4668 77.3203C82.5098 77.543 82.5723 77.7363 82.6543 77.9004V78H81.0781C81.0039 77.8398 80.9473 77.6367 80.9082 77.3906C80.8691 77.1406 80.8496 76.8945 80.8496 76.6523ZM81.0664 74.1387L81.0781 75.0586H80.0996C79.8574 75.0586 79.6445 75.084 79.4609 75.1348C79.2773 75.1816 79.127 75.252 79.0098 75.3457C78.8926 75.4355 78.8047 75.5449 78.7461 75.6738C78.6875 75.7988 78.6582 75.9414 78.6582 76.1016C78.6582 76.2578 78.6934 76.3984 78.7637 76.5234C78.8379 76.6484 78.9434 76.748 79.0801 76.8223C79.2207 76.8926 79.3848 76.9277 79.5723 76.9277C79.8457 76.9277 80.084 76.873 80.2871 76.7637C80.4902 76.6504 80.6484 76.5137 80.7617 76.3535C80.875 76.1934 80.9355 76.041 80.9434 75.8965L81.3887 76.5645C81.334 76.7246 81.252 76.8945 81.1426 77.0742C81.0332 77.2539 80.8926 77.4219 80.7207 77.5781C80.5488 77.7344 80.3418 77.8633 80.0996 77.9648C79.8574 78.0664 79.5762 78.1172 79.2559 78.1172C78.8457 78.1172 78.4785 78.0352 78.1543 77.8711C77.8301 77.707 77.5742 77.4824 77.3867 77.1973C77.1992 76.9121 77.1055 76.5879 77.1055 76.2246C77.1055 75.8887 77.168 75.5918 77.293 75.334C77.418 75.0762 77.6035 74.8594 77.8496 74.6836C78.0957 74.5039 78.4004 74.3691 78.7637 74.2793C79.1309 74.1855 79.5508 74.1387 80.0234 74.1387H81.0664ZM85.3496 72.9551V78H83.8027V71.6602H85.2676L85.3496 72.9551ZM87.2773 71.6191L87.2539 73.0605C87.168 73.0449 87.0703 73.0332 86.9609 73.0254C86.8555 73.0176 86.7559 73.0137 86.6621 73.0137C86.4238 73.0137 86.2148 73.0469 86.0352 73.1133C85.8555 73.1758 85.7051 73.2676 85.584 73.3887C85.4668 73.5098 85.377 73.6582 85.3145 73.834C85.252 74.0059 85.2168 74.2012 85.209 74.4199L84.875 74.3789C84.875 73.9766 84.916 73.6035 84.998 73.2598C85.0801 72.916 85.1992 72.6152 85.3555 72.3574C85.5117 72.0996 85.707 71.9004 85.9414 71.7598C86.1797 71.6152 86.4531 71.543 86.7617 71.543C86.8477 71.543 86.9395 71.5508 87.0371 71.5664C87.1387 71.5781 87.2188 71.5957 87.2773 71.6191ZM89.6445 73.0137V78H88.0977V71.6602H89.5508L89.6445 73.0137ZM89.3984 74.6016H88.9414C88.9453 74.1406 89.0078 73.7227 89.1289 73.3477C89.25 72.9727 89.4199 72.6504 89.6387 72.3809C89.8613 72.1113 90.125 71.9043 90.4297 71.7598C90.7344 71.6152 91.0742 71.543 91.4492 71.543C91.7539 71.543 92.0293 71.5859 92.2754 71.6719C92.5215 71.7578 92.7324 71.8945 92.9082 72.082C93.0879 72.2695 93.2246 72.5156 93.3184 72.8203C93.416 73.1211 93.4648 73.4922 93.4648 73.9336V78H91.9062V73.9219C91.9062 73.6328 91.8633 73.4043 91.7773 73.2363C91.6953 73.0684 91.5742 72.9492 91.4141 72.8789C91.2578 72.8086 91.0645 72.7734 90.834 72.7734C90.5957 72.7734 90.3867 72.8223 90.207 72.9199C90.0312 73.0137 89.8828 73.1445 89.7617 73.3125C89.6445 73.4805 89.5547 73.6738 89.4922 73.8926C89.4297 74.1113 89.3984 74.3477 89.3984 74.6016ZM96.4707 71.6602V78H94.918V71.6602H96.4707ZM94.8125 70.002C94.8125 69.7715 94.8906 69.5801 95.0469 69.4277C95.207 69.2754 95.4219 69.1992 95.6914 69.1992C95.9609 69.1992 96.1738 69.2754 96.3301 69.4277C96.4902 69.5801 96.5703 69.7715 96.5703 70.002C96.5703 70.2285 96.4902 70.418 96.3301 70.5703C96.1738 70.7227 95.9609 70.7988 95.6914 70.7988C95.4219 70.7988 95.207 70.7227 95.0469 70.5703C94.8906 70.418 94.8125 70.2285 94.8125 70.002ZM99.4648 73.0137V78H97.918V71.6602H99.3711L99.4648 73.0137ZM99.2188 74.6016H98.7617C98.7656 74.1406 98.8281 73.7227 98.9492 73.3477C99.0703 72.9727 99.2402 72.6504 99.459 72.3809C99.6816 72.1113 99.9453 71.9043 100.25 71.7598C100.555 71.6152 100.895 71.543 101.27 71.543C101.574 71.543 101.85 71.5859 102.096 71.6719C102.342 71.7578 102.553 71.8945 102.729 72.082C102.908 72.2695 103.045 72.5156 103.139 72.8203C103.236 73.1211 103.285 73.4922 103.285 73.9336V78H101.727V73.9219C101.727 73.6328 101.684 73.4043 101.598 73.2363C101.516 73.0684 101.395 72.9492 101.234 72.8789C101.078 72.8086 100.885 72.7734 100.654 72.7734C100.416 72.7734 100.207 72.8223 100.027 72.9199C99.8516 73.0137 99.7031 73.1445 99.582 73.3125C99.4648 73.4805 99.375 73.6738 99.3125 73.8926C99.25 74.1113 99.2188 74.3477 99.2188 74.6016ZM108.682 71.6602H110.088V77.8066C110.088 78.3809 109.963 78.8672 109.713 79.2656C109.467 79.668 109.121 79.9727 108.676 80.1797C108.23 80.3906 107.713 80.4961 107.123 80.4961C106.869 80.4961 106.594 80.4609 106.297 80.3906C106.004 80.3203 105.721 80.209 105.447 80.0566C105.178 79.9082 104.953 79.7148 104.773 79.4766L105.471 78.5625C105.682 78.8086 105.92 78.9941 106.186 79.1191C106.451 79.248 106.738 79.3125 107.047 79.3125C107.359 79.3125 107.625 79.2539 107.844 79.1367C108.066 79.0234 108.236 78.8555 108.354 78.6328C108.475 78.4141 108.535 78.1445 108.535 77.8242V73.1074L108.682 71.6602ZM104.398 74.9062V74.7832C104.398 74.2988 104.457 73.8594 104.574 73.4648C104.691 73.0664 104.859 72.7246 105.078 72.4395C105.301 72.1543 105.568 71.9336 105.881 71.7773C106.197 71.6211 106.553 71.543 106.947 71.543C107.365 71.543 107.717 71.6191 108.002 71.7715C108.291 71.9238 108.529 72.1406 108.717 72.4219C108.908 72.7031 109.057 73.0371 109.162 73.4238C109.271 73.8066 109.355 74.2285 109.414 74.6895V75.0234C109.359 75.4727 109.271 75.8848 109.15 76.2598C109.033 76.6348 108.877 76.9629 108.682 77.2441C108.486 77.5215 108.244 77.7363 107.955 77.8887C107.666 78.041 107.326 78.1172 106.936 78.1172C106.545 78.1172 106.193 78.0371 105.881 77.877C105.568 77.7168 105.301 77.4922 105.078 77.2031C104.859 76.9141 104.691 76.5742 104.574 76.1836C104.457 75.793 104.398 75.3672 104.398 74.9062ZM105.945 74.7832V74.9062C105.945 75.1797 105.973 75.4355 106.027 75.6738C106.082 75.9121 106.166 76.123 106.279 76.3066C106.393 76.4863 106.535 76.627 106.707 76.7285C106.879 76.8301 107.084 76.8809 107.322 76.8809C107.643 76.8809 107.904 76.8145 108.107 76.6816C108.314 76.5449 108.471 76.3594 108.576 76.125C108.686 75.8867 108.756 75.6191 108.787 75.3223V74.4023C108.768 74.168 108.725 73.9512 108.658 73.752C108.596 73.5527 108.508 73.3809 108.395 73.2363C108.281 73.0918 108.137 72.9785 107.961 72.8965C107.785 72.8145 107.576 72.7734 107.334 72.7734C107.1 72.7734 106.895 72.8262 106.719 72.9316C106.543 73.0332 106.398 73.1758 106.285 73.3594C106.172 73.543 106.086 73.7559 106.027 73.998C105.973 74.2402 105.945 74.502 105.945 74.7832ZM114.969 76.2656C114.969 76.1328 114.934 76.0137 114.863 75.9082C114.793 75.8027 114.66 75.707 114.465 75.6211C114.273 75.5312 113.992 75.4473 113.621 75.3691C113.293 75.2988 112.99 75.2109 112.713 75.1055C112.436 75 112.197 74.873 111.998 74.7246C111.799 74.5723 111.643 74.3945 111.529 74.1914C111.42 73.9844 111.365 73.7461 111.365 73.4766C111.365 73.2148 111.422 72.9688 111.535 72.7383C111.648 72.5039 111.812 72.2988 112.027 72.123C112.242 71.9434 112.504 71.8027 112.812 71.7012C113.121 71.5957 113.469 71.543 113.855 71.543C114.395 71.543 114.857 71.6309 115.244 71.8066C115.635 71.9824 115.934 72.2246 116.141 72.5332C116.348 72.8379 116.451 73.1816 116.451 73.5645H114.904C114.904 73.3965 114.865 73.2441 114.787 73.1074C114.713 72.9707 114.598 72.8613 114.441 72.7793C114.285 72.6934 114.088 72.6504 113.85 72.6504C113.635 72.6504 113.453 72.6855 113.305 72.7559C113.16 72.8262 113.051 72.918 112.977 73.0312C112.902 73.1445 112.865 73.2695 112.865 73.4062C112.865 73.5078 112.885 73.5996 112.924 73.6816C112.967 73.7598 113.035 73.832 113.129 73.8984C113.223 73.9648 113.35 74.0254 113.51 74.0801C113.674 74.1348 113.875 74.1875 114.113 74.2383C114.586 74.332 114.998 74.457 115.35 74.6133C115.705 74.7656 115.982 74.9688 116.182 75.2227C116.381 75.4766 116.48 75.8008 116.48 76.1953C116.48 76.4766 116.42 76.7344 116.299 76.9688C116.178 77.1992 116.002 77.4004 115.771 77.5723C115.541 77.7441 115.266 77.8789 114.945 77.9766C114.625 78.0703 114.264 78.1172 113.861 78.1172C113.279 78.1172 112.787 78.0137 112.385 77.8066C111.982 77.5957 111.678 77.3301 111.471 77.0098C111.264 76.6855 111.16 76.3496 111.16 76.002H112.643C112.654 76.248 112.721 76.4453 112.842 76.5938C112.963 76.7422 113.115 76.8496 113.299 76.916C113.486 76.9785 113.684 77.0098 113.891 77.0098C114.125 77.0098 114.322 76.9785 114.482 76.916C114.643 76.8496 114.764 76.7617 114.846 76.6523C114.928 76.5391 114.969 76.4102 114.969 76.2656Z" fill="#1B2559"/>
</g>
</g>
<defs>
<filter id="filter0_d_29_8100" x="0" y="0" width="164" height="122" filterUnits="userSpaceOnUse" color-interpolation-filters="sRGB">
<feFlood flood-opacity="0" result="BackgroundImageFix"/>
<feColorMatrix in="SourceAlpha" type="matrix" values="0 0 0 0 0 0 0 0 0 0 0 0 0 0 0 0 0 0 127 0" result="hardAlpha"/>
<feMorphology radius="4" operator="dilate" in="SourceAlpha" result="effect1_dropShadow_29_8100"/>
<feOffset dx="4" dy="4"/>
<feGaussianBlur stdDeviation="12.5"/>
<feColorMatrix type="matrix" values="0 0 0 0 0.439216 0 0 0 0 0.564706 0 0 0 0 0.690196 0 0 0 0.08 0"/>
<feBlend mode="normal" in2="BackgroundImageFix" result="effect1_dropShadow_29_8100"/>
<feBlend mode="normal" in="SourceGraphic" in2="effect1_dropShadow_29_8100" result="shape"/>
</filter>
<filter id="filter1_d_29_8100" x="0" y="0" width="164" height="122" filterUnits="userSpaceOnUse" color-interpolation-filters="sRGB">
<feFlood flood-opacity="0" result="BackgroundImageFix"/>
<feColorMatrix in="SourceAlpha" type="matrix" values="0 0 0 0 0 0 0 0 0 0 0 0 0 0 0 0 0 0 127 0" result="hardAlpha"/>
<feMorphology radius="4" operator="dilate" in="SourceAlpha" result="effect1_dropShadow_29_8100"/>
<feOffset dx="4" dy="4"/>
<feGaussianBlur stdDeviation="12.5"/>
<feColorMatrix type="matrix" values="0 0 0 0 0.439216 0 0 0 0 0.564706 0 0 0 0 0.690196 0 0 0 0.08 0"/>
<feBlend mode="normal" in2="BackgroundImageFix" result="effect1_dropShadow_29_8100"/>
<feBlend mode="normal" in="SourceGraphic" in2="effect1_dropShadow_29_8100" result="shape"/>
</filter>
<clipPath id="clip0_29_8100">
<rect width="32" height="32" fill="white" transform="translate(60 32)"/>
</clipPath>
</defs>
</svg>
