<svg width="40" height="40" viewBox="0 0 40 40" fill="none" xmlns="http://www.w3.org/2000/svg">
<rect width="40" height="40" rx="12" fill="#7A5AF8" fill-opacity="0.1"/>
<path d="M13.3 22.1103L13.1536 22.2567L12.3052 23.1051C12.3052 23.1051 12.3052 23.1051 12.3052 23.1051C12.2073 23.203 12.1407 23.3277 12.1137 23.4635C12.0867 23.5992 12.1006 23.74 12.1536 23.8679L11.6916 24.0592L12.1536 23.8679C12.2065 23.9957 12.2962 24.1051 12.4113 24.182L12.1335 24.5977L12.4113 24.182C12.5264 24.2589 12.6616 24.2999 12.8 24.3L13.3 22.1103ZM13.3 22.1103V21.9032M13.3 22.1103V21.9032M13.3 21.9032V17.6C13.3 15.823 14.0059 14.1189 15.2624 12.8624C16.5189 11.6059 18.2231 10.9 20 10.9C21.777 10.9 23.4811 11.6059 24.7376 12.8624C25.9941 14.1189 26.7 15.823 26.7 17.6V21.9032V22.1103L26.8465 22.2567L27.6948 23.1051C27.6948 23.1051 27.6949 23.1051 27.6949 23.1051C27.7927 23.203 27.8593 23.3277 27.8863 23.4635C27.9133 23.5992 27.8995 23.74 27.8465 23.8679L28.3084 24.0592L27.8465 23.8679C27.7935 23.9957 27.7038 24.1051 27.5887 24.182L27.8666 24.5977M13.3 21.9032L27.8666 24.5977M27.8666 24.5977L27.5887 24.182C27.4737 24.2589 27.3384 24.2999 27.2 24.3M27.8666 24.5977L27.2 24.3M27.1999 24.3H12.8001H27.1999ZM27.1999 24.3C27.2 24.3 27.2 24.3 27.2 24.3M27.1999 24.3H27.2M20 29.1C19.1779 29.1 18.3894 28.7734 17.808 28.192C17.3458 27.7299 17.0447 27.1368 16.9406 26.5H23.0595C22.9554 27.1368 22.6542 27.7299 22.1921 28.192C21.6107 28.7734 20.8222 29.1 20 29.1Z" stroke="black"/>
<path d="M21 13C21 10.7909 22.7909 9 25 9C27.2091 9 29 10.7909 29 13C29 15.2091 27.2091 17 25 17C22.7909 17 21 15.2091 21 13Z" fill="#E02424" stroke="white"/>
</svg>
