<svg width="40" height="40" viewBox="0 0 40 40" fill="none" xmlns="http://www.w3.org/2000/svg">
<rect width="40" height="40" rx="12" fill="#7A5AF8" fill-opacity="0.1"/>
<path d="M12.5 18.75C12.6989 18.75 12.8897 18.671 13.0303 18.5303C13.171 18.3897 13.25 18.1989 13.25 18V14.25H17C17.1989 14.25 17.3897 14.171 17.5303 14.0303C17.671 13.8897 17.75 13.6989 17.75 13.5C17.75 13.3011 17.671 13.1103 17.5303 12.9697C17.3897 12.829 17.1989 12.75 17 12.75H12.5C12.3011 12.75 12.1103 12.829 11.9697 12.9697C11.829 13.1103 11.75 13.3011 11.75 13.5V18C11.75 18.1989 11.829 18.3897 11.9697 18.5303C12.1103 18.671 12.3011 18.75 12.5 18.75Z" fill="black"/>
<path d="M23 14.25H26.75V18C26.75 18.1989 26.829 18.3897 26.9697 18.5303C27.1103 18.671 27.3011 18.75 27.5 18.75C27.6989 18.75 27.8897 18.671 28.0303 18.5303C28.171 18.3897 28.25 18.1989 28.25 18V13.5C28.25 13.3011 28.171 13.1103 28.0303 12.9697C27.8897 12.829 27.6989 12.75 27.5 12.75H23C22.8011 12.75 22.6103 12.829 22.4697 12.9697C22.329 13.1103 22.25 13.3011 22.25 13.5C22.25 13.6989 22.329 13.8897 22.4697 14.0303C22.6103 14.171 22.8011 14.25 23 14.25Z" fill="black"/>
<path d="M17 27.75H13.25V24C13.25 23.8011 13.171 23.6103 13.0303 23.4697C12.8897 23.329 12.6989 23.25 12.5 23.25C12.3011 23.25 12.1103 23.329 11.9697 23.4697C11.829 23.6103 11.75 23.8011 11.75 24V28.5C11.75 28.6989 11.829 28.8897 11.9697 29.0303C12.1103 29.171 12.3011 29.25 12.5 29.25H17C17.1989 29.25 17.3897 29.171 17.5303 29.0303C17.671 28.8897 17.75 28.6989 17.75 28.5C17.75 28.3011 17.671 28.1103 17.5303 27.9697C17.3897 27.829 17.1989 27.75 17 27.75Z" fill="black"/>
<path d="M27.5 23.25C27.3011 23.25 27.1103 23.329 26.9697 23.4697C26.829 23.6103 26.75 23.8011 26.75 24V27.75H23C22.8011 27.75 22.6103 27.829 22.4697 27.9697C22.329 28.1103 22.25 28.3011 22.25 28.5C22.25 28.6989 22.329 28.8897 22.4697 29.0303C22.6103 29.171 22.8011 29.25 23 29.25H27.5C27.6989 29.25 27.8897 29.171 28.0303 29.0303C28.171 28.8897 28.25 28.6989 28.25 28.5V24C28.25 23.8011 28.171 23.6103 28.0303 23.4697C27.8897 23.329 27.6989 23.25 27.5 23.25Z" fill="black"/>
<path d="M30.5 20.25H9.5C9.30109 20.25 9.11032 20.329 8.96967 20.4697C8.82902 20.6103 8.75 20.8011 8.75 21C8.75 21.1989 8.82902 21.3897 8.96967 21.5303C9.11032 21.671 9.30109 21.75 9.5 21.75H30.5C30.6989 21.75 30.8897 21.671 31.0303 21.5303C31.171 21.3897 31.25 21.1989 31.25 21C31.25 20.8011 31.171 20.6103 31.0303 20.4697C30.8897 20.329 30.6989 20.25 30.5 20.25Z" fill="black"/>
</svg>
