<svg width="24" height="24" viewBox="0 0 24 24" fill="none" xmlns="http://www.w3.org/2000/svg">
<path d="M16.893 20.6373H7.86635C5.7305 20.6373 4 18.8989 4 16.7631V10.987C4 9.92687 4.65478 8.5939 5.49665 7.93912L10.4153 4.49671C11.4053 3.87788 13.1904 3.58025 14.5 4.50006L19.0835 7.93474C19.9565 8.55832 20.7594 9.96585 20.7594 11.0961V16.7709C20.7594 18.8989 19.0289 20.6373 16.893 20.6373ZM10.4153 5.66375L6.2138 8.85894C5.66035 9.29546 5.16926 10.2854 5.16926 10.987V16.7631C5.16926 18.252 6.37749 19.468 7.86635 19.468H16.893C18.3819 19.468 19.5901 18.2598 19.5901 16.7709V11.0961C19.5901 9.95324 18.8106 9.33437 18.4364 8.89012L14.5233 5.66375C13.52 5.04714 11.4053 5.12587 10.4153 5.66375Z" fill="#7A5AF8"/>
</svg>
