<svg width="54" height="62" viewBox="0 0 54 62" fill="none" xmlns="http://www.w3.org/2000/svg">
<path d="M47 20C47 31.0457 38.0457 40 27 40C15.9543 40 7 31.0457 7 20C7 8.9543 15.9543 0 27 0C38.0457 0 47 8.9543 47 20Z" fill="#7A5AF8" fill-opacity="0.1"/>
<g clip-path="url(#clip0_29_7947)" filter="url(#filter0_d_29_7947)">
<path d="M26.3275 20.4776C26.3275 20.6201 26.2125 20.7363 26.0697 20.7363C26.0156 20.7363 25.9659 20.7195 25.9253 20.692L24.4637 19.8479C24.3812 19.801 24.3353 19.7141 24.3353 19.6257H24.3343V17.2632L22.1084 15.977V20.4716C22.4184 20.4707 22.7328 20.5107 23.0465 20.5938C24.9706 21.1095 26.124 23.1079 25.6084 25.032C25.5997 25.0648 25.5906 25.0966 25.5809 25.1285L28.2959 26.6963V19.5501L26.3275 18.4135V20.4776ZM24.8356 16.6807C24.84 16.6782 24.8453 16.6754 24.8497 16.6726L30.785 13.2463L28.69 12.0373C28.604 11.9876 28.505 11.9876 28.4181 12.0373L22.3653 15.532L24.5956 16.8198L24.8356 16.6807ZM28.8122 19.5491V26.696L34.864 23.2023C34.95 23.1516 34.9997 23.0657 34.9997 22.9657V15.9766L28.8122 19.5491ZM32.769 14.3926L32.6397 14.467L26.5809 17.9651L28.5547 19.1041L34.7431 15.5316L32.769 14.3926ZM25.1093 24.8976C24.6656 26.5557 22.9612 27.5391 21.3037 27.0954C19.6462 26.6507 18.6622 24.9473 19.1068 23.2898C19.5506 21.6316 21.254 20.6482 22.9125 21.092C24.57 21.537 25.554 23.2404 25.1093 24.8976ZM23.9243 24.4398C23.9243 24.0907 23.7818 23.7745 23.5522 23.5451C23.3228 23.3157 23.0065 23.1729 22.6584 23.1729H21.1728L21.4234 22.9223C21.5243 22.8213 21.5243 22.6582 21.4234 22.5573C21.3234 22.4563 21.1593 22.4563 21.0584 22.5573L20.3675 23.2491C20.2665 23.3491 20.2665 23.5132 20.3675 23.6141L21.0584 24.3051C21.1593 24.406 21.3234 24.406 21.4234 24.3051C21.5243 24.2041 21.5243 24.041 21.4234 23.9401L21.1728 23.6895H22.6584C22.864 23.6895 23.0518 23.7735 23.1872 23.9101C23.3237 24.0457 23.4078 24.2335 23.4078 24.4398C23.4078 24.6454 23.3237 24.8332 23.1872 24.9685C23.0515 25.1051 22.8637 25.1891 22.6584 25.1891H22.0978C21.9553 25.1891 21.84 25.3051 21.84 25.4479C21.84 25.5907 21.9553 25.7057 22.0978 25.7057H22.6584C23.0065 25.7057 23.3228 25.5632 23.5522 25.3335C23.7815 25.1041 23.9243 24.7879 23.9243 24.4398Z" fill="#7A5AF8"/>
</g>
<path d="M23.0971 59H21.7871L18.1771 53.23H18.1371C18.1438 53.3633 18.1504 53.5067 18.1571 53.66C18.1704 53.8133 18.1804 53.9767 18.1871 54.15C18.1938 54.3167 18.2004 54.49 18.2071 54.67C18.2138 54.8433 18.2171 55.02 18.2171 55.2V59H17.2371V51.86H18.5371L22.1371 57.6H22.1671C22.1604 57.5 22.1538 57.3767 22.1471 57.23C22.1404 57.0767 22.1338 56.9133 22.1271 56.74C22.1271 56.5667 22.1238 56.39 22.1171 56.21C22.1104 56.03 22.1038 55.86 22.0971 55.7V51.86H23.0971V59ZM30.7808 55.36C30.7808 56.16 30.6308 56.83 30.3308 57.37C30.0308 57.91 29.5974 58.3167 29.0308 58.59C28.4708 58.8633 27.7941 59 27.0008 59H25.0008V51.86H27.2108C27.9374 51.86 28.5674 51.9933 29.1008 52.26C29.6341 52.5267 30.0474 52.92 30.3408 53.44C30.6341 53.9533 30.7808 54.5933 30.7808 55.36ZM29.6508 55.39C29.6508 54.79 29.5541 54.2967 29.3608 53.91C29.1674 53.5233 28.8808 53.2367 28.5008 53.05C28.1274 52.8633 27.6741 52.77 27.1408 52.77H26.0808V58.09H26.9508C27.8508 58.09 28.5241 57.8633 28.9708 57.41C29.4241 56.9567 29.6508 56.2833 29.6508 55.39ZM34.3348 51.86C34.9481 51.86 35.4514 51.9367 35.8448 52.09C36.2381 52.2433 36.5314 52.4733 36.7248 52.78C36.9181 53.08 37.0148 53.46 37.0148 53.92C37.0148 54.2867 36.9448 54.5967 36.8048 54.85C36.6714 55.0967 36.4981 55.3 36.2848 55.46C36.0714 55.6133 35.8481 55.7367 35.6148 55.83L37.6148 59H36.3748L34.6548 56.11H33.4148V59H32.3348V51.86H34.3348ZM34.2648 52.78H33.4148V55.21H34.3148C34.6814 55.21 34.9814 55.1633 35.2148 55.07C35.4548 54.9767 35.6281 54.8367 35.7348 54.65C35.8481 54.4633 35.9048 54.2333 35.9048 53.96C35.9048 53.6733 35.8448 53.4467 35.7248 53.28C35.6114 53.1067 35.4314 52.98 35.1848 52.9C34.9448 52.82 34.6381 52.78 34.2648 52.78Z" fill="#1B2559"/>
<defs>
<filter id="filter0_d_29_7947" x="15" y="12" width="24" height="24" filterUnits="userSpaceOnUse" color-interpolation-filters="sRGB">
<feFlood flood-opacity="0" result="BackgroundImageFix"/>
<feColorMatrix in="SourceAlpha" type="matrix" values="0 0 0 0 0 0 0 0 0 0 0 0 0 0 0 0 0 0 127 0" result="hardAlpha"/>
<feOffset dy="4"/>
<feGaussianBlur stdDeviation="2"/>
<feComposite in2="hardAlpha" operator="out"/>
<feColorMatrix type="matrix" values="0 0 0 0 0 0 0 0 0 0 0 0 0 0 0 0 0 0 0.02 0"/>
<feBlend mode="normal" in2="BackgroundImageFix" result="effect1_dropShadow_29_7947"/>
<feBlend mode="normal" in="SourceGraphic" in2="effect1_dropShadow_29_7947" result="shape"/>
</filter>
<clipPath id="clip0_29_7947">
<rect width="16" height="16" fill="white" transform="translate(19 12)"/>
</clipPath>
</defs>
</svg>
