<svg width="24" height="24" viewBox="0 0 24 24" fill="none" xmlns="http://www.w3.org/2000/svg">
<path d="M13.6842 8H10.3158C9.50737 8 8 8 8 5.5C8 3 9.50737 3 10.3158 3H13.6842C14.4926 3 16 3 16 5.5C16 6.37273 16 8 13.6842 8ZM10.3158 4.36364C9.48211 4.36364 9.26316 4.36364 9.26316 5.5C9.26316 6.63636 9.48211 6.63636 10.3158 6.63636H13.6842C14.7368 6.63636 14.7368 6.4 14.7368 5.5C14.7368 4.36364 14.5179 4.36364 13.6842 4.36364H10.3158Z" fill="#7A5AF8"/>
<path d="M14.4615 21H9.53846C4.92718 21 4 18.881 4 15.4561V10.5282C4 6.78299 5.35385 5.18142 8.68513 5.00894C9.02154 4.99252 9.31692 5.24713 9.33333 5.59208C9.34974 5.93703 9.08718 6.21628 8.75077 6.23271C6.42051 6.36412 5.23077 7.06224 5.23077 10.5282V15.4561C5.23077 18.495 5.82974 19.768 9.53846 19.768H14.4615C18.1703 19.768 18.7692 18.495 18.7692 15.4561V10.5282C18.7692 7.06224 17.5795 6.36412 15.2492 6.23271C14.9128 6.21628 14.6503 5.92061 14.6667 5.58387C14.6831 5.24713 14.9785 4.9843 15.3149 5.00073C18.6462 5.18142 20 6.78299 20 10.52V15.4479C20 18.881 19.0728 21 14.4615 21Z" fill="#7A5AF8"/>
</svg>
