<svg width="24" height="24" viewBox="0 0 24 24" fill="none" xmlns="http://www.w3.org/2000/svg">
<path d="M12.1452 13.0291C9.38068 13.0291 7.13068 10.7791 7.13068 8.01453C7.13068 5.25 9.38068 3 12.1452 3C14.9097 3 17.1597 5.25 17.1597 8.01453C17.1597 10.7791 14.9097 13.0291 12.1452 13.0291ZM12.1452 4.30814C10.1045 4.30814 8.43882 5.97384 8.43882 8.01453C8.43882 10.0552 10.1045 11.7209 12.1452 11.7209C14.1859 11.7209 15.8516 10.0552 15.8516 8.01453C15.8516 5.97384 14.1859 4.30814 12.1452 4.30814Z" fill="#7A5AF8"/>
<path d="M19.6366 21.75C19.2791 21.75 18.9826 21.4535 18.9826 21.0959C18.9826 18.0872 15.9128 15.6454 12.1453 15.6454C8.3779 15.6454 5.30814 18.0872 5.30814 21.0959C5.30814 21.4535 5.01163 21.75 4.65407 21.75C4.29651 21.75 4 21.4535 4 21.0959C4 17.3721 7.65407 14.3372 12.1453 14.3372C16.6366 14.3372 20.2907 17.3721 20.2907 21.0959C20.2907 21.4535 19.9942 21.75 19.6366 21.75Z" fill="#7A5AF8"/>
</svg>
