<svg width="54" height="68" viewBox="0 0 54 68" fill="none" xmlns="http://www.w3.org/2000/svg">
<path d="M6.57031 45.8906H9.08496C9.62533 45.8906 10.0859 45.972 10.4668 46.1348C10.8477 46.2975 11.139 46.5384 11.3408 46.8574C11.5459 47.1732 11.6484 47.5638 11.6484 48.0293C11.6484 48.3841 11.5833 48.6966 11.4531 48.9668C11.3229 49.237 11.139 49.4648 10.9014 49.6504C10.6637 49.8327 10.3805 49.9743 10.0518 50.0752L9.68066 50.2559H7.41992L7.41016 49.2842H9.10449C9.39746 49.2842 9.6416 49.2321 9.83691 49.1279C10.0322 49.0238 10.1787 48.8822 10.2764 48.7031C10.3773 48.5208 10.4277 48.3158 10.4277 48.0879C10.4277 47.8405 10.3789 47.6257 10.2812 47.4434C10.1868 47.2578 10.0404 47.1162 9.8418 47.0186C9.64323 46.9176 9.39095 46.8672 9.08496 46.8672H7.7959V53H6.57031V45.8906ZM10.6279 53L8.95801 49.8066L10.2422 49.8018L11.9365 52.9365V53H10.6279ZM15.0811 53.0977C14.6904 53.0977 14.3372 53.0342 14.0215 52.9072C13.709 52.777 13.4421 52.5964 13.2207 52.3652C13.0026 52.1341 12.835 51.8623 12.7178 51.5498C12.6006 51.2373 12.542 50.9004 12.542 50.5391V50.3438C12.542 49.9303 12.6022 49.556 12.7227 49.2207C12.8431 48.8854 13.0107 48.599 13.2256 48.3613C13.4404 48.1204 13.6943 47.9365 13.9873 47.8096C14.2803 47.6826 14.5977 47.6191 14.9395 47.6191C15.3171 47.6191 15.6475 47.6826 15.9307 47.8096C16.2139 47.9365 16.4482 48.1156 16.6338 48.3467C16.8226 48.5745 16.9626 48.8464 17.0537 49.1621C17.1481 49.4779 17.1953 49.8262 17.1953 50.207V50.71H13.1133V49.8652H16.0332V49.7725C16.0267 49.5609 15.9844 49.3623 15.9062 49.1768C15.8314 48.9912 15.7158 48.8415 15.5596 48.7275C15.4033 48.6136 15.195 48.5566 14.9346 48.5566C14.7393 48.5566 14.5651 48.599 14.4121 48.6836C14.2624 48.765 14.137 48.8838 14.0361 49.04C13.9352 49.1963 13.8571 49.3851 13.8018 49.6064C13.7497 49.8245 13.7236 50.0703 13.7236 50.3438V50.5391C13.7236 50.7702 13.7546 50.985 13.8164 51.1836C13.8815 51.3789 13.9759 51.5498 14.0996 51.6963C14.2233 51.8428 14.373 51.9583 14.5488 52.043C14.7246 52.1243 14.9248 52.165 15.1494 52.165C15.4326 52.165 15.6849 52.1081 15.9062 51.9941C16.1276 51.8802 16.3197 51.7191 16.4824 51.5107L17.1025 52.1113C16.9886 52.2773 16.8405 52.4368 16.6582 52.5898C16.4759 52.7396 16.2529 52.8617 15.9893 52.9561C15.7288 53.0505 15.4261 53.0977 15.0811 53.0977ZM20.2715 52.1602C20.4635 52.1602 20.6361 52.1227 20.7891 52.0479C20.9453 51.9697 21.0706 51.8623 21.165 51.7256C21.2627 51.5889 21.3164 51.431 21.3262 51.252H22.4346C22.4281 51.5938 22.3271 51.9046 22.1318 52.1846C21.9365 52.4645 21.6777 52.6875 21.3555 52.8535C21.0332 53.0163 20.6768 53.0977 20.2861 53.0977C19.8825 53.0977 19.5309 53.0293 19.2314 52.8926C18.932 52.7526 18.6829 52.5605 18.4844 52.3164C18.2858 52.0723 18.1361 51.7907 18.0352 51.4717C17.9375 51.1527 17.8887 50.8109 17.8887 50.4463V50.2754C17.8887 49.9108 17.9375 49.569 18.0352 49.25C18.1361 48.9277 18.2858 48.6445 18.4844 48.4004C18.6829 48.1562 18.932 47.9658 19.2314 47.8291C19.5309 47.6891 19.8809 47.6191 20.2812 47.6191C20.7044 47.6191 21.0755 47.7038 21.3945 47.873C21.7135 48.0391 21.9642 48.2718 22.1465 48.5713C22.332 48.8675 22.4281 49.2126 22.4346 49.6064H21.3262C21.3164 49.4111 21.2676 49.2354 21.1797 49.0791C21.0951 48.9196 20.9746 48.7926 20.8184 48.6982C20.6654 48.6038 20.4814 48.5566 20.2666 48.5566C20.029 48.5566 19.832 48.6055 19.6758 48.7031C19.5195 48.7975 19.3975 48.9277 19.3096 49.0938C19.2217 49.2565 19.1582 49.4404 19.1191 49.6455C19.0833 49.8473 19.0654 50.0573 19.0654 50.2754V50.4463C19.0654 50.6644 19.0833 50.876 19.1191 51.0811C19.1549 51.2861 19.2168 51.4701 19.3047 51.6328C19.3958 51.7923 19.5195 51.9209 19.6758 52.0186C19.832 52.113 20.0306 52.1602 20.2715 52.1602ZM24.5 45.5V53H23.3281V45.5H24.5ZM24.2949 50.1631L23.9141 50.1582C23.9173 49.7936 23.9678 49.4567 24.0654 49.1475C24.1663 48.8382 24.3063 48.5697 24.4854 48.3418C24.6676 48.1107 24.8857 47.9333 25.1396 47.8096C25.3936 47.6826 25.6751 47.6191 25.9844 47.6191C26.2448 47.6191 26.4792 47.6549 26.6875 47.7266C26.8991 47.7982 27.0814 47.9137 27.2344 48.0732C27.3874 48.2295 27.5029 48.4346 27.5811 48.6885C27.6624 48.9391 27.7031 49.2451 27.7031 49.6064V53H26.5215V49.5967C26.5215 49.3428 26.484 49.141 26.4092 48.9912C26.3376 48.8415 26.2318 48.734 26.0918 48.6689C25.9518 48.6006 25.7809 48.5664 25.5791 48.5664C25.3675 48.5664 25.1803 48.6087 25.0176 48.6934C24.8581 48.778 24.7246 48.8936 24.6172 49.04C24.5098 49.1865 24.4284 49.3558 24.373 49.5479C24.321 49.7399 24.2949 49.945 24.2949 50.1631ZM31.873 51.9404V49.4209C31.873 49.2321 31.8389 49.0693 31.7705 48.9326C31.7021 48.7959 31.598 48.6901 31.458 48.6152C31.3213 48.5404 31.1488 48.5029 30.9404 48.5029C30.7484 48.5029 30.5824 48.5355 30.4424 48.6006C30.3024 48.6657 30.1934 48.7536 30.1152 48.8643C30.0371 48.9749 29.998 49.1003 29.998 49.2402H28.8262C28.8262 49.0319 28.8766 48.8301 28.9775 48.6348C29.0785 48.4395 29.2249 48.2653 29.417 48.1123C29.609 47.9593 29.8385 47.8389 30.1055 47.751C30.3724 47.6631 30.6719 47.6191 31.0039 47.6191C31.401 47.6191 31.7526 47.6859 32.0586 47.8193C32.3678 47.9528 32.6104 48.1546 32.7861 48.4248C32.9652 48.6917 33.0547 49.027 33.0547 49.4307V51.7793C33.0547 52.0202 33.071 52.2367 33.1035 52.4287C33.1393 52.6175 33.1898 52.7819 33.2549 52.9219V53H32.0488C31.9935 52.873 31.9495 52.7119 31.917 52.5166C31.8877 52.318 31.873 52.126 31.873 51.9404ZM32.0439 49.7871L32.0537 50.5146H31.209C30.9909 50.5146 30.7988 50.5358 30.6328 50.5781C30.4668 50.6172 30.3285 50.6758 30.2178 50.7539C30.1071 50.832 30.0241 50.9264 29.9688 51.0371C29.9134 51.1478 29.8857 51.2731 29.8857 51.4131C29.8857 51.5531 29.9183 51.6816 29.9834 51.7988C30.0485 51.9128 30.1429 52.0023 30.2666 52.0674C30.3936 52.1325 30.5465 52.165 30.7256 52.165C30.9665 52.165 31.1764 52.1162 31.3555 52.0186C31.5378 51.9176 31.681 51.7956 31.7852 51.6523C31.8893 51.5059 31.9447 51.3675 31.9512 51.2373L32.332 51.7598C32.293 51.8932 32.2262 52.0365 32.1318 52.1895C32.0374 52.3424 31.9137 52.4889 31.7607 52.6289C31.611 52.7656 31.4303 52.8779 31.2188 52.9658C31.0104 53.0537 30.7695 53.0977 30.4961 53.0977C30.151 53.0977 29.8434 53.0293 29.5732 52.8926C29.3031 52.7526 29.0915 52.5654 28.9385 52.3311C28.7855 52.0934 28.709 51.8249 28.709 51.5254C28.709 51.2454 28.7611 50.998 28.8652 50.7832C28.9727 50.5651 29.1289 50.3828 29.334 50.2363C29.5423 50.0898 29.7962 49.9792 30.0957 49.9043C30.3952 49.8262 30.737 49.7871 31.1211 49.7871H32.0439ZM35.4668 48.7227V53H34.29V47.7168H35.4131L35.4668 48.7227ZM37.083 47.6826L37.0732 48.7764C37.0016 48.7633 36.9235 48.7536 36.8389 48.7471C36.7575 48.7406 36.6761 48.7373 36.5947 48.7373C36.3929 48.7373 36.2155 48.7666 36.0625 48.8252C35.9095 48.8805 35.7809 48.9619 35.6768 49.0693C35.5758 49.1735 35.4977 49.3005 35.4424 49.4502C35.387 49.5999 35.3545 49.7676 35.3447 49.9531L35.0762 49.9727C35.0762 49.6406 35.1087 49.333 35.1738 49.0498C35.2389 48.7666 35.3366 48.5176 35.4668 48.3027C35.6003 48.0879 35.7663 47.9202 35.9648 47.7998C36.1667 47.6794 36.3994 47.6191 36.6631 47.6191C36.7347 47.6191 36.8112 47.6257 36.8926 47.6387C36.9772 47.6517 37.0407 47.6663 37.083 47.6826ZM41.1064 47.7168H42.1758V52.8535C42.1758 53.3288 42.0749 53.7324 41.873 54.0645C41.6712 54.3965 41.3896 54.6488 41.0283 54.8213C40.667 54.9971 40.2487 55.085 39.7734 55.085C39.5716 55.085 39.347 55.0557 39.0996 54.9971C38.8555 54.9385 38.6178 54.8441 38.3867 54.7139C38.1589 54.5869 37.9684 54.4193 37.8154 54.2109L38.3672 53.5176C38.556 53.7422 38.7643 53.9066 38.9922 54.0107C39.2201 54.1149 39.4593 54.167 39.71 54.167C39.9801 54.167 40.2096 54.1165 40.3984 54.0156C40.5905 53.918 40.7386 53.7731 40.8428 53.5811C40.9469 53.389 40.999 53.1546 40.999 52.8779V48.9131L41.1064 47.7168ZM37.5176 50.417V50.3145C37.5176 49.9141 37.5664 49.5495 37.6641 49.2207C37.7617 48.8887 37.9017 48.6038 38.084 48.3662C38.2663 48.1253 38.4876 47.9414 38.748 47.8145C39.0085 47.6842 39.3031 47.6191 39.6318 47.6191C39.9736 47.6191 40.265 47.681 40.5059 47.8047C40.75 47.9284 40.9535 48.1058 41.1162 48.3369C41.279 48.5648 41.4059 48.8382 41.4971 49.1572C41.5915 49.473 41.6615 49.8245 41.707 50.2119V50.5391C41.6647 50.9167 41.5931 51.2617 41.4922 51.5742C41.3913 51.8867 41.2578 52.1569 41.0918 52.3848C40.9258 52.6126 40.7207 52.7884 40.4766 52.9121C40.2357 53.0358 39.9508 53.0977 39.6221 53.0977C39.2998 53.0977 39.0085 53.0309 38.748 52.8975C38.4909 52.764 38.2695 52.5768 38.084 52.3359C37.9017 52.0951 37.7617 51.8118 37.6641 51.4863C37.5664 51.1576 37.5176 50.8011 37.5176 50.417ZM38.6943 50.3145V50.417C38.6943 50.6579 38.7171 50.8825 38.7627 51.0908C38.8115 51.2992 38.8848 51.4831 38.9824 51.6426C39.0833 51.7988 39.2103 51.9225 39.3633 52.0137C39.5195 52.1016 39.7035 52.1455 39.915 52.1455C40.1917 52.1455 40.418 52.0869 40.5938 51.9697C40.7728 51.8525 40.9095 51.6947 41.0039 51.4961C41.1016 51.2943 41.1699 51.0697 41.209 50.8223V49.9385C41.1895 49.7464 41.1488 49.5674 41.0869 49.4014C41.0283 49.2354 40.9486 49.0905 40.8477 48.9668C40.7467 48.8398 40.6198 48.7422 40.4668 48.6738C40.3138 48.6022 40.1331 48.5664 39.9248 48.5664C39.7132 48.5664 39.5293 48.612 39.373 48.7031C39.2168 48.7943 39.0882 48.9196 38.9873 49.0791C38.8896 49.2386 38.8164 49.4242 38.7676 49.6357C38.7188 49.8473 38.6943 50.0736 38.6943 50.3145ZM45.7256 53.0977C45.335 53.0977 44.9818 53.0342 44.666 52.9072C44.3535 52.777 44.0866 52.5964 43.8652 52.3652C43.6471 52.1341 43.4795 51.8623 43.3623 51.5498C43.2451 51.2373 43.1865 50.9004 43.1865 50.5391V50.3438C43.1865 49.9303 43.2467 49.556 43.3672 49.2207C43.4876 48.8854 43.6553 48.599 43.8701 48.3613C44.085 48.1204 44.3389 47.9365 44.6318 47.8096C44.9248 47.6826 45.2422 47.6191 45.584 47.6191C45.9616 47.6191 46.292 47.6826 46.5752 47.8096C46.8584 47.9365 47.0928 48.1156 47.2783 48.3467C47.4671 48.5745 47.6071 48.8464 47.6982 49.1621C47.7926 49.4779 47.8398 49.8262 47.8398 50.207V50.71H43.7578V49.8652H46.6777V49.7725C46.6712 49.5609 46.6289 49.3623 46.5508 49.1768C46.4759 48.9912 46.3604 48.8415 46.2041 48.7275C46.0479 48.6136 45.8395 48.5566 45.5791 48.5566C45.3838 48.5566 45.2096 48.599 45.0566 48.6836C44.9069 48.765 44.7816 48.8838 44.6807 49.04C44.5798 49.1963 44.5016 49.3851 44.4463 49.6064C44.3942 49.8245 44.3682 50.0703 44.3682 50.3438V50.5391C44.3682 50.7702 44.3991 50.985 44.4609 51.1836C44.526 51.3789 44.6204 51.5498 44.7441 51.6963C44.8678 51.8428 45.0176 51.9583 45.1934 52.043C45.3691 52.1243 45.5693 52.165 45.7939 52.165C46.0771 52.165 46.3294 52.1081 46.5508 51.9941C46.7721 51.8802 46.9642 51.7191 47.127 51.5107L47.7471 52.1113C47.6331 52.2773 47.485 52.4368 47.3027 52.5898C47.1204 52.7396 46.8975 52.8617 46.6338 52.9561C46.3734 53.0505 46.0706 53.0977 45.7256 53.0977ZM15.5938 63.4033L17.0098 57.8906H17.752L17.6689 59.3115L16.1553 65H15.3838L15.5938 63.4033ZM14.5342 57.8906L15.6816 63.3594L15.7842 65H14.9639L13.3184 57.8906H14.5342ZM19.3584 63.3447L20.4912 57.8906H21.7119L20.0664 65H19.2461L19.3584 63.3447ZM18.04 57.8906L19.4414 63.418L19.6465 65H18.875L17.3857 59.3115L17.3076 57.8906H18.04ZM25.3154 63.9404V61.4209C25.3154 61.2321 25.2812 61.0693 25.2129 60.9326C25.1445 60.7959 25.0404 60.6901 24.9004 60.6152C24.7637 60.5404 24.5911 60.5029 24.3828 60.5029C24.1908 60.5029 24.0247 60.5355 23.8848 60.6006C23.7448 60.6657 23.6357 60.7536 23.5576 60.8643C23.4795 60.9749 23.4404 61.1003 23.4404 61.2402H22.2686C22.2686 61.0319 22.319 60.8301 22.4199 60.6348C22.5208 60.4395 22.6673 60.2653 22.8594 60.1123C23.0514 59.9593 23.2809 59.8389 23.5479 59.751C23.8148 59.6631 24.1143 59.6191 24.4463 59.6191C24.8434 59.6191 25.195 59.6859 25.501 59.8193C25.8102 59.9528 26.0527 60.1546 26.2285 60.4248C26.4076 60.6917 26.4971 61.027 26.4971 61.4307V63.7793C26.4971 64.0202 26.5133 64.2367 26.5459 64.4287C26.5817 64.6175 26.6322 64.7819 26.6973 64.9219V65H25.4912C25.4359 64.873 25.3919 64.7119 25.3594 64.5166C25.3301 64.318 25.3154 64.126 25.3154 63.9404ZM25.4863 61.7871L25.4961 62.5146H24.6514C24.4333 62.5146 24.2412 62.5358 24.0752 62.5781C23.9092 62.6172 23.7708 62.6758 23.6602 62.7539C23.5495 62.832 23.4665 62.9264 23.4111 63.0371C23.3558 63.1478 23.3281 63.2731 23.3281 63.4131C23.3281 63.5531 23.3607 63.6816 23.4258 63.7988C23.4909 63.9128 23.5853 64.0023 23.709 64.0674C23.8359 64.1325 23.9889 64.165 24.168 64.165C24.4089 64.165 24.6188 64.1162 24.7979 64.0186C24.9801 63.9176 25.1234 63.7956 25.2275 63.6523C25.3317 63.5059 25.387 63.3675 25.3936 63.2373L25.7744 63.7598C25.7354 63.8932 25.6686 64.0365 25.5742 64.1895C25.4798 64.3424 25.3561 64.4889 25.2031 64.6289C25.0534 64.7656 24.8727 64.8779 24.6611 64.9658C24.4528 65.0537 24.2119 65.0977 23.9385 65.0977C23.5934 65.0977 23.2858 65.0293 23.0156 64.8926C22.7454 64.7526 22.5339 64.5654 22.3809 64.3311C22.2279 64.0934 22.1514 63.8249 22.1514 63.5254C22.1514 63.2454 22.2035 62.998 22.3076 62.7832C22.415 62.5651 22.5713 62.3828 22.7764 62.2363C22.9847 62.0898 23.2386 61.9792 23.5381 61.9043C23.8376 61.8262 24.1794 61.7871 24.5635 61.7871H25.4863ZM28.9873 57.5V65H27.8057V57.5H28.9873ZM31.5361 57.5V65H30.3545V57.5H31.5361ZM35.1543 65.0977C34.7637 65.0977 34.4105 65.0342 34.0947 64.9072C33.7822 64.777 33.5153 64.5964 33.2939 64.3652C33.0758 64.1341 32.9082 63.8623 32.791 63.5498C32.6738 63.2373 32.6152 62.9004 32.6152 62.5391V62.3438C32.6152 61.9303 32.6755 61.556 32.7959 61.2207C32.9163 60.8854 33.084 60.599 33.2988 60.3613C33.5137 60.1204 33.7676 59.9365 34.0605 59.8096C34.3535 59.6826 34.6709 59.6191 35.0127 59.6191C35.3903 59.6191 35.7207 59.6826 36.0039 59.8096C36.2871 59.9365 36.5215 60.1156 36.707 60.3467C36.8958 60.5745 37.0358 60.8464 37.127 61.1621C37.2214 61.4779 37.2686 61.8262 37.2686 62.207V62.71H33.1865V61.8652H36.1064V61.7725C36.0999 61.5609 36.0576 61.3623 35.9795 61.1768C35.9046 60.9912 35.7891 60.8415 35.6328 60.7275C35.4766 60.6136 35.2682 60.5566 35.0078 60.5566C34.8125 60.5566 34.6383 60.599 34.4854 60.6836C34.3356 60.765 34.2103 60.8838 34.1094 61.04C34.0085 61.1963 33.9303 61.3851 33.875 61.6064C33.8229 61.8245 33.7969 62.0703 33.7969 62.3438V62.5391C33.7969 62.7702 33.8278 62.985 33.8896 63.1836C33.9548 63.3789 34.0492 63.5498 34.1729 63.6963C34.2965 63.8428 34.4463 63.9583 34.6221 64.043C34.7979 64.1243 34.998 64.165 35.2227 64.165C35.5059 64.165 35.7581 64.1081 35.9795 63.9941C36.2008 63.8802 36.3929 63.7191 36.5557 63.5107L37.1758 64.1113C37.0618 64.2773 36.9137 64.4368 36.7314 64.5898C36.5492 64.7396 36.3262 64.8617 36.0625 64.9561C35.8021 65.0505 35.4993 65.0977 35.1543 65.0977ZM40.6084 59.7168V60.5762H37.6299V59.7168H40.6084ZM38.4893 58.4229H39.666V63.54C39.666 63.7028 39.6888 63.8281 39.7344 63.916C39.7832 64.0007 39.8499 64.0576 39.9346 64.0869C40.0192 64.1162 40.1185 64.1309 40.2324 64.1309C40.3138 64.1309 40.3919 64.126 40.4668 64.1162C40.5417 64.1064 40.6019 64.0967 40.6475 64.0869L40.6523 64.9854C40.5547 65.0146 40.4408 65.0407 40.3105 65.0635C40.1836 65.0863 40.0371 65.0977 39.8711 65.0977C39.6009 65.0977 39.3617 65.0505 39.1533 64.9561C38.945 64.8584 38.7822 64.7005 38.665 64.4824C38.5479 64.2643 38.4893 63.9746 38.4893 63.6133V58.4229Z" fill="#1B2559"/>
<path d="M27.29 20.295C27.105 20.485 27 20.74 27 21.01C27 21.565 27.455 22.02 28.01 22.02H32V20H28.01C27.74 20 27.485 20.105 27.29 20.295Z" fill="#7A5AF8"/>
<path d="M30.5625 14C30.2862 14 30.0625 14.2236 30.0625 14.5V16.7025L29.857 16.4927C29.6641 16.2959 29.3477 16.292 29.1499 16.4858C28.9527 16.6787 28.9497 16.9956 29.1431 17.1929L30.2056 18.2773C30.2057 18.2775 30.2059 18.2775 30.206 18.2776C30.2968 18.3702 30.4225 18.4282 30.5625 18.4282C30.7025 18.4282 30.8283 18.3702 30.919 18.2776C30.9191 18.2775 30.9193 18.2775 30.9195 18.2773L31.982 17.1929C32.1753 16.9956 32.1724 16.6787 31.9751 16.4858C31.7774 16.292 31.461 16.2954 31.2681 16.4927L31.0625 16.7025V14.5C31.0625 14.2236 30.8389 14 30.5625 14Z" fill="#7A5AF8"/>
<path d="M31.19 16.42C31.175 16.775 31.03 17.12 30.765 17.395L29.705 18.475C29.705 18.48 29.705 18.48 29.7 18.48C29.43 18.755 29.05 18.93 28.635 18.93C28.215 18.93 27.835 18.755 27.565 18.48C27.565 18.48 27.565 18.48 27.56 18.475L26.5 17.395C26.19 17.08 26.05 16.66 26.075 16.25H19V16.125C19 15.505 19.505 15 20.125 15H26.92C26.99 14.965 27.06 14.94 27.135 14.915V14H20.125C18.955 14 18 14.955 18 16.125V24C18 25.655 19.345 27 21 27H30.5C31.325 27 32 26.325 32 25.5V23.635H28.01C26.9 23.635 26 22.735 26 21.625C26 21.09 26.205 20.59 26.585 20.205C26.975 19.82 27.475 19.615 28.01 19.615H32V17.75C32 17.175 31.67 16.67 31.19 16.42Z" fill="#7A5AF8"/>
<path d="M45 20C45 31.0457 36.0457 40 25 40C13.9543 40 5 31.0457 5 20C5 8.9543 13.9543 0 25 0C36.0457 0 45 8.9543 45 20Z" fill="#7A5AF8" fill-opacity="0.1"/>
</svg>
