<svg width="135" height="110" viewBox="0 0 161 122" fill="none" xmlns="http://www.w3.org/2000/svg">
<g filter="url(#filter0_d_29_8075)">
<rect x="22" y="25" width="106" height="64" rx="16" fill="white"/>
<path d="M60.8145 68.4688H63.9141C64.5625 68.4688 65.1191 68.5664 65.584 68.7617C66.0488 68.957 66.4062 69.2461 66.6562 69.6289C66.9062 70.0117 67.0312 70.4824 67.0312 71.041C67.0312 71.4824 66.9531 71.8652 66.7969 72.1895C66.6406 72.5137 66.4199 72.7852 66.1348 73.0039C65.8535 73.2227 65.5215 73.3945 65.1387 73.5195L64.6348 73.7773H61.8984L61.8867 72.5059H63.9316C64.2637 72.5059 64.5391 72.4473 64.7578 72.3301C64.9766 72.2129 65.1406 72.0508 65.25 71.8438C65.3633 71.6367 65.4199 71.4004 65.4199 71.1348C65.4199 70.8496 65.3652 70.6035 65.2559 70.3965C65.1465 70.1855 64.9805 70.0234 64.7578 69.9102C64.5352 69.7969 64.2539 69.7402 63.9141 69.7402H62.4258V77H60.8145V68.4688ZM65.6309 77L63.6562 73.1797L65.3613 73.1738L67.3594 76.918V77H65.6309ZM71.1738 77.1172C70.6934 77.1172 70.2617 77.0391 69.8789 76.8828C69.4961 76.7266 69.1699 76.5098 68.9004 76.2324C68.6348 75.9512 68.4297 75.625 68.2852 75.2539C68.1445 74.8789 68.0742 74.4766 68.0742 74.0469V73.8125C68.0742 73.3242 68.1445 72.8809 68.2852 72.4824C68.4258 72.0801 68.625 71.7344 68.8828 71.4453C69.1406 71.1562 69.4492 70.9336 69.8086 70.7773C70.168 70.6211 70.5645 70.543 70.998 70.543C71.4473 70.543 71.8438 70.6191 72.1875 70.7715C72.5312 70.9199 72.8184 71.1309 73.0488 71.4043C73.2793 71.6777 73.4531 72.0059 73.5703 72.3887C73.6875 72.7676 73.7461 73.1875 73.7461 73.6484V74.2988H68.7773V73.2324H72.2227V73.1152C72.2148 72.8691 72.168 72.6445 72.082 72.4414C71.9961 72.2344 71.8633 72.0703 71.6836 71.9492C71.5039 71.8242 71.2715 71.7617 70.9863 71.7617C70.7559 71.7617 70.5547 71.8125 70.3828 71.9141C70.2148 72.0117 70.0742 72.1523 69.9609 72.3359C69.8516 72.5156 69.7695 72.7305 69.7148 72.9805C69.6602 73.2305 69.6328 73.5078 69.6328 73.8125V74.0469C69.6328 74.3125 69.668 74.5586 69.7383 74.7852C69.8125 75.0117 69.9199 75.209 70.0605 75.377C70.2051 75.541 70.377 75.6699 70.5762 75.7637C70.7793 75.8535 71.0098 75.8984 71.2676 75.8984C71.5918 75.8984 71.8848 75.8359 72.1465 75.7109C72.4121 75.582 72.6426 75.3926 72.8379 75.1426L73.6172 75.9512C73.4844 76.1465 73.3047 76.334 73.0781 76.5137C72.8555 76.6934 72.5859 76.8398 72.2695 76.9531C71.9531 77.0625 71.5879 77.1172 71.1738 77.1172ZM76.8105 77H75.252V70.0742C75.252 69.5977 75.3438 69.1973 75.5273 68.873C75.7109 68.5449 75.9727 68.2969 76.3125 68.1289C76.6523 67.9609 77.0527 67.877 77.5137 67.877C77.666 67.877 77.8105 67.8867 77.9473 67.9062C78.0879 67.9258 78.2266 67.9531 78.3633 67.9883L78.334 69.166C78.2598 69.1465 78.1777 69.1328 78.0879 69.125C78.002 69.1172 77.9062 69.1133 77.8008 69.1133C77.5898 69.1133 77.4102 69.1504 77.2617 69.2246C77.1133 69.2988 77 69.4082 76.9219 69.5527C76.8477 69.6934 76.8105 69.8672 76.8105 70.0742V77ZM78.0938 70.6602V71.7734H74.2969V70.6602H78.0938ZM81.7559 77.1172C81.2754 77.1172 80.8438 77.0391 80.4609 76.8828C80.0781 76.7266 79.752 76.5098 79.4824 76.2324C79.2168 75.9512 79.0117 75.625 78.8672 75.2539C78.7266 74.8789 78.6562 74.4766 78.6562 74.0469V73.8125C78.6562 73.3242 78.7266 72.8809 78.8672 72.4824C79.0078 72.0801 79.207 71.7344 79.4648 71.4453C79.7227 71.1562 80.0312 70.9336 80.3906 70.7773C80.75 70.6211 81.1465 70.543 81.5801 70.543C82.0293 70.543 82.4258 70.6191 82.7695 70.7715C83.1133 70.9199 83.4004 71.1309 83.6309 71.4043C83.8613 71.6777 84.0352 72.0059 84.1523 72.3887C84.2695 72.7676 84.3281 73.1875 84.3281 73.6484V74.2988H79.3594V73.2324H82.8047V73.1152C82.7969 72.8691 82.75 72.6445 82.6641 72.4414C82.5781 72.2344 82.4453 72.0703 82.2656 71.9492C82.0859 71.8242 81.8535 71.7617 81.5684 71.7617C81.3379 71.7617 81.1367 71.8125 80.9648 71.9141C80.7969 72.0117 80.6562 72.1523 80.543 72.3359C80.4336 72.5156 80.3516 72.7305 80.2969 72.9805C80.2422 73.2305 80.2148 73.5078 80.2148 73.8125V74.0469C80.2148 74.3125 80.25 74.5586 80.3203 74.7852C80.3945 75.0117 80.502 75.209 80.6426 75.377C80.7871 75.541 80.959 75.6699 81.1582 75.7637C81.3613 75.8535 81.5918 75.8984 81.8496 75.8984C82.1738 75.8984 82.4668 75.8359 82.7285 75.7109C82.9941 75.582 83.2246 75.3926 83.4199 75.1426L84.1992 75.9512C84.0664 76.1465 83.8867 76.334 83.6602 76.5137C83.4375 76.6934 83.168 76.8398 82.8516 76.9531C82.5352 77.0625 82.1699 77.1172 81.7559 77.1172ZM86.9121 71.9551V77H85.3652V70.6602H86.8301L86.9121 71.9551ZM88.8398 70.6191L88.8164 72.0605C88.7305 72.0449 88.6328 72.0332 88.5234 72.0254C88.418 72.0176 88.3184 72.0137 88.2246 72.0137C87.9863 72.0137 87.7773 72.0469 87.5977 72.1133C87.418 72.1758 87.2676 72.2676 87.1465 72.3887C87.0293 72.5098 86.9395 72.6582 86.877 72.834C86.8145 73.0059 86.7793 73.2012 86.7715 73.4199L86.4375 73.3789C86.4375 72.9766 86.4785 72.6035 86.5605 72.2598C86.6426 71.916 86.7617 71.6152 86.918 71.3574C87.0742 71.0996 87.2695 70.9004 87.5039 70.7598C87.7422 70.6152 88.0156 70.543 88.3242 70.543C88.4102 70.543 88.502 70.5508 88.5996 70.5664C88.7012 70.5781 88.7812 70.5957 88.8398 70.6191Z" fill="#1B2559"/>
<g clip-path="url(#clip0_29_8075)">
<path d="M75 64C83.8366 64 91 56.8366 91 48C91 39.1634 83.8366 32 75 32C66.1634 32 59 39.1634 59 48C59 56.8366 66.1634 64 75 64Z" fill="#DEEEFF"/>
<path d="M70.3521 52.0166C70.3841 52.6656 70.5197 53.4077 70.7152 54.1696L71.5001 53.6873L71.2132 51.7818L70.3521 52.0166Z" fill="#6BAFFF"/>
<path d="M70.3522 52.0166L71.2132 51.7818L72.0909 50.3273H69.1769C68.7682 50.3273 68.3778 50.2534 68.0132 50.1242V52.3636C68.0132 54.3031 66.9465 56.1454 67.7223 57.3091H70.5107C70.7955 57.3091 71.0626 57.1697 71.226 56.9358C71.3892 56.7022 71.4279 56.4035 71.3299 56.1358C70.8228 54.7508 70.4118 53.2241 70.3522 52.0166Z" fill="#2E3ECD"/>
<path d="M65.6859 46.8364C65.6859 48.7642 67.249 50.3273 69.1768 50.3273H72.6677V43.3455H69.1768C67.2487 43.3455 65.6859 44.9085 65.6859 46.8364Z" fill="#2E3ECD"/>
<path d="M81.9818 39.8546C81.9836 42.0023 81.9818 46.8364 81.9818 46.8364H72.6669V43.3455C79.9173 43.3455 81.9818 39.8546 81.9818 39.8546Z" fill="#2E3ECD"/>
<path d="M81.9818 53.8182C81.9836 51.6704 81.9818 46.8364 81.9818 46.8364H72.6669V50.3273C79.9173 50.3273 81.9818 53.8182 81.9818 53.8182Z" fill="#2E3ECD"/>
<path d="M83.7273 39.2727H81.9818V46.8364H83.7273V39.2727Z" fill="#6BAFFF"/>
<path d="M83.7273 46.8364H81.9818V54.4H83.7273V46.8364Z" fill="#6BAFFF"/>
</g>
</g>
<defs>
<filter id="filter0_d_29_8075" x="-3" y="0" width="164" height="122" filterUnits="userSpaceOnUse" color-interpolation-filters="sRGB">
<feFlood flood-opacity="0" result="BackgroundImageFix"/>
<feColorMatrix in="SourceAlpha" type="matrix" values="0 0 0 0 0 0 0 0 0 0 0 0 0 0 0 0 0 0 127 0" result="hardAlpha"/>
<feMorphology radius="4" operator="dilate" in="SourceAlpha" result="effect1_dropShadow_29_8075"/>
<feOffset dx="4" dy="4"/>
<feGaussianBlur stdDeviation="12.5"/>
<feColorMatrix type="matrix" values="0 0 0 0 0.439216 0 0 0 0 0.564706 0 0 0 0 0.690196 0 0 0 0.08 0"/>
<feBlend mode="normal" in2="BackgroundImageFix" result="effect1_dropShadow_29_8075"/>
<feBlend mode="normal" in="SourceGraphic" in2="effect1_dropShadow_29_8075" result="shape"/>
</filter>
<clipPath id="clip0_29_8075">
<rect width="32" height="32" fill="white" transform="translate(59 32)"/>
</clipPath>
</defs>
</svg>
