<svg width="135" height="110" viewBox="0 0 164 122" fill="none" xmlns="http://www.w3.org/2000/svg">
<g filter="url(#filter0_d_29_8090)">
<rect x="25" y="25" width="106" height="64" rx="16" fill="white"/>
<g clip-path="url(#clip0_29_8090)">
<path d="M78 64C86.8367 64 94 56.8367 94 48C94 39.1633 86.8367 32 78 32C69.1633 32 62 39.1633 62 48C62 56.8367 69.1633 64 78 64Z" fill="#DEEEFF"/>
<path d="M82.6545 46.5251C82.6545 46.7197 82.5574 46.9012 82.3953 47.0092L79.1636 50.3273H76.8364L73.6047 47.0092C73.5249 46.9561 73.4596 46.8841 73.4144 46.7996C73.3691 46.7152 73.3455 46.6209 73.3455 46.5251V39.8546C73.3455 39.7017 73.3756 39.5504 73.434 39.4093C73.4925 39.2681 73.5782 39.1398 73.6863 39.0317C73.7943 38.9237 73.9226 38.838 74.0638 38.7795C74.205 38.721 74.3563 38.6909 74.5091 38.6909H81.4909C81.6437 38.6909 81.795 38.721 81.9362 38.7795C82.0774 38.838 82.2057 38.9237 82.3137 39.0317C82.4218 39.1398 82.5075 39.2681 82.566 39.4093C82.6245 39.5504 82.6545 39.7017 82.6545 39.8546V46.5251Z" fill="#6BAFFF"/>
<path d="M77.739 46.5498C77.763 46.5011 77.8002 46.4601 77.8463 46.4314C77.8924 46.4027 77.9457 46.3875 78 46.3875C78.0543 46.3875 78.1075 46.4027 78.1536 46.4314C78.1998 46.4601 78.2369 46.5011 78.2609 46.5498L79.8054 49.6791C79.8262 49.7214 79.8571 49.758 79.8952 49.7857C79.9334 49.8135 79.9777 49.8315 80.0244 49.8383L83.4778 50.3401C83.5315 50.3479 83.582 50.3706 83.6235 50.4056C83.665 50.4406 83.6959 50.4865 83.7127 50.5381C83.7294 50.5898 83.7314 50.6451 83.7184 50.6978C83.7054 50.7505 83.6779 50.7985 83.639 50.8364L81.1401 53.2722C81.0714 53.3391 81.0403 53.4354 81.0563 53.5296L81.6462 56.969C81.6554 57.0225 81.6494 57.0775 81.629 57.1278C81.6085 57.1781 81.5744 57.2216 81.5305 57.2535C81.4866 57.2854 81.4346 57.3044 81.3805 57.3083C81.3263 57.3122 81.2722 57.3009 81.2241 57.2757L78.1353 55.6518C78.0935 55.6299 78.047 55.6184 77.9998 55.6184C77.9527 55.6184 77.9062 55.6299 77.8644 55.6518L74.7755 57.2757C74.7275 57.3009 74.6734 57.3122 74.6192 57.3083C74.5651 57.3044 74.5131 57.2854 74.4692 57.2535C74.4253 57.2216 74.3912 57.1781 74.3707 57.1278C74.3503 57.0775 74.3443 57.0225 74.3534 56.969L74.9434 53.5296C74.9514 53.4831 74.9479 53.4354 74.9333 53.3905C74.9187 53.3457 74.8934 53.3051 74.8596 53.2722L72.3607 50.8364C72.3216 50.7986 72.2939 50.7506 72.2807 50.6978C72.2676 50.645 72.2695 50.5896 72.2863 50.5379C72.3031 50.4862 72.3341 50.4402 72.3757 50.4052C72.4174 50.3703 72.468 50.3477 72.5219 50.3401L75.9753 49.8383C76.0219 49.8315 76.0663 49.8135 76.1044 49.7857C76.1426 49.758 76.1734 49.7214 76.1943 49.6791L77.739 46.5498Z" fill="#2E3ECD"/>
</g>
<path d="M54.8145 68.4688H57.9141C58.5625 68.4688 59.1191 68.5664 59.584 68.7617C60.0488 68.957 60.4062 69.2461 60.6562 69.6289C60.9062 70.0117 61.0312 70.4824 61.0312 71.041C61.0312 71.4824 60.9531 71.8652 60.7969 72.1895C60.6406 72.5137 60.4199 72.7852 60.1348 73.0039C59.8535 73.2227 59.5215 73.3945 59.1387 73.5195L58.6348 73.7773H55.8984L55.8867 72.5059H57.9316C58.2637 72.5059 58.5391 72.4473 58.7578 72.3301C58.9766 72.2129 59.1406 72.0508 59.25 71.8438C59.3633 71.6367 59.4199 71.4004 59.4199 71.1348C59.4199 70.8496 59.3652 70.6035 59.2559 70.3965C59.1465 70.1855 58.9805 70.0234 58.7578 69.9102C58.5352 69.7969 58.2539 69.7402 57.9141 69.7402H56.4258V77H54.8145V68.4688ZM59.6309 77L57.6562 73.1797L59.3613 73.1738L61.3594 76.918V77H59.6309ZM65.1738 77.1172C64.6934 77.1172 64.2617 77.0391 63.8789 76.8828C63.4961 76.7266 63.1699 76.5098 62.9004 76.2324C62.6348 75.9512 62.4297 75.625 62.2852 75.2539C62.1445 74.8789 62.0742 74.4766 62.0742 74.0469V73.8125C62.0742 73.3242 62.1445 72.8809 62.2852 72.4824C62.4258 72.0801 62.625 71.7344 62.8828 71.4453C63.1406 71.1562 63.4492 70.9336 63.8086 70.7773C64.168 70.6211 64.5645 70.543 64.998 70.543C65.4473 70.543 65.8438 70.6191 66.1875 70.7715C66.5312 70.9199 66.8184 71.1309 67.0488 71.4043C67.2793 71.6777 67.4531 72.0059 67.5703 72.3887C67.6875 72.7676 67.7461 73.1875 67.7461 73.6484V74.2988H62.7773V73.2324H66.2227V73.1152C66.2148 72.8691 66.168 72.6445 66.082 72.4414C65.9961 72.2344 65.8633 72.0703 65.6836 71.9492C65.5039 71.8242 65.2715 71.7617 64.9863 71.7617C64.7559 71.7617 64.5547 71.8125 64.3828 71.9141C64.2148 72.0117 64.0742 72.1523 63.9609 72.3359C63.8516 72.5156 63.7695 72.7305 63.7148 72.9805C63.6602 73.2305 63.6328 73.5078 63.6328 73.8125V74.0469C63.6328 74.3125 63.668 74.5586 63.7383 74.7852C63.8125 75.0117 63.9199 75.209 64.0605 75.377C64.2051 75.541 64.377 75.6699 64.5762 75.7637C64.7793 75.8535 65.0098 75.8984 65.2676 75.8984C65.5918 75.8984 65.8848 75.8359 66.1465 75.7109C66.4121 75.582 66.6426 75.3926 66.8379 75.1426L67.6172 75.9512C67.4844 76.1465 67.3047 76.334 67.0781 76.5137C66.8555 76.6934 66.5859 76.8398 66.2695 76.9531C65.9531 77.0625 65.5879 77.1172 65.1738 77.1172ZM70.5469 75.4766L71.9355 70.6602H72.9199L72.627 72.3242L71.2266 77H70.377L70.5469 75.4766ZM69.7793 70.6602L70.8223 75.4883L70.916 77H69.9375L68.2734 70.6602H69.7793ZM74.209 75.418L75.2285 70.6602H76.7285L75.0762 77H74.0977L74.209 75.418ZM73.0723 70.6602L74.4492 75.4297L74.6309 77H73.7812L72.3691 72.3242L72.082 70.6602H73.0723ZM81.1348 75.6523V72.7285C81.1348 72.5137 81.0977 72.3281 81.0234 72.1719C80.9492 72.0156 80.8359 71.8945 80.6836 71.8086C80.5312 71.7227 80.3379 71.6797 80.1035 71.6797C79.8965 71.6797 79.7148 71.7148 79.5586 71.7852C79.4062 71.8555 79.2891 71.9551 79.207 72.084C79.125 72.209 79.084 72.3535 79.084 72.5176H77.5312C77.5312 72.2559 77.5938 72.0078 77.7188 71.7734C77.8438 71.5352 78.0215 71.3242 78.252 71.1406C78.4863 70.9531 78.7656 70.8066 79.0898 70.7012C79.418 70.5957 79.7852 70.543 80.1914 70.543C80.6719 70.543 81.0996 70.625 81.4746 70.7891C81.8535 70.9492 82.1504 71.1914 82.3652 71.5156C82.584 71.8398 82.6934 72.248 82.6934 72.7402V75.5059C82.6934 75.8223 82.7129 76.0938 82.752 76.3203C82.7949 76.543 82.8574 76.7363 82.9395 76.9004V77H81.3633C81.2891 76.8398 81.2324 76.6367 81.1934 76.3906C81.1543 76.1406 81.1348 75.8945 81.1348 75.6523ZM81.3516 73.1387L81.3633 74.0586H80.3848C80.1426 74.0586 79.9297 74.084 79.7461 74.1348C79.5625 74.1816 79.4121 74.252 79.2949 74.3457C79.1777 74.4355 79.0898 74.5449 79.0312 74.6738C78.9727 74.7988 78.9434 74.9414 78.9434 75.1016C78.9434 75.2578 78.9785 75.3984 79.0488 75.5234C79.123 75.6484 79.2285 75.748 79.3652 75.8223C79.5059 75.8926 79.6699 75.9277 79.8574 75.9277C80.1309 75.9277 80.3691 75.873 80.5723 75.7637C80.7754 75.6504 80.9336 75.5137 81.0469 75.3535C81.1602 75.1934 81.2207 75.041 81.2285 74.8965L81.6738 75.5645C81.6191 75.7246 81.5371 75.8945 81.4277 76.0742C81.3184 76.2539 81.1777 76.4219 81.0059 76.5781C80.834 76.7344 80.627 76.8633 80.3848 76.9648C80.1426 77.0664 79.8613 77.1172 79.541 77.1172C79.1309 77.1172 78.7637 77.0352 78.4395 76.8711C78.1152 76.707 77.8594 76.4824 77.6719 76.1973C77.4844 75.9121 77.3906 75.5879 77.3906 75.2246C77.3906 74.8887 77.4531 74.5918 77.5781 74.334C77.7031 74.0762 77.8887 73.8594 78.1348 73.6836C78.3809 73.5039 78.6855 73.3691 79.0488 73.2793C79.416 73.1855 79.8359 73.1387 80.3086 73.1387H81.3516ZM85.6348 71.9551V77H84.0879V70.6602H85.5527L85.6348 71.9551ZM87.5625 70.6191L87.5391 72.0605C87.4531 72.0449 87.3555 72.0332 87.2461 72.0254C87.1406 72.0176 87.041 72.0137 86.9473 72.0137C86.709 72.0137 86.5 72.0469 86.3203 72.1133C86.1406 72.1758 85.9902 72.2676 85.8691 72.3887C85.752 72.5098 85.6621 72.6582 85.5996 72.834C85.5371 73.0059 85.502 73.2012 85.4941 73.4199L85.1602 73.3789C85.1602 72.9766 85.2012 72.6035 85.2832 72.2598C85.3652 71.916 85.4844 71.6152 85.6406 71.3574C85.7969 71.0996 85.9922 70.9004 86.2266 70.7598C86.4648 70.6152 86.7383 70.543 87.0469 70.543C87.1328 70.543 87.2246 70.5508 87.3223 70.5664C87.4238 70.5781 87.5039 70.5957 87.5625 70.6191ZM92.0977 75.6523V68H93.6562V77H92.25L92.0977 75.6523ZM88.0254 73.9062V73.7832C88.0254 73.2988 88.0801 72.8594 88.1895 72.4648C88.3027 72.0664 88.4668 71.7246 88.6816 71.4395C88.8965 71.1543 89.1562 70.9336 89.4609 70.7773C89.7695 70.6211 90.1191 70.543 90.5098 70.543C90.8887 70.543 91.2188 70.6191 91.5 70.7715C91.7852 70.9238 92.0273 71.1406 92.2266 71.4219C92.4297 71.7031 92.5918 72.0371 92.7129 72.4238C92.834 72.8066 92.9219 73.2285 92.9766 73.6895V74.0234C92.9219 74.4727 92.834 74.8848 92.7129 75.2598C92.5918 75.6348 92.4297 75.9629 92.2266 76.2441C92.0273 76.5215 91.7852 76.7363 91.5 76.8887C91.2148 77.041 90.8809 77.1172 90.498 77.1172C90.1113 77.1172 89.7637 77.0371 89.4551 76.877C89.1504 76.7168 88.8906 76.4922 88.6758 76.2031C88.4648 75.9141 88.3027 75.5742 88.1895 75.1836C88.0801 74.793 88.0254 74.3672 88.0254 73.9062ZM89.5781 73.7832V73.9062C89.5781 74.1797 89.6016 74.4355 89.6484 74.6738C89.6953 74.9121 89.7715 75.123 89.877 75.3066C89.9824 75.4863 90.1172 75.627 90.2812 75.7285C90.4492 75.8301 90.6523 75.8809 90.8906 75.8809C91.1953 75.8809 91.4453 75.8145 91.6406 75.6816C91.8398 75.5449 91.9941 75.3594 92.1035 75.125C92.2129 74.8867 92.2832 74.6191 92.3145 74.3223V73.4023C92.2988 73.168 92.2578 72.9512 92.1914 72.752C92.1289 72.5527 92.0391 72.3809 91.9219 72.2363C91.8086 72.0918 91.668 71.9785 91.5 71.8965C91.332 71.8145 91.1328 71.7734 90.9023 71.7734C90.6641 71.7734 90.4609 71.8262 90.293 71.9316C90.125 72.0332 89.9883 72.1758 89.8828 72.3594C89.7773 72.543 89.6992 72.7559 89.6484 72.998C89.6016 73.2402 89.5781 73.502 89.5781 73.7832ZM98.543 75.2656C98.543 75.1328 98.5078 75.0137 98.4375 74.9082C98.3672 74.8027 98.2344 74.707 98.0391 74.6211C97.8477 74.5312 97.5664 74.4473 97.1953 74.3691C96.8672 74.2988 96.5645 74.2109 96.2871 74.1055C96.0098 74 95.7715 73.873 95.5723 73.7246C95.373 73.5723 95.2168 73.3945 95.1035 73.1914C94.9941 72.9844 94.9395 72.7461 94.9395 72.4766C94.9395 72.2148 94.9961 71.9688 95.1094 71.7383C95.2227 71.5039 95.3867 71.2988 95.6016 71.123C95.8164 70.9434 96.0781 70.8027 96.3867 70.7012C96.6953 70.5957 97.043 70.543 97.4297 70.543C97.9688 70.543 98.4316 70.6309 98.8184 70.8066C99.209 70.9824 99.5078 71.2246 99.7148 71.5332C99.9219 71.8379 100.025 72.1816 100.025 72.5645H98.4785C98.4785 72.3965 98.4395 72.2441 98.3613 72.1074C98.2871 71.9707 98.1719 71.8613 98.0156 71.7793C97.8594 71.6934 97.6621 71.6504 97.4238 71.6504C97.209 71.6504 97.0273 71.6855 96.8789 71.7559C96.7344 71.8262 96.625 71.918 96.5508 72.0312C96.4766 72.1445 96.4395 72.2695 96.4395 72.4062C96.4395 72.5078 96.459 72.5996 96.498 72.6816C96.541 72.7598 96.6094 72.832 96.7031 72.8984C96.7969 72.9648 96.9238 73.0254 97.084 73.0801C97.248 73.1348 97.4492 73.1875 97.6875 73.2383C98.1602 73.332 98.5723 73.457 98.9238 73.6133C99.2793 73.7656 99.5566 73.9688 99.7559 74.2227C99.9551 74.4766 100.055 74.8008 100.055 75.1953C100.055 75.4766 99.9941 75.7344 99.873 75.9688C99.752 76.1992 99.5762 76.4004 99.3457 76.5723C99.1152 76.7441 98.8398 76.8789 98.5195 76.9766C98.1992 77.0703 97.8379 77.1172 97.4355 77.1172C96.8535 77.1172 96.3613 77.0137 95.959 76.8066C95.5566 76.5957 95.252 76.3301 95.0449 76.0098C94.8379 75.6855 94.7344 75.3496 94.7344 75.002H96.2168C96.2285 75.248 96.2949 75.4453 96.416 75.5938C96.5371 75.7422 96.6895 75.8496 96.873 75.916C97.0605 75.9785 97.2578 76.0098 97.4648 76.0098C97.6992 76.0098 97.8965 75.9785 98.0566 75.916C98.2168 75.8496 98.3379 75.7617 98.4199 75.6523C98.502 75.5391 98.543 75.4102 98.543 75.2656Z" fill="#1B2559"/>
</g>
<defs>
<filter id="filter0_d_29_8090" x="0" y="0" width="164" height="122" filterUnits="userSpaceOnUse" color-interpolation-filters="sRGB">
<feFlood flood-opacity="0" result="BackgroundImageFix"/>
<feColorMatrix in="SourceAlpha" type="matrix" values="0 0 0 0 0 0 0 0 0 0 0 0 0 0 0 0 0 0 127 0" result="hardAlpha"/>
<feMorphology radius="4" operator="dilate" in="SourceAlpha" result="effect1_dropShadow_29_8090"/>
<feOffset dx="4" dy="4"/>
<feGaussianBlur stdDeviation="12.5"/>
<feColorMatrix type="matrix" values="0 0 0 0 0.439216 0 0 0 0 0.564706 0 0 0 0 0.690196 0 0 0 0.08 0"/>
<feBlend mode="normal" in2="BackgroundImageFix" result="effect1_dropShadow_29_8090"/>
<feBlend mode="normal" in="SourceGraphic" in2="effect1_dropShadow_29_8090" result="shape"/>
</filter>
<clipPath id="clip0_29_8090">
<rect width="32" height="32" fill="white" transform="translate(62 32)"/>
</clipPath>
</defs>
</svg>
