<svg width="57" height="64" viewBox="0 0 57 64" fill="none" xmlns="http://www.w3.org/2000/svg">
<path d="M15.1769 49.1689C15.1769 49.0225 15.1542 48.8923 15.1086 48.7783C15.0663 48.6644 14.9898 48.5602 14.8791 48.4658C14.7684 48.3714 14.6122 48.2803 14.4103 48.1924C14.2118 48.1012 13.9579 48.0085 13.6486 47.9141C13.3101 47.8099 12.9976 47.6943 12.7111 47.5674C12.4279 47.4372 12.1805 47.2874 11.9689 47.1182C11.7573 46.9456 11.593 46.7487 11.4758 46.5273C11.3586 46.3027 11.3 46.0439 11.3 45.751C11.3 45.4613 11.3602 45.1976 11.4807 44.96C11.6043 44.7223 11.7785 44.5173 12.0031 44.3447C12.231 44.1689 12.4995 44.0339 12.8088 43.9395C13.118 43.8418 13.4598 43.793 13.8342 43.793C14.3615 43.793 14.8156 43.8906 15.1965 44.0859C15.5806 44.2812 15.8752 44.5433 16.0803 44.8721C16.2886 45.2008 16.3928 45.5638 16.3928 45.9609H15.1769C15.1769 45.7266 15.1265 45.5199 15.0256 45.3408C14.9279 45.1585 14.7782 45.0153 14.5764 44.9111C14.3778 44.807 14.1255 44.7549 13.8195 44.7549C13.5298 44.7549 13.2889 44.7988 13.0969 44.8867C12.9048 44.9746 12.7616 45.0934 12.6672 45.2432C12.5728 45.3929 12.5256 45.5622 12.5256 45.751C12.5256 45.8844 12.5565 46.0065 12.6183 46.1172C12.6802 46.2246 12.7746 46.3255 12.9016 46.4199C13.0285 46.5111 13.188 46.5973 13.3801 46.6787C13.5721 46.7601 13.7984 46.8382 14.0588 46.9131C14.4527 47.0303 14.7961 47.1605 15.0891 47.3037C15.382 47.4437 15.6262 47.6032 15.8215 47.7822C16.0168 47.9613 16.1633 48.1647 16.2609 48.3926C16.3586 48.6172 16.4074 48.8727 16.4074 49.1592C16.4074 49.4587 16.3472 49.7288 16.2267 49.9697C16.1063 50.2074 15.9338 50.4108 15.7092 50.5801C15.4878 50.7461 15.2209 50.8747 14.9084 50.9658C14.5991 51.0537 14.2541 51.0977 13.8732 51.0977C13.5314 51.0977 13.1945 51.0521 12.8625 50.9609C12.5337 50.8698 12.2342 50.7314 11.9641 50.5459C11.6939 50.3571 11.479 50.1227 11.3195 49.8428C11.16 49.5596 11.0803 49.2292 11.0803 48.8516H12.3058C12.3058 49.0827 12.3449 49.2796 12.423 49.4424C12.5044 49.6051 12.6167 49.7386 12.7599 49.8428C12.9032 49.9437 13.0692 50.0186 13.258 50.0674C13.4501 50.1162 13.6551 50.1406 13.8732 50.1406C14.1597 50.1406 14.3989 50.0999 14.591 50.0186C14.7863 49.9372 14.9328 49.8232 15.0305 49.6768C15.1281 49.5303 15.1769 49.361 15.1769 49.1689ZM18.5363 43.5V51H17.3644V43.5H18.5363ZM18.3312 48.1631L17.9504 48.1582C17.9536 47.7936 18.0041 47.4567 18.1017 47.1475C18.2027 46.8382 18.3426 46.5697 18.5217 46.3418C18.704 46.1107 18.9221 45.9333 19.176 45.8096C19.4299 45.6826 19.7114 45.6191 20.0207 45.6191C20.2811 45.6191 20.5155 45.6549 20.7238 45.7266C20.9354 45.7982 21.1177 45.9137 21.2707 46.0732C21.4237 46.2295 21.5392 46.4346 21.6174 46.6885C21.6988 46.9391 21.7394 47.2451 21.7394 47.6064V51H20.5578V47.5967C20.5578 47.3428 20.5204 47.141 20.4455 46.9912C20.3739 46.8415 20.2681 46.734 20.1281 46.6689C19.9881 46.6006 19.8172 46.5664 19.6154 46.5664C19.4038 46.5664 19.2167 46.6087 19.0539 46.6934C18.8944 46.778 18.7609 46.8936 18.6535 47.04C18.5461 47.1865 18.4647 47.3558 18.4094 47.5479C18.3573 47.7399 18.3312 47.945 18.3312 48.1631ZM25.9094 49.9404V47.4209C25.9094 47.2321 25.8752 47.0693 25.8068 46.9326C25.7385 46.7959 25.6343 46.6901 25.4943 46.6152C25.3576 46.5404 25.1851 46.5029 24.9767 46.5029C24.7847 46.5029 24.6187 46.5355 24.4787 46.6006C24.3387 46.6657 24.2297 46.7536 24.1516 46.8643C24.0734 46.9749 24.0344 47.1003 24.0344 47.2402H22.8625C22.8625 47.0319 22.9129 46.8301 23.0139 46.6348C23.1148 46.4395 23.2613 46.2653 23.4533 46.1123C23.6454 45.9593 23.8749 45.8389 24.1418 45.751C24.4087 45.6631 24.7082 45.6191 25.0402 45.6191C25.4374 45.6191 25.7889 45.6859 26.0949 45.8193C26.4042 45.9528 26.6467 46.1546 26.8224 46.4248C27.0015 46.6917 27.091 47.027 27.091 47.4307V49.7793C27.091 50.0202 27.1073 50.2367 27.1398 50.4287C27.1756 50.6175 27.2261 50.7819 27.2912 50.9219V51H26.0851C26.0298 50.873 25.9859 50.7119 25.9533 50.5166C25.924 50.318 25.9094 50.126 25.9094 49.9404ZM26.0803 47.7871L26.09 48.5146H25.2453C25.0272 48.5146 24.8351 48.5358 24.6691 48.5781C24.5031 48.6172 24.3648 48.6758 24.2541 48.7539C24.1434 48.832 24.0604 48.9264 24.0051 49.0371C23.9497 49.1478 23.9221 49.2731 23.9221 49.4131C23.9221 49.5531 23.9546 49.6816 24.0197 49.7988C24.0848 49.9128 24.1792 50.0023 24.3029 50.0674C24.4299 50.1325 24.5829 50.165 24.7619 50.165C25.0028 50.165 25.2127 50.1162 25.3918 50.0186C25.5741 49.9176 25.7173 49.7956 25.8215 49.6523C25.9256 49.5059 25.981 49.3675 25.9875 49.2373L26.3683 49.7598C26.3293 49.8932 26.2626 50.0365 26.1682 50.1895C26.0738 50.3424 25.9501 50.4889 25.7971 50.6289C25.6473 50.7656 25.4667 50.8779 25.2551 50.9658C25.0467 51.0537 24.8058 51.0977 24.5324 51.0977C24.1874 51.0977 23.8797 51.0293 23.6096 50.8926C23.3394 50.7526 23.1278 50.5654 22.9748 50.3311C22.8218 50.0934 22.7453 49.8249 22.7453 49.5254C22.7453 49.2454 22.7974 48.998 22.9016 48.7832C23.009 48.5651 23.1652 48.3828 23.3703 48.2363C23.5786 48.0898 23.8325 47.9792 24.132 47.9043C24.4315 47.8262 24.7733 47.7871 25.1574 47.7871H26.0803ZM29.5031 46.7227V51H28.3264V45.7168H29.4494L29.5031 46.7227ZM31.1193 45.6826L31.1096 46.7764C31.0379 46.7633 30.9598 46.7536 30.8752 46.7471C30.7938 46.7406 30.7124 46.7373 30.631 46.7373C30.4292 46.7373 30.2518 46.7666 30.0988 46.8252C29.9458 46.8805 29.8172 46.9619 29.7131 47.0693C29.6122 47.1735 29.534 47.3005 29.4787 47.4502C29.4234 47.5999 29.3908 47.7676 29.381 47.9531L29.1125 47.9727C29.1125 47.6406 29.145 47.333 29.2101 47.0498C29.2752 46.7666 29.3729 46.5176 29.5031 46.3027C29.6366 46.0879 29.8026 45.9202 30.0012 45.7998C30.203 45.6794 30.4357 45.6191 30.6994 45.6191C30.771 45.6191 30.8475 45.6257 30.9289 45.6387C31.0135 45.6517 31.077 45.6663 31.1193 45.6826ZM34.0881 51.0977C33.6974 51.0977 33.3443 51.0342 33.0285 50.9072C32.716 50.777 32.4491 50.5964 32.2277 50.3652C32.0096 50.1341 31.842 49.8623 31.7248 49.5498C31.6076 49.2373 31.549 48.9004 31.549 48.5391V48.3438C31.549 47.9303 31.6092 47.556 31.7297 47.2207C31.8501 46.8854 32.0178 46.599 32.2326 46.3613C32.4474 46.1204 32.7014 45.9365 32.9943 45.8096C33.2873 45.6826 33.6047 45.6191 33.9465 45.6191C34.3241 45.6191 34.6545 45.6826 34.9377 45.8096C35.2209 45.9365 35.4553 46.1156 35.6408 46.3467C35.8296 46.5745 35.9696 46.8464 36.0607 47.1621C36.1551 47.4779 36.2023 47.8262 36.2023 48.207V48.71H32.1203V47.8652H35.0402V47.7725C35.0337 47.5609 34.9914 47.3623 34.9133 47.1768C34.8384 46.9912 34.7228 46.8415 34.5666 46.7275C34.4103 46.6136 34.202 46.5566 33.9416 46.5566C33.7463 46.5566 33.5721 46.599 33.4191 46.6836C33.2694 46.765 33.1441 46.8838 33.0432 47.04C32.9422 47.1963 32.8641 47.3851 32.8088 47.6064C32.7567 47.8245 32.7307 48.0703 32.7307 48.3438V48.5391C32.7307 48.7702 32.7616 48.985 32.8234 49.1836C32.8885 49.3789 32.9829 49.5498 33.1066 49.6963C33.2303 49.8428 33.3801 49.9583 33.5558 50.043C33.7316 50.1243 33.9318 50.165 34.1564 50.165C34.4396 50.165 34.6919 50.1081 34.9133 49.9941C35.1346 49.8802 35.3267 49.7191 35.4894 49.5107L36.1096 50.1113C35.9956 50.2773 35.8475 50.4368 35.6652 50.5898C35.4829 50.7396 35.2599 50.8617 34.9963 50.9561C34.7359 51.0505 34.4331 51.0977 34.0881 51.0977ZM40.8264 47.1328L42.0519 46.3076C42.257 46.1709 42.4035 46.0374 42.4914 45.9072C42.5793 45.7738 42.6232 45.6077 42.6232 45.4092C42.6232 45.2399 42.5581 45.0837 42.4279 44.9404C42.2977 44.7972 42.1138 44.7256 41.8762 44.7256C41.7101 44.7256 41.5702 44.7646 41.4562 44.8428C41.3423 44.9176 41.256 45.0186 41.1974 45.1455C41.1421 45.2692 41.1144 45.4076 41.1144 45.5605C41.1144 45.707 41.1519 45.8584 41.2267 46.0146C41.3016 46.1676 41.4042 46.3288 41.5344 46.498C41.6646 46.6641 41.8111 46.8431 41.9738 47.0352L45.3332 51H43.9709L41.2267 47.7725C40.9891 47.486 40.7792 47.224 40.5969 46.9863C40.4146 46.7454 40.273 46.5127 40.1721 46.2881C40.0711 46.0602 40.0207 45.8258 40.0207 45.585C40.0207 45.2139 40.0972 44.8949 40.2502 44.6279C40.4032 44.361 40.6196 44.1559 40.8996 44.0127C41.1795 43.8662 41.5067 43.793 41.881 43.793C42.2424 43.793 42.5532 43.8662 42.8137 44.0127C43.0773 44.1559 43.2792 44.3464 43.4191 44.584C43.5624 44.8216 43.634 45.082 43.634 45.3652C43.634 45.5898 43.5933 45.7949 43.5119 45.9805C43.4305 46.166 43.3182 46.3353 43.175 46.4883C43.0318 46.6413 42.8657 46.7861 42.6769 46.9229L41.1877 48.0068C41.0152 48.1468 40.8866 48.2819 40.8019 48.4121C40.7206 48.5391 40.6668 48.6562 40.6408 48.7637C40.6148 48.8711 40.6017 48.9655 40.6017 49.0469C40.6017 49.2552 40.6457 49.444 40.7336 49.6133C40.8247 49.7826 40.9566 49.9176 41.1291 50.0186C41.3049 50.1162 41.5181 50.165 41.7687 50.165C42.0389 50.165 42.301 50.1048 42.5549 49.9844C42.8088 49.8607 43.0366 49.6865 43.2385 49.4619C43.4403 49.2373 43.5998 48.9688 43.717 48.6562C43.8374 48.3438 43.8976 47.9971 43.8976 47.6162H44.9133C44.9133 47.9613 44.8791 48.2884 44.8107 48.5977C44.7456 48.9069 44.6398 49.1934 44.4933 49.457C44.3501 49.7207 44.1613 49.9567 43.9269 50.165C43.9042 50.1878 43.8781 50.2171 43.8488 50.2529C43.8228 50.2855 43.7967 50.3132 43.7707 50.3359C43.4907 50.5931 43.1766 50.7852 42.8283 50.9121C42.4833 51.0358 42.1154 51.0977 41.7248 51.0977C41.2528 51.0977 40.8443 51.0114 40.4992 50.8389C40.1542 50.6663 39.8872 50.4287 39.6984 50.126C39.5129 49.8232 39.4201 49.4766 39.4201 49.0859C39.4201 48.7962 39.4803 48.5423 39.6008 48.3242C39.7212 48.1029 39.8856 47.8978 40.0939 47.709C40.3055 47.5169 40.5497 47.3249 40.8264 47.1328ZM16.8029 55.8906H19.3176C19.8579 55.8906 20.3185 55.972 20.6994 56.1348C21.0803 56.2975 21.3716 56.5384 21.5734 56.8574C21.7785 57.1732 21.881 57.5638 21.881 58.0293C21.881 58.3841 21.8159 58.6966 21.6857 58.9668C21.5555 59.237 21.3716 59.4648 21.134 59.6504C20.8963 59.8327 20.6131 59.9743 20.2844 60.0752L19.9133 60.2559H17.6525L17.6428 59.2842H19.3371C19.6301 59.2842 19.8742 59.2321 20.0695 59.1279C20.2648 59.0238 20.4113 58.8822 20.509 58.7031C20.6099 58.5208 20.6603 58.3158 20.6603 58.0879C20.6603 57.8405 20.6115 57.6257 20.5139 57.4434C20.4195 57.2578 20.273 57.1162 20.0744 57.0186C19.8758 56.9176 19.6236 56.8672 19.3176 56.8672H18.0285V63H16.8029V55.8906ZM20.8605 63L19.1906 59.8066L20.4748 59.8018L22.1691 62.9365V63H20.8605ZM25.3137 63.0977C24.923 63.0977 24.5698 63.0342 24.2541 62.9072C23.9416 62.777 23.6747 62.5964 23.4533 62.3652C23.2352 62.1341 23.0676 61.8623 22.9504 61.5498C22.8332 61.2373 22.7746 60.9004 22.7746 60.5391V60.3438C22.7746 59.9303 22.8348 59.556 22.9553 59.2207C23.0757 58.8854 23.2433 58.599 23.4582 58.3613C23.673 58.1204 23.9269 57.9365 24.2199 57.8096C24.5129 57.6826 24.8303 57.6191 25.1721 57.6191C25.5497 57.6191 25.8801 57.6826 26.1633 57.8096C26.4465 57.9365 26.6808 58.1156 26.8664 58.3467C27.0552 58.5745 27.1952 58.8464 27.2863 59.1621C27.3807 59.4779 27.4279 59.8262 27.4279 60.207V60.71H23.3459V59.8652H26.2658V59.7725C26.2593 59.5609 26.217 59.3623 26.1389 59.1768C26.064 58.9912 25.9484 58.8415 25.7922 58.7275C25.6359 58.6136 25.4276 58.5566 25.1672 58.5566C24.9719 58.5566 24.7977 58.599 24.6447 58.6836C24.495 58.765 24.3696 58.8838 24.2687 59.04C24.1678 59.1963 24.0897 59.3851 24.0344 59.6064C23.9823 59.8245 23.9562 60.0703 23.9562 60.3438V60.5391C23.9562 60.7702 23.9872 60.985 24.049 61.1836C24.1141 61.3789 24.2085 61.5498 24.3322 61.6963C24.4559 61.8428 24.6057 61.9583 24.7814 62.043C24.9572 62.1243 25.1574 62.165 25.382 62.165C25.6652 62.165 25.9175 62.1081 26.1389 61.9941C26.3602 61.8802 26.5523 61.7191 26.715 61.5107L27.3351 62.1113C27.2212 62.2773 27.0731 62.4368 26.8908 62.5898C26.7085 62.7396 26.4855 62.8617 26.2219 62.9561C25.9614 63.0505 25.6587 63.0977 25.3137 63.0977ZM29.9377 63H28.7609V57.209C28.7609 56.8151 28.8342 56.4847 28.9807 56.2178C29.1304 55.9476 29.3436 55.7441 29.6203 55.6074C29.897 55.4674 30.2241 55.3975 30.6017 55.3975C30.7189 55.3975 30.8345 55.4056 30.9484 55.4219C31.0624 55.4349 31.173 55.4561 31.2805 55.4854L31.2512 56.3936C31.1861 56.3773 31.1144 56.3659 31.0363 56.3594C30.9614 56.3529 30.8801 56.3496 30.7922 56.3496C30.6131 56.3496 30.4585 56.3838 30.3283 56.4521C30.2014 56.5173 30.1037 56.6133 30.0353 56.7402C29.9702 56.8672 29.9377 57.0234 29.9377 57.209V63ZM31.0266 57.7168V58.5762H27.9504V57.7168H31.0266ZM34.093 63.0977C33.7023 63.0977 33.3491 63.0342 33.0334 62.9072C32.7209 62.777 32.454 62.5964 32.2326 62.3652C32.0145 62.1341 31.8469 61.8623 31.7297 61.5498C31.6125 61.2373 31.5539 60.9004 31.5539 60.5391V60.3438C31.5539 59.9303 31.6141 59.556 31.7346 59.2207C31.855 58.8854 32.0226 58.599 32.2375 58.3613C32.4523 58.1204 32.7062 57.9365 32.9992 57.8096C33.2922 57.6826 33.6096 57.6191 33.9514 57.6191C34.329 57.6191 34.6594 57.6826 34.9426 57.8096C35.2258 57.9365 35.4601 58.1156 35.6457 58.3467C35.8345 58.5745 35.9745 58.8464 36.0656 59.1621C36.16 59.4779 36.2072 59.8262 36.2072 60.207V60.71H32.1252V59.8652H35.0451V59.7725C35.0386 59.5609 34.9963 59.3623 34.9182 59.1768C34.8433 58.9912 34.7277 58.8415 34.5715 58.7275C34.4152 58.6136 34.2069 58.5566 33.9465 58.5566C33.7512 58.5566 33.577 58.599 33.424 58.6836C33.2743 58.765 33.1489 58.8838 33.048 59.04C32.9471 59.1963 32.869 59.3851 32.8137 59.6064C32.7616 59.8245 32.7355 60.0703 32.7355 60.3438V60.5391C32.7355 60.7702 32.7665 60.985 32.8283 61.1836C32.8934 61.3789 32.9878 61.5498 33.1115 61.6963C33.2352 61.8428 33.3849 61.9583 33.5607 62.043C33.7365 62.1243 33.9367 62.165 34.1613 62.165C34.4445 62.165 34.6968 62.1081 34.9182 61.9941C35.1395 61.8802 35.3316 61.7191 35.4943 61.5107L36.1144 62.1113C36.0005 62.2773 35.8524 62.4368 35.6701 62.5898C35.4878 62.7396 35.2648 62.8617 35.0012 62.9561C34.7407 63.0505 34.438 63.0977 34.093 63.0977ZM38.3068 58.7227V63H37.1301V57.7168H38.2531L38.3068 58.7227ZM39.923 57.6826L39.9133 58.7764C39.8417 58.7633 39.7635 58.7536 39.6789 58.7471C39.5975 58.7406 39.5161 58.7373 39.4348 58.7373C39.2329 58.7373 39.0555 58.7666 38.9025 58.8252C38.7495 58.8805 38.621 58.9619 38.5168 59.0693C38.4159 59.1735 38.3377 59.3005 38.2824 59.4502C38.2271 59.5999 38.1945 59.7676 38.1848 59.9531L37.9162 59.9727C37.9162 59.6406 37.9488 59.333 38.0139 59.0498C38.079 58.7666 38.1766 58.5176 38.3068 58.3027C38.4403 58.0879 38.6063 57.9202 38.8049 57.7998C39.0067 57.6794 39.2394 57.6191 39.5031 57.6191C39.5747 57.6191 39.6512 57.6257 39.7326 57.6387C39.8172 57.6517 39.8807 57.6663 39.923 57.6826Z" fill="#1B2559"/>
<path d="M32.4874 11.4566C32.4273 11.4574 32.369 11.4693 32.3141 11.491L19.4485 16.63C19.3939 16.6507 19.3444 16.6814 19.3028 16.7203C19.0654 16.9407 18.9566 17.2081 18.9359 17.4989C18.9258 17.6448 18.9394 17.8014 19.0329 17.9654C19.1264 18.1298 19.3353 18.2823 19.5547 18.3167L24.1942 19.0347C25.5449 17.8808 28.3667 15.7067 28.3667 15.7067C28.3667 15.7067 25.8846 18.2018 24.8121 19.5123L25.605 23.9533C25.6204 24.042 25.6669 24.125 25.7345 24.188C25.9447 24.3817 26.2284 24.4904 26.524 24.4904C26.8196 24.4904 27.1033 24.3817 27.3135 24.188C27.3565 24.1495 27.3898 24.1033 27.414 24.0522L32.9294 12.0634C32.9605 11.9963 32.9729 11.923 32.9655 11.8502C32.9581 11.7774 32.9312 11.7075 32.8871 11.647C32.8431 11.5865 32.7833 11.5374 32.7135 11.5041C32.6436 11.4708 32.5659 11.4545 32.4874 11.4566Z" fill="#7A5AF8"/>
<path d="M51 21C51 32.598 40.9264 42 28.5 42C16.0736 42 6 32.598 6 21C6 9.40202 16.0736 0 28.5 0C40.9264 0 51 9.40202 51 21Z" fill="#7A5AF8" fill-opacity="0.1"/>
</svg>
