<svg width="24" height="25" viewBox="0 0 24 25" fill="none" xmlns="http://www.w3.org/2000/svg">
<path d="M16.0574 20.3459H7.40082C5.5232 20.3459 4 18.8227 4 16.9451V11.8703C4 9.99269 5.5232 8.46948 7.40082 8.46948H16.0574C17.9351 8.46948 19.4583 9.99269 19.4583 11.8703V12.9562C19.4583 13.2653 19.2019 13.5217 18.8927 13.5217H17.3695C17.1056 13.5217 16.8643 13.6197 16.6909 13.8007L16.6833 13.8082C16.4722 14.0118 16.3741 14.2908 16.3968 14.5774C16.442 15.075 16.9171 15.4747 17.46 15.4747H18.8927C19.2019 15.4747 19.4583 15.7311 19.4583 16.0402V16.9376C19.4583 18.8227 17.9351 20.3459 16.0574 20.3459ZM7.40082 9.60057C6.14908 9.60057 5.13109 10.6186 5.13109 11.8703V16.9451C5.13109 18.1969 6.14908 19.2149 7.40082 19.2149H16.0574C17.3092 19.2149 18.3272 18.1969 18.3272 16.9451V16.6133H17.46C16.3214 16.6133 15.3562 15.7688 15.2657 14.6829C15.2054 14.0646 15.4316 13.4538 15.884 13.0089C16.2761 12.6093 16.804 12.3906 17.3695 12.3906H18.3272V11.8703C18.3272 10.6186 17.3092 9.60057 16.0574 9.60057H7.40082Z" fill="#7A5AF8"/>
<path d="M4.56555 13.1145C4.25638 13.1145 4 12.8582 4 12.549V9.10297C4 7.97942 4.70882 6.96139 5.75696 6.56174L11.7442 4.29956C12.3625 4.0658 13.0487 4.14878 13.5841 4.52581C14.127 4.90284 14.4438 5.51363 14.4438 6.16966V9.03508C14.4438 9.34425 14.1874 9.60063 13.8782 9.60063C13.569 9.60063 13.3127 9.34425 13.3127 9.03508V6.16966C13.3127 5.88312 13.1769 5.61919 12.9356 5.45329C12.6943 5.2874 12.4078 5.24969 12.1363 5.35526L6.14908 7.61745C5.53829 7.8512 5.12355 8.44694 5.12355 9.10297V12.549C5.13109 12.8657 4.87471 13.1145 4.56555 13.1145Z" fill="#7A5AF8"/>
<path d="M17.46 16.6134C16.3213 16.6134 15.3561 15.7688 15.2656 14.683C15.2053 14.0571 15.4315 13.4463 15.884 13.0014C16.2685 12.6093 16.7964 12.3906 17.3619 12.3906H18.9304C19.6769 12.4132 20.25 13.0014 20.25 13.7253V15.2787C20.25 16.0026 19.6769 16.5907 18.953 16.6134H17.46ZM18.9153 13.5217H17.3695C17.1055 13.5217 16.8642 13.6197 16.6908 13.8007C16.4721 14.0119 16.3666 14.2984 16.3967 14.5849C16.442 15.0826 16.917 15.4823 17.46 15.4823H18.9379C19.0359 15.4823 19.1264 15.3918 19.1264 15.2787V13.7253C19.1264 13.6122 19.0359 13.5293 18.9153 13.5217Z" fill="#7A5AF8"/>
<path d="M13.2372 12.8053H7.9588C7.64963 12.8053 7.39325 12.549 7.39325 12.2398C7.39325 11.9306 7.64963 11.6743 7.9588 11.6743H13.2372C13.5464 11.6743 13.8028 11.9306 13.8028 12.2398C13.8028 12.549 13.5464 12.8053 13.2372 12.8053Z" fill="#7A5AF8"/>
</svg>
