<svg width="279" height="16" viewBox="0 0 279 16" fill="none" xmlns="http://www.w3.org/2000/svg">
<rect y="10" width="114" height="2" fill="#9A97A5" fill-opacity="0.4"/>
<rect x="165" y="10" width="114" height="2" fill="#9A97A5" fill-opacity="0.4"/>
<path d="M130.492 9.37695V9.2334C130.492 8.69108 130.57 8.19206 130.725 7.73633C130.88 7.27604 131.105 6.87728 131.401 6.54004C131.698 6.2028 132.06 5.94076 132.488 5.75391C132.917 5.5625 133.404 5.4668 133.951 5.4668C134.507 5.4668 134.999 5.5625 135.428 5.75391C135.861 5.94076 136.225 6.2028 136.521 6.54004C136.818 6.87728 137.043 7.27604 137.198 7.73633C137.353 8.19206 137.431 8.69108 137.431 9.2334V9.37695C137.431 9.91471 137.353 10.4137 137.198 10.874C137.043 11.3298 136.818 11.7285 136.521 12.0703C136.225 12.4076 135.863 12.6696 135.435 12.8564C135.006 13.0433 134.516 13.1367 133.965 13.1367C133.418 13.1367 132.928 13.0433 132.495 12.8564C132.062 12.6696 131.698 12.4076 131.401 12.0703C131.105 11.7285 130.88 11.3298 130.725 10.874C130.57 10.4137 130.492 9.91471 130.492 9.37695ZM132.297 9.2334V9.37695C132.297 9.70052 132.329 10.0036 132.393 10.2861C132.456 10.5687 132.554 10.8171 132.687 11.0312C132.819 11.2454 132.99 11.4141 133.199 11.5371C133.413 11.6556 133.669 11.7148 133.965 11.7148C134.257 11.7148 134.507 11.6556 134.717 11.5371C134.926 11.4141 135.097 11.2454 135.229 11.0312C135.366 10.8171 135.466 10.5687 135.53 10.2861C135.594 10.0036 135.626 9.70052 135.626 9.37695V9.2334C135.626 8.91439 135.594 8.61589 135.53 8.33789C135.466 8.05534 135.366 7.80697 135.229 7.59277C135.097 7.37402 134.924 7.20312 134.71 7.08008C134.5 6.95247 134.247 6.88867 133.951 6.88867C133.66 6.88867 133.409 6.95247 133.199 7.08008C132.99 7.20312 132.819 7.37402 132.687 7.59277C132.554 7.80697 132.456 8.05534 132.393 8.33789C132.329 8.61589 132.297 8.91439 132.297 9.2334ZM140.548 7.11426V13H138.743V5.60352H140.452L140.548 7.11426ZM142.797 5.55566L142.77 7.2373C142.669 7.21908 142.555 7.2054 142.428 7.19629C142.305 7.18717 142.188 7.18262 142.079 7.18262C141.801 7.18262 141.557 7.22135 141.348 7.29883C141.138 7.37174 140.963 7.47884 140.821 7.62012C140.685 7.76139 140.58 7.93457 140.507 8.13965C140.434 8.34017 140.393 8.56803 140.384 8.82324L139.994 8.77539C139.994 8.30599 140.042 7.87077 140.138 7.46973C140.233 7.06868 140.372 6.71777 140.555 6.41699C140.737 6.11621 140.965 5.88379 141.238 5.71973C141.516 5.55111 141.835 5.4668 142.195 5.4668C142.296 5.4668 142.403 5.47591 142.517 5.49414C142.635 5.50781 142.729 5.52832 142.797 5.55566Z" fill="#929292" fill-opacity="0.8"/>
</svg>
