<svg width="236" height="23" viewBox="0 0 236 23" fill="none" xmlns="http://www.w3.org/2000/svg">
<g clip-path="url(#clip0_29_7530)">
<path d="M226.633 18.9276H226.644L226.953 19.7369L228.193 22.8813H228.148L228.156 22.9045H236L226.164 0.0698242H218.706L208.867 22.9045H216.582L216.8 22.3359L222.316 7.61756L226.633 18.9276Z" fill="black"/>
<path d="M0 20.6306L2.44115 15.27C4.72111 16.5406 7.27243 17.2267 9.87322 17.2686C12.0285 17.2686 12.7975 16.8306 12.7975 16.0822C12.7975 13.3294 0.357311 15.5514 0.357311 7.38001C0.357311 3.31897 3.86181 0.00341797 10.8365 0.00341797C13.8608 0.00341797 16.9766 0.62708 19.3234 1.90921L17.0366 7.25528C14.8184 6.1617 12.7289 5.62796 10.7679 5.62796C8.54974 5.62796 7.8437 6.25452 7.8437 7.00582C7.8437 9.61649 20.2839 7.44093 20.2839 15.5079C20.2839 19.508 16.7793 22.8845 9.80462 22.8845C6.04285 22.8816 2.24963 21.9736 0 20.6306Z" fill="black"/>
<path d="M44.7125 0.0698242V22.9045H37.1261V14.4923H30.1171V22.9045H22.5249V0.0698242H30.1113V8.16H37.1204V0.0698242H44.7125Z" fill="black"/>
<path d="M48.3745 0.0698242H55.9695V22.9045H48.3745V0.0698242Z" fill="black"/>
<path d="M80.7096 8.68213C80.7096 13.9673 76.7249 17.2944 70.4562 17.2944H67.209V22.9045H59.6226V0.0698242H70.4562C76.7249 0.0698242 80.7096 3.39698 80.7096 8.68213ZM73.0603 8.68213C73.0603 7.01711 72.0627 6.00766 69.9731 6.00766H67.209V11.3566H69.976C72.0627 11.3566 73.0603 10.3385 73.0603 8.68213Z" fill="black"/>
<path d="M103.274 22.9045L103.209 12.4995L98.3236 20.8508H94.982L90.094 12.8563V22.9045H83.1821V0.0698242H89.4136L96.7428 12.2384L103.889 0.0698242H110.123L110.189 22.9045H103.274Z" fill="black"/>
<path d="M161.933 0.0698242V22.9045H155.696L147.155 12.5314V22.9045H139.754V0.0698242H145.989L154.541 10.4429V0.0698242H161.933Z" fill="black"/>
<path d="M170.48 6.03956H163.892V0.0698242H184.659V6.03956H178.067V22.9045H170.48V6.03956Z" fill="black"/>
<path d="M196.261 17.1639H194.203V22.9045H186.617V0.0698242H197.465C203.733 0.0698242 207.718 3.39698 207.718 8.68213C207.718 11.9774 206.174 14.4546 203.476 15.8586L208.201 22.9045H200.1L196.261 17.1639ZM196.967 6.00766H194.203V11.3566H196.967C199.057 11.3566 200.054 10.3472 200.054 8.68213C200.054 7.01711 199.057 6.00766 196.967 6.00766Z" fill="black"/>
<path d="M129.17 18.9276H129.181L129.49 19.7369L130.731 22.8813H130.682L130.691 22.9045H138.534L128.698 0.0698242H121.24L111.404 22.9045H119.119L119.337 22.3359L124.853 7.61756L129.17 18.9276Z" fill="black"/>
<path d="M96.8001 7.65521L101.434 0.0639648H92.0693L96.8001 7.65521Z" fill="#D5247B"/>
<path d="M124.853 13.2505L121.715 22.9999H128.004L124.853 13.2505Z" fill="#D5247B"/>
</g>
<defs>
<clipPath id="clip0_29_7530">
<rect width="236" height="23" fill="white"/>
</clipPath>
</defs>
</svg>
