<svg width="116" height="24" viewBox="0 0 116 24" fill="none" xmlns="http://www.w3.org/2000/svg">
<rect width="116" height="24" rx="4" fill="#744ED5" fill-opacity="0.1"/>
<path d="M16.3916 7.89062V15H15.0439L12.0215 10.0684V15H10.6787V7.89062H12.0215L15.0537 12.8271V7.89062H16.3916ZM20.0342 15.0977C19.6338 15.0977 19.2741 15.0326 18.9551 14.9023C18.6361 14.7721 18.3643 14.5915 18.1396 14.3604C17.9183 14.126 17.7474 13.8542 17.627 13.5449C17.5098 13.2324 17.4512 12.8971 17.4512 12.5391V12.3438C17.4512 11.9368 17.5098 11.5674 17.627 11.2354C17.7441 10.9001 17.9102 10.612 18.125 10.3711C18.3398 10.1302 18.597 9.94466 18.8965 9.81445C19.196 9.68424 19.5264 9.61914 19.8877 9.61914C20.262 9.61914 20.5924 9.68262 20.8789 9.80957C21.1654 9.93327 21.4046 10.109 21.5967 10.3369C21.7887 10.5648 21.9336 10.8382 22.0312 11.1572C22.1289 11.473 22.1777 11.8229 22.1777 12.207V12.749H18.0371V11.8604H20.9082V11.7627C20.9017 11.5576 20.8626 11.3704 20.791 11.2012C20.7194 11.0286 20.6087 10.8919 20.459 10.791C20.3092 10.6868 20.1156 10.6348 19.8779 10.6348C19.6859 10.6348 19.5182 10.6771 19.375 10.7617C19.235 10.8431 19.1178 10.9603 19.0234 11.1133C18.9323 11.263 18.8639 11.4421 18.8184 11.6504C18.7728 11.8587 18.75 12.0898 18.75 12.3438V12.5391C18.75 12.7604 18.7793 12.9655 18.8379 13.1543C18.8997 13.3431 18.9893 13.5075 19.1064 13.6475C19.2269 13.7842 19.3701 13.8916 19.5361 13.9697C19.7054 14.0446 19.8975 14.082 20.1123 14.082C20.3825 14.082 20.6266 14.0299 20.8447 13.9258C21.0661 13.8184 21.2581 13.6605 21.4209 13.4521L22.0703 14.126C21.9596 14.2887 21.8099 14.445 21.6211 14.5947C21.4355 14.7445 21.2109 14.8665 20.9473 14.9609C20.6836 15.0521 20.3792 15.0977 20.0342 15.0977ZM24.5117 13.7305L25.6689 9.7168H26.4893L26.2451 11.1035L25.0781 15H24.3701L24.5117 13.7305ZM23.8721 9.7168L24.7412 13.7402L24.8193 15H24.0039L22.6172 9.7168H23.8721ZM27.5635 13.6816L28.4131 9.7168H29.6631L28.2861 15H27.4707L27.5635 13.6816ZM26.6162 9.7168L27.7637 13.6914L27.915 15H27.207L26.0303 11.1035L25.791 9.7168H26.6162ZM38.7695 11.2646V11.6309C38.7695 12.168 38.6979 12.6514 38.5547 13.0811C38.4115 13.5075 38.208 13.8704 37.9443 14.1699C37.6807 14.4694 37.3665 14.6989 37.002 14.8584C36.6374 15.0179 36.2321 15.0977 35.7861 15.0977C35.3467 15.0977 34.943 15.0179 34.5752 14.8584C34.2106 14.6989 33.8949 14.4694 33.6279 14.1699C33.361 13.8704 33.1543 13.5075 33.0078 13.0811C32.8613 12.6514 32.7881 12.168 32.7881 11.6309V11.2646C32.7881 10.7243 32.8613 10.2409 33.0078 9.81445C33.1543 9.38802 33.3594 9.02507 33.623 8.72559C33.8867 8.42285 34.2008 8.19173 34.5654 8.03223C34.9333 7.87272 35.3369 7.79297 35.7764 7.79297C36.2223 7.79297 36.6276 7.87272 36.9922 8.03223C37.3568 8.19173 37.6709 8.42285 37.9346 8.72559C38.2015 9.02507 38.4066 9.38802 38.5498 9.81445C38.6963 10.2409 38.7695 10.7243 38.7695 11.2646ZM37.4121 11.6309V11.2549C37.4121 10.8675 37.3763 10.5273 37.3047 10.2344C37.2331 9.93815 37.1273 9.68913 36.9873 9.4873C36.8473 9.28548 36.6748 9.13411 36.4697 9.0332C36.2646 8.92904 36.0335 8.87695 35.7764 8.87695C35.516 8.87695 35.2848 8.92904 35.083 9.0332C34.8844 9.13411 34.7152 9.28548 34.5752 9.4873C34.4352 9.68913 34.3278 9.93815 34.2529 10.2344C34.1813 10.5273 34.1455 10.8675 34.1455 11.2549V11.6309C34.1455 12.015 34.1813 12.3551 34.2529 12.6514C34.3278 12.9476 34.4352 13.1982 34.5752 13.4033C34.7184 13.6051 34.891 13.7581 35.0928 13.8623C35.2946 13.9665 35.5257 14.0186 35.7861 14.0186C36.0465 14.0186 36.2777 13.9665 36.4795 13.8623C36.6813 13.7581 36.8506 13.6051 36.9873 13.4033C37.1273 13.1982 37.2331 12.9476 37.3047 12.6514C37.3763 12.3551 37.4121 12.015 37.4121 11.6309ZM41.0986 10.7959V15H39.8096V9.7168H41.0303L41.0986 10.7959ZM42.7051 9.68262L42.6855 10.8838C42.6139 10.8708 42.5326 10.861 42.4414 10.8545C42.3535 10.848 42.2705 10.8447 42.1924 10.8447C41.9938 10.8447 41.8197 10.8724 41.6699 10.9277C41.5202 10.9798 41.3949 11.0563 41.2939 11.1572C41.1963 11.2581 41.1214 11.3818 41.0693 11.5283C41.0173 11.6715 40.988 11.8343 40.9814 12.0166L40.7031 11.9824C40.7031 11.6471 40.7373 11.3363 40.8057 11.0498C40.874 10.7633 40.9733 10.5127 41.1035 10.2979C41.2337 10.083 41.3965 9.91699 41.5918 9.7998C41.7904 9.67936 42.0182 9.61914 42.2754 9.61914C42.347 9.61914 42.4235 9.62565 42.5049 9.63867C42.5895 9.64844 42.6562 9.66309 42.7051 9.68262ZM46.4844 13.877V7.5H47.7832V15H46.6113L46.4844 13.877ZM43.0908 12.4219V12.3193C43.0908 11.9157 43.1364 11.5495 43.2275 11.2207C43.3219 10.8887 43.4587 10.6038 43.6377 10.3662C43.8167 10.1286 44.0332 9.94466 44.2871 9.81445C44.5443 9.68424 44.8356 9.61914 45.1611 9.61914C45.4769 9.61914 45.752 9.68262 45.9863 9.80957C46.224 9.93652 46.4258 10.1172 46.5918 10.3516C46.7611 10.5859 46.8962 10.8643 46.9971 11.1865C47.098 11.5055 47.1712 11.8571 47.2168 12.2412V12.5195C47.1712 12.8939 47.098 13.2373 46.9971 13.5498C46.8962 13.8623 46.7611 14.1357 46.5918 14.3701C46.4258 14.6012 46.224 14.7803 45.9863 14.9072C45.7487 15.0342 45.4704 15.0977 45.1514 15.0977C44.8291 15.0977 44.5394 15.0309 44.2822 14.8975C44.0283 14.764 43.8118 14.5768 43.6328 14.3359C43.457 14.0951 43.3219 13.8118 43.2275 13.4863C43.1364 13.1608 43.0908 12.806 43.0908 12.4219ZM44.3848 12.3193V12.4219C44.3848 12.6497 44.4043 12.863 44.4434 13.0615C44.4824 13.2601 44.5459 13.4359 44.6338 13.5889C44.7217 13.7386 44.834 13.8558 44.9707 13.9404C45.1107 14.0251 45.2799 14.0674 45.4785 14.0674C45.7324 14.0674 45.9408 14.012 46.1035 13.9014C46.2695 13.7874 46.3981 13.6328 46.4893 13.4375C46.5804 13.2389 46.639 13.016 46.665 12.7686V12.002C46.652 11.8066 46.6178 11.626 46.5625 11.46C46.5104 11.2939 46.4355 11.1507 46.3379 11.0303C46.2435 10.9098 46.1263 10.8154 45.9863 10.7471C45.8464 10.6787 45.6803 10.6445 45.4883 10.6445C45.2897 10.6445 45.1204 10.6885 44.9805 10.7764C44.8405 10.861 44.7266 10.9798 44.6387 11.1328C44.5508 11.2858 44.4857 11.4632 44.4434 11.665C44.4043 11.8669 44.3848 12.085 44.3848 12.3193ZM51.3232 15.0977C50.9229 15.0977 50.5632 15.0326 50.2441 14.9023C49.9251 14.7721 49.6533 14.5915 49.4287 14.3604C49.2074 14.126 49.0365 13.8542 48.916 13.5449C48.7988 13.2324 48.7402 12.8971 48.7402 12.5391V12.3438C48.7402 11.9368 48.7988 11.5674 48.916 11.2354C49.0332 10.9001 49.1992 10.612 49.4141 10.3711C49.6289 10.1302 49.8861 9.94466 50.1855 9.81445C50.485 9.68424 50.8154 9.61914 51.1768 9.61914C51.5511 9.61914 51.8815 9.68262 52.168 9.80957C52.4544 9.93327 52.6937 10.109 52.8857 10.3369C53.0778 10.5648 53.2227 10.8382 53.3203 11.1572C53.418 11.473 53.4668 11.8229 53.4668 12.207V12.749H49.3262V11.8604H52.1973V11.7627C52.1908 11.5576 52.1517 11.3704 52.0801 11.2012C52.0085 11.0286 51.8978 10.8919 51.748 10.791C51.5983 10.6868 51.4046 10.6348 51.167 10.6348C50.9749 10.6348 50.8073 10.6771 50.6641 10.7617C50.5241 10.8431 50.4069 10.9603 50.3125 11.1133C50.2214 11.263 50.153 11.4421 50.1074 11.6504C50.0618 11.8587 50.0391 12.0898 50.0391 12.3438V12.5391C50.0391 12.7604 50.0684 12.9655 50.127 13.1543C50.1888 13.3431 50.2783 13.5075 50.3955 13.6475C50.516 13.7842 50.6592 13.8916 50.8252 13.9697C50.9945 14.0446 51.1865 14.082 51.4014 14.082C51.6715 14.082 51.9157 14.0299 52.1338 13.9258C52.3551 13.8184 52.5472 13.6605 52.71 13.4521L53.3594 14.126C53.2487 14.2887 53.099 14.445 52.9102 14.5947C52.7246 14.7445 52.5 14.8665 52.2363 14.9609C51.9727 15.0521 51.6683 15.0977 51.3232 15.0977ZM55.6201 10.7959V15H54.3311V9.7168H55.5518L55.6201 10.7959ZM57.2266 9.68262L57.207 10.8838C57.1354 10.8708 57.054 10.861 56.9629 10.8545C56.875 10.848 56.792 10.8447 56.7139 10.8447C56.5153 10.8447 56.3411 10.8724 56.1914 10.9277C56.0417 10.9798 55.9163 11.0563 55.8154 11.1572C55.7178 11.2581 55.6429 11.3818 55.5908 11.5283C55.5387 11.6715 55.5094 11.8343 55.5029 12.0166L55.2246 11.9824C55.2246 11.6471 55.2588 11.3363 55.3271 11.0498C55.3955 10.7633 55.4948 10.5127 55.625 10.2979C55.7552 10.083 55.918 9.91699 56.1133 9.7998C56.3118 9.67936 56.5397 9.61914 56.7969 9.61914C56.8685 9.61914 56.945 9.62565 57.0264 9.63867C57.111 9.64844 57.1777 9.66309 57.2266 9.68262ZM62.1143 15H60.8154V9.22852C60.8154 8.83138 60.8919 8.49772 61.0449 8.22754C61.1979 7.9541 61.416 7.7474 61.6992 7.60742C61.9824 7.46745 62.3161 7.39746 62.7002 7.39746C62.8271 7.39746 62.9476 7.4056 63.0615 7.42188C63.1787 7.43815 63.2943 7.46094 63.4082 7.49023L63.3838 8.47168C63.3219 8.4554 63.2536 8.44401 63.1787 8.4375C63.1071 8.43099 63.0273 8.42773 62.9395 8.42773C62.7637 8.42773 62.6139 8.45866 62.4902 8.52051C62.3665 8.58236 62.2721 8.6735 62.207 8.79395C62.1452 8.91113 62.1143 9.05599 62.1143 9.22852V15ZM63.1836 9.7168V10.6445H60.0195V9.7168H63.1836ZM63.75 12.4121V12.3096C63.75 11.9222 63.8053 11.5658 63.916 11.2402C64.0267 10.9115 64.1878 10.6266 64.3994 10.3857C64.611 10.1449 64.8698 9.95768 65.1758 9.82422C65.4818 9.6875 65.8301 9.61914 66.2207 9.61914C66.6178 9.61914 66.9694 9.6875 67.2754 9.82422C67.5846 9.95768 67.8451 10.1449 68.0566 10.3857C68.2682 10.6266 68.4294 10.9115 68.54 11.2402C68.6507 11.5658 68.7061 11.9222 68.7061 12.3096V12.4121C68.7061 12.7962 68.6507 13.1527 68.54 13.4814C68.4294 13.807 68.2682 14.0918 68.0566 14.3359C67.8451 14.5768 67.5863 14.764 67.2803 14.8975C66.9743 15.0309 66.6243 15.0977 66.2305 15.0977C65.8398 15.0977 65.4899 15.0309 65.1807 14.8975C64.8714 14.764 64.611 14.5768 64.3994 14.3359C64.1878 14.0918 64.0267 13.807 63.916 13.4814C63.8053 13.1527 63.75 12.7962 63.75 12.4121ZM65.0391 12.3096V12.4121C65.0391 12.6432 65.0618 12.8597 65.1074 13.0615C65.153 13.2633 65.223 13.4408 65.3174 13.5938C65.4118 13.7467 65.5339 13.8672 65.6836 13.9551C65.8366 14.0397 66.0189 14.082 66.2305 14.082C66.4388 14.082 66.6178 14.0397 66.7676 13.9551C66.9173 13.8672 67.0394 13.7467 67.1338 13.5938C67.2314 13.4408 67.3031 13.2633 67.3486 13.0615C67.3942 12.8597 67.417 12.6432 67.417 12.4121V12.3096C67.417 12.0817 67.3942 11.8685 67.3486 11.6699C67.3031 11.4681 67.2314 11.2907 67.1338 11.1377C67.0394 10.9814 66.9157 10.8594 66.7627 10.7715C66.613 10.6803 66.4323 10.6348 66.2207 10.6348C66.0124 10.6348 65.8333 10.6803 65.6836 10.7715C65.5339 10.8594 65.4118 10.9814 65.3174 11.1377C65.223 11.2907 65.153 11.4681 65.1074 11.6699C65.0618 11.8685 65.0391 12.0817 65.0391 12.3096ZM70.9326 10.7959V15H69.6436V9.7168H70.8643L70.9326 10.7959ZM72.5391 9.68262L72.5195 10.8838C72.4479 10.8708 72.3665 10.861 72.2754 10.8545C72.1875 10.848 72.1045 10.8447 72.0264 10.8447C71.8278 10.8447 71.6536 10.8724 71.5039 10.9277C71.3542 10.9798 71.2288 11.0563 71.1279 11.1572C71.0303 11.2581 70.9554 11.3818 70.9033 11.5283C70.8512 11.6715 70.8219 11.8343 70.8154 12.0166L70.5371 11.9824C70.5371 11.6471 70.5713 11.3363 70.6396 11.0498C70.708 10.7633 70.8073 10.5127 70.9375 10.2979C71.0677 10.083 71.2305 9.91699 71.4258 9.7998C71.6243 9.67936 71.8522 9.61914 72.1094 9.61914C72.181 9.61914 72.2575 9.62565 72.3389 9.63867C72.4235 9.64844 72.4902 9.66309 72.5391 9.68262ZM77.0264 10.7324V17.0312H75.7324V9.7168H76.9287L77.0264 10.7324ZM80.4199 12.3047V12.4072C80.4199 12.7913 80.3743 13.1478 80.2832 13.4766C80.1953 13.8021 80.0651 14.0869 79.8926 14.3311C79.7201 14.5719 79.5052 14.7607 79.248 14.8975C78.9941 15.0309 78.7012 15.0977 78.3691 15.0977C78.0436 15.0977 77.7604 15.0358 77.5195 14.9121C77.2786 14.7852 77.0752 14.6061 76.9092 14.375C76.7432 14.1439 76.6097 13.8753 76.5088 13.5693C76.4111 13.2601 76.3379 12.9232 76.2891 12.5586V12.2314C76.3379 11.8441 76.4111 11.4925 76.5088 11.1768C76.6097 10.8577 76.7432 10.5827 76.9092 10.3516C77.0752 10.1172 77.277 9.93652 77.5146 9.80957C77.7555 9.68262 78.0371 9.61914 78.3594 9.61914C78.6947 9.61914 78.9893 9.68262 79.2432 9.80957C79.5003 9.93652 79.7168 10.1188 79.8926 10.3564C80.0684 10.5941 80.2002 10.8773 80.2881 11.2061C80.376 11.5348 80.4199 11.901 80.4199 12.3047ZM79.126 12.4072V12.3047C79.126 12.0703 79.1048 11.8538 79.0625 11.6553C79.0202 11.4535 78.9551 11.2777 78.8672 11.1279C78.7793 10.9749 78.6654 10.8561 78.5254 10.7715C78.3854 10.6868 78.2161 10.6445 78.0176 10.6445C77.819 10.6445 77.6481 10.6771 77.5049 10.7422C77.3617 10.8073 77.2445 10.9001 77.1533 11.0205C77.0622 11.141 76.9906 11.2842 76.9385 11.4502C76.8896 11.613 76.8571 11.7936 76.8408 11.9922V12.8027C76.8701 13.0436 76.9271 13.2601 77.0117 13.4521C77.0964 13.6442 77.2201 13.7972 77.3828 13.9111C77.5488 14.0251 77.7637 14.082 78.0273 14.082C78.2259 14.082 78.3952 14.0381 78.5352 13.9502C78.6751 13.8623 78.7891 13.7419 78.877 13.5889C78.9648 13.4326 79.0283 13.2536 79.0674 13.0518C79.1064 12.8499 79.126 12.6351 79.126 12.4072ZM82.7295 9.7168V15H81.4355V9.7168H82.7295ZM81.3477 8.33496C81.3477 8.1429 81.4128 7.9834 81.543 7.85645C81.6764 7.72949 81.8555 7.66602 82.0801 7.66602C82.3047 7.66602 82.4821 7.72949 82.6123 7.85645C82.7458 7.9834 82.8125 8.1429 82.8125 8.33496C82.8125 8.52376 82.7458 8.68164 82.6123 8.80859C82.4821 8.93555 82.3047 8.99902 82.0801 8.99902C81.8555 8.99902 81.6764 8.93555 81.543 8.80859C81.4128 8.68164 81.3477 8.52376 81.3477 8.33496ZM86.1279 14.082C86.3102 14.082 86.473 14.0462 86.6162 13.9746C86.7594 13.903 86.8734 13.8021 86.958 13.6719C87.0459 13.5417 87.0931 13.3903 87.0996 13.2178H88.3154C88.3089 13.5758 88.208 13.8965 88.0127 14.1797C87.8174 14.4629 87.557 14.6875 87.2314 14.8535C86.9092 15.0163 86.5479 15.0977 86.1475 15.0977C85.7406 15.0977 85.3857 15.0293 85.083 14.8926C84.7803 14.7559 84.528 14.5654 84.3262 14.3213C84.1276 14.0771 83.9779 13.7939 83.877 13.4717C83.7793 13.1494 83.7305 12.8044 83.7305 12.4365V12.2803C83.7305 11.9124 83.7793 11.5674 83.877 11.2451C83.9779 10.9229 84.1276 10.6396 84.3262 10.3955C84.528 10.1514 84.7803 9.96094 85.083 9.82422C85.3857 9.6875 85.7389 9.61914 86.1426 9.61914C86.569 9.61914 86.9434 9.70215 87.2656 9.86816C87.5911 10.0342 87.8451 10.2686 88.0273 10.5713C88.2129 10.874 88.3089 11.2305 88.3154 11.6406H87.0996C87.0931 11.4518 87.0508 11.2826 86.9727 11.1328C86.8945 10.9831 86.7839 10.8626 86.6406 10.7715C86.4974 10.6803 86.3232 10.6348 86.1182 10.6348C85.9001 10.6348 85.7178 10.6803 85.5713 10.7715C85.4281 10.8626 85.3158 10.988 85.2344 11.1475C85.1562 11.3037 85.1009 11.4795 85.0684 11.6748C85.0391 11.8669 85.0244 12.0687 85.0244 12.2803V12.4365C85.0244 12.6514 85.0391 12.8564 85.0684 13.0518C85.1009 13.2471 85.1562 13.4229 85.2344 13.5791C85.3158 13.7321 85.4281 13.8542 85.5713 13.9453C85.7178 14.0365 85.9033 14.082 86.1279 14.082ZM90.4639 7.49512V15H89.1748V7.49512H90.4639ZM93.7744 9.7168L91.4746 12.2998L90.2295 13.5645L89.8193 12.5635L90.7812 11.3525L92.2168 9.7168H93.7744ZM92.4561 15L90.8203 12.5391L91.6797 11.7041L93.9502 15H92.4561ZM97.6025 13.7451V9.7168H98.9014V15H97.6807L97.6025 13.7451ZM97.7686 12.6514L98.1689 12.6416C98.1689 12.9964 98.1299 13.3236 98.0518 13.623C97.9736 13.9225 97.8516 14.1829 97.6855 14.4043C97.5228 14.6224 97.3161 14.7933 97.0654 14.917C96.8148 15.0374 96.5186 15.0977 96.1768 15.0977C95.9163 15.0977 95.6787 15.0618 95.4639 14.9902C95.249 14.9154 95.0635 14.7998 94.9072 14.6436C94.7542 14.484 94.6354 14.2806 94.5508 14.0332C94.4661 13.7826 94.4238 13.4814 94.4238 13.1299V9.7168H95.7129V13.1396C95.7129 13.3154 95.7324 13.4619 95.7715 13.5791C95.8138 13.6963 95.8708 13.7923 95.9424 13.8672C96.0173 13.9388 96.1035 13.9909 96.2012 14.0234C96.3021 14.0527 96.4095 14.0674 96.5234 14.0674C96.8359 14.0674 97.0817 14.0055 97.2607 13.8818C97.443 13.7549 97.5732 13.5856 97.6514 13.374C97.7295 13.1592 97.7686 12.9183 97.7686 12.6514ZM101.333 10.7324V17.0312H100.039V9.7168H101.235L101.333 10.7324ZM104.727 12.3047V12.4072C104.727 12.7913 104.681 13.1478 104.59 13.4766C104.502 13.8021 104.372 14.0869 104.199 14.3311C104.027 14.5719 103.812 14.7607 103.555 14.8975C103.301 15.0309 103.008 15.0977 102.676 15.0977C102.35 15.0977 102.067 15.0358 101.826 14.9121C101.585 14.7852 101.382 14.6061 101.216 14.375C101.05 14.1439 100.916 13.8753 100.815 13.5693C100.718 13.2601 100.645 12.9232 100.596 12.5586V12.2314C100.645 11.8441 100.718 11.4925 100.815 11.1768C100.916 10.8577 101.05 10.5827 101.216 10.3516C101.382 10.1172 101.584 9.93652 101.821 9.80957C102.062 9.68262 102.344 9.61914 102.666 9.61914C103.001 9.61914 103.296 9.68262 103.55 9.80957C103.807 9.93652 104.023 10.1188 104.199 10.3564C104.375 10.5941 104.507 10.8773 104.595 11.2061C104.683 11.5348 104.727 11.901 104.727 12.3047ZM103.433 12.4072V12.3047C103.433 12.0703 103.411 11.8538 103.369 11.6553C103.327 11.4535 103.262 11.2777 103.174 11.1279C103.086 10.9749 102.972 10.8561 102.832 10.7715C102.692 10.6868 102.523 10.6445 102.324 10.6445C102.126 10.6445 101.955 10.6771 101.812 10.7422C101.668 10.8073 101.551 10.9001 101.46 11.0205C101.369 11.141 101.297 11.2842 101.245 11.4502C101.196 11.613 101.164 11.7936 101.147 11.9922V12.8027C101.177 13.0436 101.234 13.2601 101.318 13.4521C101.403 13.6442 101.527 13.7972 101.689 13.9111C101.855 14.0251 102.07 14.082 102.334 14.082C102.533 14.082 102.702 14.0381 102.842 13.9502C102.982 13.8623 103.096 13.7419 103.184 13.5889C103.271 13.4326 103.335 13.2536 103.374 13.0518C103.413 12.8499 103.433 12.6351 103.433 12.4072Z" fill="#7A5AF8"/>
</svg>
