<svg width="73" height="20" viewBox="0 0 73 20" fill="none" xmlns="http://www.w3.org/2000/svg">
<rect x="0.5" y="0.5" width="19" height="19" rx="9.5" fill="white"/>
<rect x="0.5" y="0.5" width="19" height="19" rx="9.5" stroke="#EDEDED"/>
<path d="M14 9.4995H15C15 6.9345 13.0635 5 10.495 5V6C12.526 6 14 7.4715 14 9.4995Z" fill="black"/>
<path d="M10.5 8.00012C11.5515 8.00012 12 8.44862 12 9.50012H13C13 7.88762 12.1125 7.00012 10.5 7.00012V8.00012ZM12.211 10.7216C12.1149 10.6343 11.9887 10.5877 11.8589 10.5917C11.7292 10.5957 11.606 10.65 11.5155 10.7431L10.319 11.9736C10.031 11.9186 9.45202 11.7381 8.85602 11.1436C8.26002 10.5471 8.07952 9.96662 8.02602 9.68062L9.25552 8.48362C9.34873 8.39318 9.40309 8.27003 9.4071 8.14022C9.41111 8.01042 9.36446 7.88414 9.27702 7.78812L7.42952 5.75662C7.34204 5.6603 7.22046 5.60187 7.0906 5.59375C6.96073 5.58563 6.83282 5.62845 6.73402 5.71312L5.64902 6.64362C5.56257 6.73038 5.51098 6.84584 5.50402 6.96812C5.49652 7.09312 5.35352 10.0541 7.64952 12.3511C9.65252 14.3536 12.1615 14.5001 12.8525 14.5001C12.9535 14.5001 13.0155 14.4971 13.032 14.4961C13.1543 14.4893 13.2697 14.4375 13.356 14.3506L14.286 13.2651C14.3708 13.1664 14.4137 13.0385 14.4056 12.9086C14.3976 12.7788 14.3393 12.6572 14.243 12.5696L12.211 10.7216Z" fill="black"/>
<path d="M29.291 10.6611H30.6338C30.598 11.1364 30.4661 11.5579 30.2383 11.9258C30.0104 12.2904 29.693 12.5768 29.2861 12.7852C28.8792 12.9935 28.3861 13.0977 27.8066 13.0977C27.3607 13.0977 26.9587 13.0195 26.6006 12.8633C26.2458 12.7038 25.9414 12.4775 25.6875 12.1846C25.4368 11.8883 25.2448 11.5335 25.1113 11.1201C24.9779 10.7035 24.9111 10.2363 24.9111 9.71875V9.17676C24.9111 8.65918 24.9795 8.19206 25.1162 7.77539C25.2529 7.35872 25.4482 7.00391 25.7021 6.71094C25.9593 6.41471 26.2669 6.18685 26.625 6.02734C26.9863 5.86784 27.39 5.78809 27.8359 5.78809C28.4154 5.78809 28.9053 5.89551 29.3057 6.11035C29.7061 6.32194 30.0169 6.61328 30.2383 6.98438C30.4596 7.35547 30.5931 7.7819 30.6387 8.26367H29.2959C29.2699 7.96419 29.2048 7.71029 29.1006 7.50195C28.9997 7.29362 28.8467 7.13574 28.6416 7.02832C28.4398 6.91764 28.1712 6.8623 27.8359 6.8623C27.5755 6.8623 27.346 6.91113 27.1475 7.00879C26.9521 7.10645 26.7894 7.25293 26.6592 7.44824C26.529 7.6403 26.4313 7.88118 26.3662 8.1709C26.3011 8.45736 26.2686 8.78939 26.2686 9.16699V9.71875C26.2686 10.0801 26.2979 10.404 26.3564 10.6904C26.415 10.9769 26.5062 11.2194 26.6299 11.418C26.7536 11.6165 26.9131 11.7679 27.1084 11.8721C27.3037 11.9762 27.5365 12.0283 27.8066 12.0283C28.1354 12.0283 28.4023 11.9762 28.6074 11.8721C28.8158 11.7679 28.9736 11.6149 29.0811 11.4131C29.1917 11.2113 29.2617 10.9606 29.291 10.6611ZM34.4863 11.877V9.44043C34.4863 9.26139 34.4554 9.10677 34.3936 8.97656C34.3317 8.84635 34.2373 8.74544 34.1104 8.67383C33.9834 8.60221 33.8223 8.56641 33.627 8.56641C33.4544 8.56641 33.3031 8.5957 33.1729 8.6543C33.0459 8.71289 32.9482 8.7959 32.8799 8.90332C32.8115 9.00749 32.7773 9.12793 32.7773 9.26465H31.4834C31.4834 9.04655 31.5355 8.83984 31.6396 8.64453C31.7438 8.44596 31.8919 8.27018 32.084 8.11719C32.2793 7.96094 32.512 7.83887 32.7822 7.75098C33.0557 7.66309 33.3617 7.61914 33.7002 7.61914C34.1006 7.61914 34.457 7.6875 34.7695 7.82422C35.0853 7.95768 35.3327 8.15951 35.5117 8.42969C35.694 8.69987 35.7852 9.04004 35.7852 9.4502V11.7549C35.7852 12.0186 35.8014 12.2448 35.834 12.4336C35.8698 12.6191 35.9219 12.7803 35.9902 12.917V13H34.6768C34.6149 12.8665 34.5677 12.6973 34.5352 12.4922C34.5026 12.2839 34.4863 12.0788 34.4863 11.877ZM34.667 9.78223L34.6768 10.5488H33.8613C33.6595 10.5488 33.4821 10.57 33.3291 10.6123C33.1761 10.6514 33.0508 10.71 32.9531 10.7881C32.8555 10.863 32.7822 10.9541 32.7334 11.0615C32.6846 11.1657 32.6602 11.2845 32.6602 11.418C32.6602 11.5482 32.6895 11.6654 32.748 11.7695C32.8099 11.8737 32.8978 11.9567 33.0117 12.0186C33.1289 12.0771 33.2656 12.1064 33.4219 12.1064C33.6497 12.1064 33.8483 12.0609 34.0176 11.9697C34.1868 11.8753 34.3187 11.7614 34.4131 11.6279C34.5075 11.4945 34.5579 11.3675 34.5645 11.2471L34.9355 11.8037C34.89 11.9372 34.8216 12.0788 34.7305 12.2285C34.6393 12.3783 34.5221 12.5182 34.3789 12.6484C34.2357 12.7786 34.0632 12.8861 33.8613 12.9707C33.6595 13.0553 33.4251 13.0977 33.1582 13.0977C32.8164 13.0977 32.5104 13.0293 32.2402 12.8926C31.9701 12.7559 31.7568 12.5687 31.6006 12.3311C31.4443 12.0934 31.3662 11.8232 31.3662 11.5205C31.3662 11.2406 31.4183 10.9932 31.5225 10.7783C31.6266 10.5635 31.7812 10.3828 31.9863 10.2363C32.1914 10.0866 32.4453 9.97428 32.748 9.89941C33.054 9.82129 33.404 9.78223 33.7979 9.78223H34.667ZM38.3145 5.5V13H37.0205V5.5H38.3145ZM40.9121 5.5V13H39.6182V5.5H40.9121ZM44.4033 10.4121V10.3096C44.4033 9.9222 44.4587 9.56576 44.5693 9.24023C44.68 8.91146 44.8411 8.62663 45.0527 8.38574C45.2643 8.14486 45.5231 7.95768 45.8291 7.82422C46.1351 7.6875 46.4834 7.61914 46.874 7.61914C47.2712 7.61914 47.6227 7.6875 47.9287 7.82422C48.238 7.95768 48.4984 8.14486 48.71 8.38574C48.9215 8.62663 49.0827 8.91146 49.1934 9.24023C49.304 9.56576 49.3594 9.9222 49.3594 10.3096V10.4121C49.3594 10.7962 49.304 11.1527 49.1934 11.4814C49.0827 11.807 48.9215 12.0918 48.71 12.3359C48.4984 12.5768 48.2396 12.764 47.9336 12.8975C47.6276 13.0309 47.2777 13.0977 46.8838 13.0977C46.4932 13.0977 46.1432 13.0309 45.834 12.8975C45.5247 12.764 45.2643 12.5768 45.0527 12.3359C44.8411 12.0918 44.68 11.807 44.5693 11.4814C44.4587 11.1527 44.4033 10.7962 44.4033 10.4121ZM45.6924 10.3096V10.4121C45.6924 10.6432 45.7152 10.8597 45.7607 11.0615C45.8063 11.2633 45.8763 11.4408 45.9707 11.5938C46.0651 11.7467 46.1872 11.8672 46.3369 11.9551C46.4899 12.0397 46.6722 12.082 46.8838 12.082C47.0921 12.082 47.2712 12.0397 47.4209 11.9551C47.5706 11.8672 47.6927 11.7467 47.7871 11.5938C47.8848 11.4408 47.9564 11.2633 48.002 11.0615C48.0475 10.8597 48.0703 10.6432 48.0703 10.4121V10.3096C48.0703 10.0817 48.0475 9.86849 48.002 9.66992C47.9564 9.4681 47.8848 9.29069 47.7871 9.1377C47.6927 8.98145 47.569 8.85938 47.416 8.77148C47.2663 8.68034 47.0856 8.63477 46.874 8.63477C46.6657 8.63477 46.4867 8.68034 46.3369 8.77148C46.1872 8.85938 46.0651 8.98145 45.9707 9.1377C45.8763 9.29069 45.8063 9.4681 45.7607 9.66992C45.7152 9.86849 45.6924 10.0817 45.6924 10.3096ZM51.5859 8.73242V15.0312H50.292V7.7168H51.4883L51.5859 8.73242ZM54.9795 10.3047V10.4072C54.9795 10.7913 54.9339 11.1478 54.8428 11.4766C54.7549 11.8021 54.6247 12.0869 54.4521 12.3311C54.2796 12.5719 54.0648 12.7607 53.8076 12.8975C53.5537 13.0309 53.2607 13.0977 52.9287 13.0977C52.6032 13.0977 52.32 13.0358 52.0791 12.9121C51.8382 12.7852 51.6348 12.6061 51.4688 12.375C51.3027 12.1439 51.1693 11.8753 51.0684 11.5693C50.9707 11.2601 50.8975 10.9232 50.8486 10.5586V10.2314C50.8975 9.84408 50.9707 9.49251 51.0684 9.17676C51.1693 8.85775 51.3027 8.58268 51.4688 8.35156C51.6348 8.11719 51.8366 7.93652 52.0742 7.80957C52.3151 7.68262 52.5967 7.61914 52.9189 7.61914C53.2542 7.61914 53.5488 7.68262 53.8027 7.80957C54.0599 7.93652 54.2764 8.11882 54.4521 8.35645C54.6279 8.59408 54.7598 8.87728 54.8477 9.20605C54.9355 9.53483 54.9795 9.90104 54.9795 10.3047ZM53.6855 10.4072V10.3047C53.6855 10.0703 53.6644 9.85384 53.6221 9.65527C53.5798 9.45345 53.5146 9.27767 53.4268 9.12793C53.3389 8.97493 53.2249 8.85612 53.085 8.77148C52.945 8.68685 52.7757 8.64453 52.5771 8.64453C52.3786 8.64453 52.2077 8.67708 52.0645 8.74219C51.9212 8.80729 51.804 8.90007 51.7129 9.02051C51.6217 9.14095 51.5501 9.28418 51.498 9.4502C51.4492 9.61296 51.4167 9.79362 51.4004 9.99219V10.8027C51.4297 11.0436 51.4867 11.2601 51.5713 11.4521C51.6559 11.6442 51.7796 11.7972 51.9424 11.9111C52.1084 12.0251 52.3232 12.082 52.5869 12.082C52.7855 12.082 52.9548 12.0381 53.0947 11.9502C53.2347 11.8623 53.3486 11.7419 53.4365 11.5889C53.5244 11.4326 53.5879 11.2536 53.627 11.0518C53.666 10.8499 53.6855 10.6351 53.6855 10.4072ZM58.4219 7.7168V8.64453H55.3945V7.7168H58.4219ZM56.2051 6.41797H57.499V11.4766C57.499 11.6328 57.5202 11.7533 57.5625 11.8379C57.6048 11.9225 57.6683 11.9795 57.7529 12.0088C57.8376 12.0381 57.9385 12.0527 58.0557 12.0527C58.1403 12.0527 58.2184 12.0479 58.29 12.0381C58.3617 12.0283 58.4219 12.0186 58.4707 12.0088L58.4756 12.9756C58.3682 13.0114 58.2461 13.0407 58.1094 13.0635C57.9759 13.0863 57.8245 13.0977 57.6553 13.0977C57.3656 13.0977 57.1117 13.0488 56.8936 12.9512C56.6755 12.8503 56.5062 12.6891 56.3857 12.4678C56.2653 12.2432 56.2051 11.9469 56.2051 11.5791V6.41797ZM60.6484 7.7168V13H59.3545V7.7168H60.6484ZM59.2666 6.33496C59.2666 6.1429 59.3317 5.9834 59.4619 5.85645C59.5954 5.72949 59.7744 5.66602 59.999 5.66602C60.2236 5.66602 60.401 5.72949 60.5312 5.85645C60.6647 5.9834 60.7314 6.1429 60.7314 6.33496C60.7314 6.52376 60.6647 6.68164 60.5312 6.80859C60.401 6.93555 60.2236 6.99902 59.999 6.99902C59.7744 6.99902 59.5954 6.93555 59.4619 6.80859C59.3317 6.68164 59.2666 6.52376 59.2666 6.33496ZM61.6494 10.4121V10.3096C61.6494 9.9222 61.7048 9.56576 61.8154 9.24023C61.9261 8.91146 62.0872 8.62663 62.2988 8.38574C62.5104 8.14486 62.7692 7.95768 63.0752 7.82422C63.3812 7.6875 63.7295 7.61914 64.1201 7.61914C64.5173 7.61914 64.8688 7.6875 65.1748 7.82422C65.484 7.95768 65.7445 8.14486 65.9561 8.38574C66.1676 8.62663 66.3288 8.91146 66.4395 9.24023C66.5501 9.56576 66.6055 9.9222 66.6055 10.3096V10.4121C66.6055 10.7962 66.5501 11.1527 66.4395 11.4814C66.3288 11.807 66.1676 12.0918 65.9561 12.3359C65.7445 12.5768 65.4857 12.764 65.1797 12.8975C64.8737 13.0309 64.5238 13.0977 64.1299 13.0977C63.7393 13.0977 63.3893 13.0309 63.0801 12.8975C62.7708 12.764 62.5104 12.5768 62.2988 12.3359C62.0872 12.0918 61.9261 11.807 61.8154 11.4814C61.7048 11.1527 61.6494 10.7962 61.6494 10.4121ZM62.9385 10.3096V10.4121C62.9385 10.6432 62.9613 10.8597 63.0068 11.0615C63.0524 11.2633 63.1224 11.4408 63.2168 11.5938C63.3112 11.7467 63.4333 11.8672 63.583 11.9551C63.736 12.0397 63.9183 12.082 64.1299 12.082C64.3382 12.082 64.5173 12.0397 64.667 11.9551C64.8167 11.8672 64.9388 11.7467 65.0332 11.5938C65.1309 11.4408 65.2025 11.2633 65.248 11.0615C65.2936 10.8597 65.3164 10.6432 65.3164 10.4121V10.3096C65.3164 10.0817 65.2936 9.86849 65.248 9.66992C65.2025 9.4681 65.1309 9.29069 65.0332 9.1377C64.9388 8.98145 64.8151 8.85938 64.6621 8.77148C64.5124 8.68034 64.3317 8.63477 64.1201 8.63477C63.9118 8.63477 63.7327 8.68034 63.583 8.77148C63.4333 8.85938 63.3112 8.98145 63.2168 9.1377C63.1224 9.29069 63.0524 9.4681 63.0068 9.66992C62.9613 9.86849 62.9385 10.0817 62.9385 10.3096ZM68.8076 8.84473V13H67.5186V7.7168H68.7295L68.8076 8.84473ZM68.6025 10.168H68.2217C68.2249 9.78385 68.277 9.43555 68.3779 9.12305C68.4788 8.81055 68.6204 8.54199 68.8027 8.31738C68.9883 8.09277 69.208 7.92025 69.4619 7.7998C69.7158 7.67936 69.999 7.61914 70.3115 7.61914C70.5654 7.61914 70.7949 7.65495 71 7.72656C71.2051 7.79818 71.3809 7.91211 71.5273 8.06836C71.6771 8.22461 71.791 8.42969 71.8691 8.68359C71.9505 8.93424 71.9912 9.24349 71.9912 9.61133V13H70.6924V9.60156C70.6924 9.36068 70.6566 9.17025 70.585 9.03027C70.5166 8.8903 70.4157 8.79102 70.2822 8.73242C70.152 8.67383 69.9909 8.64453 69.7988 8.64453C69.6003 8.64453 69.4261 8.68522 69.2764 8.7666C69.1299 8.84473 69.0062 8.95378 68.9053 9.09375C68.8076 9.23372 68.7327 9.39486 68.6807 9.57715C68.6286 9.75944 68.6025 9.95638 68.6025 10.168Z" fill="black"/>
</svg>
