<svg width="224" height="207" viewBox="0 0 224 207" fill="none" xmlns="http://www.w3.org/2000/svg">
<path opacity="0.4" d="M28.0847 137.205C12.0744 115.155 13.7481 90.5904 24.4151 78.5529C31.5658 70.4824 43.8766 66.6365 54.3706 69.9038C61.5475 72.1374 67.3837 77.3585 74.5314 79.6808C85.4235 83.2158 97.6103 79.3813 107.06 73.0876C116.509 66.7938 124.024 58.2333 132.537 50.81C141.051 43.3867 151.247 36.8508 162.719 36.1187C175.68 35.2906 188.314 42.3199 196.033 52.3557C203.752 62.3914 207.757 75.0196 207.768 87.496C207.788 111.412 184.641 154.477 136.225 167.16C98.1252 177.142 50.0611 167.475 28.0847 137.205Z" fill="#BBE1FA"/>
<path d="M66.6022 114.586C66.6022 114.586 61.2151 107.338 65.8373 106.044C70.9373 104.218 76.0905 101.313 75.3901 97.9481C74.6897 94.5829 61.245 94.1948 56.343 95.8781C51.4409 97.5614 50.0402 102.22 50.8806 111.151C51.721 120.081 40.0965 121.764 39.9559 126.294C39.8154 130.823 45.8786 130.594 42.3371 136.26C40.6571 138.978 36.5951 148.425 43.5972 151.402C50.5993 154.379 53.6818 155.025 59.7038 154.379C65.7259 153.733 77.0709 128.624 71.3285 118.269C69.0884 111.408 66.6022 114.586 66.6022 114.586Z" fill="#4F4D51"/>
<path d="M149.362 96.0154H154.77C154.77 96.0154 155.128 101.642 153.776 103.36C152.423 105.078 149.362 102.887 149.362 102.887V96.0154Z" fill="#4F4D51"/>
<path d="M137.869 115.84C137.869 115.84 124.704 117.499 123.723 124.488C122.743 131.477 120.363 154.256 122.603 156.326C124.843 158.397 128.486 158.397 128.486 158.397V166.162C130.823 167.425 133.481 168.095 136.189 168.103C140.669 168.103 154.116 163.314 161.259 163.832C168.402 164.35 168.262 166.162 168.262 166.162C168.262 166.162 165.18 157.879 165.18 155.419C168.962 155.419 169.353 130.091 168.262 125.263C167.343 121.798 154.955 113.615 152.155 113.227C149.354 112.838 137.869 115.84 137.869 115.84Z" fill="#9D62C2"/>
<path d="M128.486 166.163C130.823 167.427 133.481 168.097 136.189 168.105C140.671 168.105 154.116 163.316 161.259 163.834C168.402 164.352 168.262 166.163 168.262 166.163C168.262 166.163 165.947 159.842 165.221 156.327C165.221 156.324 165.641 160.389 163.481 161.305C159.093 162.457 157.555 157.007 152.712 159.01C147.702 161.084 142.25 165.988 137.376 166.973C134.82 167.488 129.579 166.353 128.486 166.163Z" fill="#4A176A"/>
<path d="M140.667 113.41L137.242 115.943L139.474 121.128L142.788 116.238C142.788 116.238 145.975 119.95 147.696 120.48C149.418 121.01 153.498 113.41 153.498 113.41L149.227 109.581C149.227 109.581 141.177 113.586 140.668 113.41" fill="#FFAD01"/>
<path d="M140.667 110.91V114.28C141.381 114.98 142.27 115.506 143.256 115.812C144.83 116.271 149.968 110.91 149.968 110.91V104.248L140.667 110.91Z" fill="#F3C295"/>
<path d="M133.106 97.2723C133.106 97.2723 132.304 105.007 135.039 108.223C137.774 111.44 139.93 112.359 141.917 111.899C143.905 111.44 148.133 108.147 149.21 105.849C153.271 106.462 155.177 102.097 153.933 99.7994C152.69 97.5019 150.287 102.633 150.287 102.633V96.8126C150.287 96.8126 144.155 93.9787 139.514 94.0555C134.873 94.1323 133.106 97.2723 133.106 97.2723Z" fill="#FFD0A6"/>
<path d="M133.106 94.1333V97.618C133.106 97.618 145.165 99.2113 150.23 97.618C155.295 96.0247 133.106 94.1333 133.106 94.1333Z" fill="#F3C295"/>
<path d="M134.937 91.7251C134.937 91.7251 127.396 90.8504 126.425 92.2426C125.455 93.6348 134.937 96.2247 154.973 98.2158C151.526 93.8341 150.988 93.0965 145.278 91.7237C141.889 90.8986 138.326 90.8991 134.937 91.7251Z" fill="#FFAD01"/>
<path d="M133.106 91.6469C133.106 91.6469 134.722 83.882 143.771 85.5746C152.821 87.2671 155.622 91.0503 154.975 98.1186C149.373 96.5252 133.106 91.6469 133.106 91.6469Z" fill="#9D62C2"/>
<path d="M155.065 130.701C155.065 130.701 154.379 138.261 155.065 144.808C155.657 145.973 141.512 145.973 141.512 145.973" stroke="#4A176A"/>
<path d="M164.9 156.198C164.9 156.198 145.012 155.291 140.951 153.48" stroke="#4A176A"/>
<path d="M101.216 112.986C106.165 112.986 110.176 109.202 110.176 104.533C110.176 99.8648 106.165 96.0803 101.216 96.0803C96.2674 96.0803 92.2557 99.8648 92.2557 104.533C92.2557 109.202 96.2674 112.986 101.216 112.986Z" fill="#B3E55E"/>
<path d="M97.4611 105.177L97.4614 105.177C97.6813 105.024 97.9579 104.958 98.2305 104.993C98.5031 105.029 98.7493 105.163 98.915 105.366L100.477 107.281C100.559 107.382 100.619 107.497 100.653 107.619C100.687 107.741 100.695 107.867 100.676 107.992C100.657 108.117 100.611 108.237 100.542 108.346C100.473 108.454 100.381 108.549 100.272 108.625L100.272 108.625C100.163 108.701 100.039 108.756 99.9073 108.788C99.7753 108.819 99.638 108.826 99.503 108.809C99.368 108.791 99.2381 108.749 99.1206 108.685C99.0032 108.621 98.9005 108.537 98.8185 108.436L97.2567 106.52C97.1747 106.42 97.1149 106.305 97.0808 106.183C97.0467 106.061 97.0389 105.934 97.0578 105.81C97.0768 105.685 97.1222 105.565 97.1914 105.456C97.2606 105.348 97.3522 105.253 97.4611 105.177Z" fill="white"/>
<path d="M105.263 100.966L105.263 100.966C105.483 101.119 105.628 101.346 105.666 101.598C105.704 101.85 105.633 102.106 105.467 102.309L100.47 108.439C100.388 108.539 100.285 108.624 100.167 108.688C100.05 108.752 99.9201 108.794 99.7851 108.811C99.6502 108.829 99.5128 108.822 99.3808 108.79C99.2488 108.759 99.1249 108.703 99.016 108.628L99.0157 108.627C98.7959 108.474 98.6508 108.247 98.6125 107.995C98.5741 107.743 98.6457 107.487 98.8113 107.284L103.809 101.154C103.975 100.951 104.221 100.817 104.493 100.782C104.766 100.746 105.043 100.812 105.263 100.966Z" fill="white"/>
<path d="M87.7241 131.487L131.533 124.335C131.728 124.304 131.929 124.345 132.091 124.45C132.254 124.555 132.364 124.715 132.399 124.895L133.328 129.755L88.0475 137.146L87.1185 132.287C87.084 132.106 87.1285 131.921 87.2421 131.771C87.3556 131.621 87.529 131.519 87.7241 131.487Z" fill="#DB9846"/>
<path d="M88.9445 136.556L132.228 129.49L136.909 153.976C136.978 154.336 136.889 154.707 136.662 155.007C136.435 155.307 136.088 155.511 135.698 155.575L95.3559 162.161C94.9658 162.224 94.5643 162.142 94.2397 161.932C93.9151 161.722 93.694 161.402 93.6251 161.041L88.9445 136.556Z" fill="#E8B679"/>
<path opacity="0.6" d="M128.522 132.556L116.536 134.513L117.477 139.436L129.463 137.479L128.522 132.556Z" fill="white"/>
<path d="M95.4379 144.991C95.4379 144.991 100.742 139.247 102.399 139.17C104.057 139.094 102.399 142.464 102.399 142.464C102.399 142.464 108.698 141.315 109.941 143.459C111.184 145.603 107.869 150.275 103.643 150.199C99.4162 150.122 94.1968 149.586 94.1968 149.586L95.4379 144.991Z" fill="#FFD0A6"/>
<path d="M90.9069 145.618C90.9069 145.618 93.9026 144.581 95.4964 144.581C97.0902 144.581 96.708 150.53 96.708 150.53C96.708 150.53 92.2457 152.357 90.5876 152.474C88.9296 152.592 90.9069 145.618 90.9069 145.618Z" fill="white"/>
<path d="M75.9718 142.519C76.3096 142.46 90.0792 142.519 90.0792 142.519L90.5889 147.173C90.5889 147.173 76.3736 150.295 74.143 149.765C71.9124 149.234 75.9718 142.519 75.9718 142.519Z" fill="#D4AB1C"/>
<path d="M73.6579 147.833C73.6579 147.833 83.2716 145.153 91.3919 145.689V152.582C91.3919 152.582 78.7951 157.865 74.7342 157.636C70.6733 157.407 73.6579 147.833 73.6579 147.833Z" fill="#FFDA58"/>
<path d="M59.9929 124.356C59.9929 124.356 52.2901 126.815 51.7301 131.991C51.1701 137.168 56.2102 147.523 55.0902 152.571C53.9702 157.618 45.4262 165.643 45.4262 165.643C45.4262 165.643 51.1686 166.937 56.4908 166.29C61.813 165.643 70.7759 162.667 73.8575 164.866C73.9971 160.726 75.9583 149.853 75.8183 148.17C75.6783 146.488 80.5796 143.899 79.8799 139.498C79.1803 135.098 76.378 132.121 71.3363 129.145C66.2947 126.168 59.9929 124.356 59.9929 124.356Z" fill="#FFDA58"/>
<path d="M59.0051 124.713C59.0051 124.713 52.2905 126.815 51.7297 131.993C51.169 137.171 56.2099 147.525 55.0899 152.572C53.9698 157.619 45.4253 165.644 45.4253 165.644C45.4253 165.644 46.3587 165.854 48.0287 166.093C51.1444 166.52 54.3112 166.52 57.4269 166.093C63.1728 165.309 70.0406 163.03 73.8506 164.773C68.7204 162.367 62.4635 165.517 57.1023 161.914C54.9741 160.484 57.5735 156.825 56.7663 150.842C56.2137 147.864 54.6248 141.803 53.8575 136.468C52.2402 127.985 56.9003 126.754 58.011 125.251C58.6292 124.408 59.0051 124.713 59.0051 124.713Z" fill="#D4AB1C"/>
<path d="M60.7997 114.206C60.7997 114.206 59.3907 122.706 57.6505 125.311C61.9596 126.153 64.4455 125.771 67.5121 128.144C70.5787 130.518 73.3076 130.371 73.3076 130.371C73.3076 130.371 68.3421 125.157 67.0148 124.161C66.9322 122.323 67.1801 119.03 67.0148 116.656C66.8494 114.282 60.7997 114.206 60.7997 114.206Z" fill="#F3C295"/>
<path d="M73.6519 101.821C73.6519 101.821 69.4927 104.857 66.2597 105.471C63.0266 106.086 63.1934 110.755 63.1934 110.755C63.1934 110.755 61.7018 107.385 59.3819 107.309C57.062 107.232 55.9844 110.985 58.4702 113.742C60.956 116.499 66.5916 119.332 69.1606 119.332C71.7295 119.332 73.3048 112.669 74.8788 111.444C71.3786 109.34 73.6519 101.821 73.6519 101.821Z" fill="#FBCC98"/>
<path d="M54.8359 139.48C54.8359 139.48 63.8462 156.169 69.3383 158.166C71.0125 158.702 72.8328 158.702 74.507 158.166" stroke="#D4AB1C"/>
<path d="M67.1873 134.045C67.1873 134.045 74.2314 145.149 73.4858 148.824C74.0657 147.216 75.9716 147.369 75.9716 147.369" stroke="#D4AB1C"/>
<path d="M141.23 145.972C141.23 145.972 132.826 142.478 130.586 142.478C128.345 142.478 130.026 144.982 130.586 145.413C131.146 145.844 124.143 143.902 124.003 147.396C123.863 150.889 127.923 156.456 135.488 154.514C143.054 152.572 141.23 152.962 141.23 152.962V145.972Z" fill="#FFD0A6"/>
</svg>
