<svg width="48" height="23" viewBox="0 0 48 23" fill="none" xmlns="http://www.w3.org/2000/svg">
<g filter="url(#filter0_d_344_3028)">
<path d="M18.8291 4.87109V12H17.5352V6.37988L15.8213 6.94629V5.90137L18.6826 4.87109H18.8291ZM25.9287 7.83496V9.03125C25.9287 9.57812 25.8734 10.0452 25.7627 10.4326C25.652 10.82 25.4925 11.1374 25.2842 11.3848C25.0758 11.6289 24.8268 11.8096 24.5371 11.9268C24.2474 12.0407 23.9251 12.0977 23.5703 12.0977C23.2871 12.0977 23.0234 12.0618 22.7793 11.9902C22.5352 11.9154 22.3154 11.8014 22.1201 11.6484C21.9281 11.4922 21.762 11.2936 21.6221 11.0527C21.4854 10.8118 21.3796 10.5238 21.3047 10.1885C21.2331 9.85319 21.1973 9.46745 21.1973 9.03125V7.83496C21.1973 7.28809 21.2526 6.82259 21.3633 6.43848C21.4772 6.05436 21.6383 5.74023 21.8467 5.49609C22.055 5.25195 22.304 5.07454 22.5938 4.96387C22.8835 4.84993 23.2057 4.79297 23.5605 4.79297C23.847 4.79297 24.1107 4.82878 24.3516 4.90039C24.5957 4.97201 24.8138 5.08431 25.0059 5.2373C25.2012 5.38704 25.3672 5.58236 25.5039 5.82324C25.6406 6.06087 25.7448 6.34733 25.8164 6.68262C25.8913 7.01465 25.9287 7.39876 25.9287 7.83496ZM24.6396 9.20703V7.6543C24.6396 7.38086 24.6234 7.14323 24.5908 6.94141C24.5615 6.73633 24.5176 6.56217 24.459 6.41895C24.4004 6.27572 24.3271 6.16016 24.2393 6.07227C24.1514 5.98112 24.0505 5.91439 23.9365 5.87207C23.8226 5.82975 23.6973 5.80859 23.5605 5.80859C23.3913 5.80859 23.2399 5.84277 23.1064 5.91113C22.973 5.97624 22.8607 6.0804 22.7695 6.22363C22.6784 6.36686 22.6084 6.55729 22.5596 6.79492C22.514 7.0293 22.4912 7.31576 22.4912 7.6543V9.20703C22.4912 9.48047 22.5059 9.71973 22.5352 9.9248C22.5677 10.1299 22.6133 10.3057 22.6719 10.4521C22.7337 10.5986 22.807 10.7191 22.8916 10.8135C22.9795 10.9046 23.0804 10.973 23.1943 11.0186C23.3083 11.0609 23.4336 11.082 23.5703 11.082C23.7428 11.082 23.8942 11.0479 24.0244 10.9795C24.1579 10.9111 24.2702 10.8037 24.3613 10.6572C24.4525 10.5075 24.5208 10.3138 24.5664 10.0762C24.6152 9.83529 24.6396 9.54557 24.6396 9.20703ZM30.9336 4.89062V12H29.5908V4.89062H30.9336ZM35.2012 4.89062L32.3496 8.35742L30.7188 10.1006L30.4795 8.79688L31.6123 7.32715L33.5557 4.89062H35.2012ZM33.707 12L31.4951 8.66992L32.457 7.80078L35.3037 12H33.707ZM36.5146 4.89062H37.6768L39.6201 10.2422L41.5586 4.89062H42.7256L40.084 12H39.1514L36.5146 4.89062ZM35.9287 4.89062H37.0664L37.2715 9.80762V12H35.9287V4.89062ZM42.1689 4.89062H43.3115V12H41.9688V9.80762L42.1689 4.89062Z" fill="black"/>
<path d="M8.5 15C7.175 15 6.09375 14.7908 5.25625 14.3722C4.41875 13.9537 4 13.413 4 12.75C4 12.3125 4.18125 11.9313 4.54375 11.6063C4.90625 11.2812 5.40625 11.025 6.04375 10.8375L6.475 12.2625C6.2625 12.325 6.06875 12.4032 5.89375 12.4972C5.71875 12.5913 5.6 12.6755 5.5375 12.75C5.7 12.95 6.075 13.125 6.6625 13.275C7.25 13.425 7.8625 13.5 8.5 13.5C9.1375 13.5 9.75325 13.425 10.3472 13.275C10.9413 13.125 11.3193 12.95 11.4813 12.75C11.4188 12.675 11.3 12.5907 11.125 12.4972C10.95 12.4038 10.7563 12.3255 10.5438 12.2625L10.975 10.8375C11.6125 11.025 12.1095 11.2812 12.466 11.6063C12.8225 11.9313 13.0005 12.3125 13 12.75C13 13.4125 12.5813 13.9532 11.7438 14.3722C10.9063 14.7913 9.825 15.0005 8.5 15ZM8.5 12.75C8.3625 12.75 8.2375 12.7095 8.125 12.6285C8.0125 12.5475 7.93125 12.438 7.88125 12.3C7.59375 11.4125 7.23125 10.6687 6.79375 10.0688C6.35625 9.46875 5.93125 8.89375 5.51875 8.34375C5.11875 7.79375 4.772 7.225 4.4785 6.6375C4.185 6.05 4.038 5.325 4.0375 4.4625C4.0375 3.2125 4.46875 2.15625 5.33125 1.29375C6.19375 0.43125 7.25 0 8.5 0C9.75 0 10.8063 0.43125 11.6688 1.29375C12.5312 2.15625 12.9625 3.2125 12.9625 4.4625C12.9625 5.325 12.8188 6.05 12.5312 6.6375C12.2437 7.225 11.8938 7.79375 11.4813 8.34375C11.0813 8.89375 10.6595 9.46875 10.216 10.0688C9.7725 10.6687 9.40675 11.4125 9.11875 12.3C9.06875 12.4375 8.9875 12.547 8.875 12.6285C8.7625 12.71 8.6375 12.7505 8.5 12.75ZM8.5 6.05625C8.9375 6.05625 9.3125 5.9 9.625 5.5875C9.9375 5.275 10.0938 4.9 10.0938 4.4625C10.0938 4.025 9.9375 3.65 9.625 3.3375C9.3125 3.025 8.9375 2.86875 8.5 2.86875C8.0625 2.86875 7.6875 3.025 7.375 3.3375C7.0625 3.65 6.90625 4.025 6.90625 4.4625C6.90625 4.9 7.0625 5.275 7.375 5.5875C7.6875 5.9 8.0625 6.05625 8.5 6.05625Z" fill="black"/>
</g>
<defs>
<filter id="filter0_d_344_3028" x="0" y="0" width="47.3115" height="23" filterUnits="userSpaceOnUse" color-interpolation-filters="sRGB">
<feFlood flood-opacity="0" result="BackgroundImageFix"/>
<feColorMatrix in="SourceAlpha" type="matrix" values="0 0 0 0 0 0 0 0 0 0 0 0 0 0 0 0 0 0 127 0" result="hardAlpha"/>
<feOffset dy="4"/>
<feGaussianBlur stdDeviation="2"/>
<feComposite in2="hardAlpha" operator="out"/>
<feColorMatrix type="matrix" values="0 0 0 0 0 0 0 0 0 0 0 0 0 0 0 0 0 0 0.25 0"/>
<feBlend mode="normal" in2="BackgroundImageFix" result="effect1_dropShadow_344_3028"/>
<feBlend mode="normal" in="SourceGraphic" in2="effect1_dropShadow_344_3028" result="shape"/>
</filter>
</defs>
</svg>
