<svg width="81" height="14" viewBox="0 0 81 14" fill="none" xmlns="http://www.w3.org/2000/svg">
<g clip-path="url(#clip0_279_3035)">
<path d="M10.4291 5.44938C10.3896 5.38805 10.3354 5.33763 10.2713 5.30277C10.2072 5.26791 10.1354 5.24972 10.0625 5.24988H6.99998V0.437382C7.00001 0.337094 6.96558 0.239841 6.90246 0.161907C6.83935 0.0839725 6.75137 0.0300891 6.65326 0.00927901C6.55516 -0.0115311 6.45288 0.00199542 6.36356 0.0475937C6.27424 0.093192 6.20329 0.168094 6.16261 0.259757L2.66261 8.13476C2.63277 8.20135 2.62011 8.27437 2.62577 8.34712C2.63143 8.41988 2.65523 8.49005 2.695 8.55123C2.73478 8.61242 2.78925 8.66265 2.85344 8.69736C2.91764 8.73206 2.98951 8.75012 3.06248 8.74988H6.12498V13.5624C6.12495 13.6627 6.15938 13.7599 6.2225 13.8379C6.28562 13.9158 6.37359 13.9697 6.4717 13.9905C6.5698 14.0113 6.67208 13.9978 6.7614 13.9522C6.85072 13.9066 6.92167 13.8317 6.96236 13.74L10.4624 5.86501C10.4919 5.79845 10.5044 5.72556 10.4985 5.65297C10.4927 5.58038 10.4689 5.51039 10.4291 5.44938Z" fill="url(#paint0_linear_279_3035)"/>
</g>
<path d="M19.4229 8.34863H17.5723V7.37695H19.4229C19.7451 7.37695 20.0055 7.32487 20.2041 7.2207C20.4027 7.11654 20.5475 6.97331 20.6387 6.79102C20.7331 6.60547 20.7803 6.39388 20.7803 6.15625C20.7803 5.93164 20.7331 5.72168 20.6387 5.52637C20.5475 5.3278 20.4027 5.16829 20.2041 5.04785C20.0055 4.92741 19.7451 4.86719 19.4229 4.86719H17.9482V11H16.7227V3.89062H19.4229C19.973 3.89062 20.4401 3.98828 20.8242 4.18359C21.2116 4.37565 21.5062 4.64258 21.708 4.98438C21.9098 5.32292 22.0107 5.71029 22.0107 6.14648C22.0107 6.60547 21.9098 6.99935 21.708 7.32812C21.5062 7.6569 21.2116 7.90918 20.8242 8.08496C20.4401 8.26074 19.973 8.34863 19.4229 8.34863ZM24.1738 6.72266V11H22.9971V5.7168H24.1201L24.1738 6.72266ZM25.79 5.68262L25.7803 6.77637C25.7087 6.76335 25.6305 6.75358 25.5459 6.74707C25.4645 6.74056 25.3831 6.7373 25.3018 6.7373C25.0999 6.7373 24.9225 6.7666 24.7695 6.8252C24.6165 6.88053 24.488 6.96191 24.3838 7.06934C24.2829 7.1735 24.2048 7.30046 24.1494 7.4502C24.0941 7.59993 24.0615 7.76758 24.0518 7.95312L23.7832 7.97266C23.7832 7.64062 23.8158 7.33301 23.8809 7.0498C23.946 6.7666 24.0436 6.51758 24.1738 6.30273C24.3073 6.08789 24.4733 5.92025 24.6719 5.7998C24.8737 5.67936 25.1064 5.61914 25.3701 5.61914C25.4417 5.61914 25.5182 5.62565 25.5996 5.63867C25.6842 5.65169 25.7477 5.66634 25.79 5.68262ZM27.7871 5.7168V11H26.6055V5.7168H27.7871ZM26.5273 4.33008C26.5273 4.15104 26.5859 4.00293 26.7031 3.88574C26.8236 3.7653 26.9896 3.70508 27.2012 3.70508C27.4095 3.70508 27.5739 3.7653 27.6943 3.88574C27.8148 4.00293 27.875 4.15104 27.875 4.33008C27.875 4.50586 27.8148 4.65234 27.6943 4.76953C27.5739 4.88672 27.4095 4.94531 27.2012 4.94531C26.9896 4.94531 26.8236 4.88672 26.7031 4.76953C26.5859 4.65234 26.5273 4.50586 26.5273 4.33008ZM28.8516 8.41699V8.30469C28.8516 7.92383 28.9069 7.57064 29.0176 7.24512C29.1283 6.91634 29.2878 6.63151 29.4961 6.39062C29.7077 6.14648 29.9648 5.95768 30.2676 5.82422C30.5736 5.6875 30.9186 5.61914 31.3027 5.61914C31.6901 5.61914 32.0352 5.6875 32.3379 5.82422C32.6439 5.95768 32.9027 6.14648 33.1143 6.39062C33.3258 6.63151 33.487 6.91634 33.5977 7.24512C33.7083 7.57064 33.7637 7.92383 33.7637 8.30469V8.41699C33.7637 8.79785 33.7083 9.15104 33.5977 9.47656C33.487 9.80208 33.3258 10.0869 33.1143 10.3311C32.9027 10.5719 32.6455 10.7607 32.3428 10.8975C32.04 11.0309 31.6966 11.0977 31.3125 11.0977C30.9251 11.0977 30.5785 11.0309 30.2725 10.8975C29.9697 10.7607 29.7126 10.5719 29.501 10.3311C29.2894 10.0869 29.1283 9.80208 29.0176 9.47656C28.9069 9.15104 28.8516 8.79785 28.8516 8.41699ZM30.0283 8.30469V8.41699C30.0283 8.65462 30.0527 8.87923 30.1016 9.09082C30.1504 9.30241 30.2269 9.48796 30.3311 9.64746C30.4352 9.80697 30.5687 9.93229 30.7314 10.0234C30.8942 10.1146 31.0879 10.1602 31.3125 10.1602C31.5306 10.1602 31.7194 10.1146 31.8789 10.0234C32.0417 9.93229 32.1751 9.80697 32.2793 9.64746C32.3835 9.48796 32.46 9.30241 32.5088 9.09082C32.5609 8.87923 32.5869 8.65462 32.5869 8.41699V8.30469C32.5869 8.07031 32.5609 7.84896 32.5088 7.64062C32.46 7.42904 32.3818 7.24186 32.2744 7.0791C32.1702 6.91634 32.0368 6.78939 31.874 6.69824C31.7145 6.60384 31.5241 6.55664 31.3027 6.55664C31.0814 6.55664 30.8893 6.60384 30.7266 6.69824C30.5671 6.78939 30.4352 6.91634 30.3311 7.0791C30.2269 7.24186 30.1504 7.42904 30.1016 7.64062C30.0527 7.84896 30.0283 8.07031 30.0283 8.30469ZM35.9316 6.72266V11H34.7549V5.7168H35.8779L35.9316 6.72266ZM37.5479 5.68262L37.5381 6.77637C37.4665 6.76335 37.3883 6.75358 37.3037 6.74707C37.2223 6.74056 37.141 6.7373 37.0596 6.7373C36.8577 6.7373 36.6803 6.7666 36.5273 6.8252C36.3743 6.88053 36.2458 6.96191 36.1416 7.06934C36.0407 7.1735 35.9626 7.30046 35.9072 7.4502C35.8519 7.59993 35.8193 7.76758 35.8096 7.95312L35.541 7.97266C35.541 7.64062 35.5736 7.33301 35.6387 7.0498C35.7038 6.7666 35.8014 6.51758 35.9316 6.30273C36.0651 6.08789 36.2311 5.92025 36.4297 5.7998C36.6315 5.67936 36.8643 5.61914 37.1279 5.61914C37.1995 5.61914 37.276 5.62565 37.3574 5.63867C37.4421 5.65169 37.5055 5.66634 37.5479 5.68262ZM39.5449 5.7168V11H38.3633V5.7168H39.5449ZM38.2852 4.33008C38.2852 4.15104 38.3438 4.00293 38.4609 3.88574C38.5814 3.7653 38.7474 3.70508 38.959 3.70508C39.1673 3.70508 39.3317 3.7653 39.4521 3.88574C39.5726 4.00293 39.6328 4.15104 39.6328 4.33008C39.6328 4.50586 39.5726 4.65234 39.4521 4.76953C39.3317 4.88672 39.1673 4.94531 38.959 4.94531C38.7474 4.94531 38.5814 4.88672 38.4609 4.76953C38.3438 4.65234 38.2852 4.50586 38.2852 4.33008ZM43.2559 5.7168V6.57617H40.2773V5.7168H43.2559ZM41.1367 4.42285H42.3135V9.54004C42.3135 9.7028 42.3363 9.82812 42.3818 9.91602C42.4307 10.0007 42.4974 10.0576 42.582 10.0869C42.6667 10.1162 42.766 10.1309 42.8799 10.1309C42.9613 10.1309 43.0394 10.126 43.1143 10.1162C43.1891 10.1064 43.2493 10.0967 43.2949 10.0869L43.2998 10.9854C43.2021 11.0146 43.0882 11.0407 42.958 11.0635C42.8311 11.0863 42.6846 11.0977 42.5186 11.0977C42.2484 11.0977 42.0091 11.0505 41.8008 10.9561C41.5924 10.8584 41.4297 10.7005 41.3125 10.4824C41.1953 10.2643 41.1367 9.97461 41.1367 9.61328V4.42285ZM45.6973 10.4238L47.1328 5.7168H48.3926L46.2734 11.8057C46.2246 11.9359 46.1611 12.0775 46.083 12.2305C46.0049 12.3835 45.9023 12.5283 45.7754 12.665C45.6517 12.805 45.4971 12.9173 45.3115 13.002C45.126 13.0898 44.9014 13.1338 44.6377 13.1338C44.5335 13.1338 44.4326 13.124 44.335 13.1045C44.2406 13.0882 44.151 13.0703 44.0664 13.0508L44.0615 12.1523C44.0941 12.1556 44.1331 12.1589 44.1787 12.1621C44.2275 12.1654 44.2666 12.167 44.2959 12.167C44.4912 12.167 44.654 12.1426 44.7842 12.0938C44.9144 12.0482 45.0202 11.9733 45.1016 11.8691C45.1862 11.765 45.2578 11.625 45.3164 11.4492L45.6973 10.4238ZM44.8867 5.7168L46.1416 9.67188L46.3516 10.9121L45.5361 11.1221L43.6172 5.7168H44.8867ZM52.7383 6.73242V13.0312H51.5615V5.7168H52.6455L52.7383 6.73242ZM56.1807 8.30957V8.41211C56.1807 8.79622 56.1351 9.15267 56.0439 9.48145C55.9561 9.80697 55.8242 10.0918 55.6484 10.3359C55.4759 10.5768 55.2627 10.764 55.0088 10.8975C54.7549 11.0309 54.4619 11.0977 54.1299 11.0977C53.8011 11.0977 53.513 11.0374 53.2656 10.917C53.0215 10.7933 52.8148 10.6191 52.6455 10.3945C52.4762 10.1699 52.3395 9.90625 52.2354 9.60352C52.1344 9.29753 52.0628 8.96224 52.0205 8.59766V8.20215C52.0628 7.81478 52.1344 7.46322 52.2354 7.14746C52.3395 6.83171 52.4762 6.5599 52.6455 6.33203C52.8148 6.10417 53.0215 5.92839 53.2656 5.80469C53.5098 5.68099 53.7946 5.61914 54.1201 5.61914C54.4521 5.61914 54.7467 5.68424 55.0039 5.81445C55.2611 5.94141 55.4775 6.1237 55.6533 6.36133C55.8291 6.5957 55.9609 6.87891 56.0488 7.21094C56.1367 7.53971 56.1807 7.90592 56.1807 8.30957ZM55.0039 8.41211V8.30957C55.0039 8.06543 54.9811 7.83919 54.9355 7.63086C54.89 7.41927 54.8184 7.23372 54.7207 7.07422C54.623 6.91471 54.4977 6.79102 54.3447 6.70312C54.195 6.61198 54.0143 6.56641 53.8027 6.56641C53.5944 6.56641 53.4154 6.60221 53.2656 6.67383C53.1159 6.74219 52.9906 6.83822 52.8896 6.96191C52.7887 7.08561 52.7106 7.23047 52.6553 7.39648C52.5999 7.55924 52.5609 7.73665 52.5381 7.92871V8.87598C52.5771 9.11035 52.6439 9.3252 52.7383 9.52051C52.8327 9.71582 52.9661 9.87207 53.1387 9.98926C53.3145 10.1032 53.5391 10.1602 53.8125 10.1602C54.0241 10.1602 54.2048 10.1146 54.3545 10.0234C54.5042 9.93229 54.6263 9.80697 54.7207 9.64746C54.8184 9.4847 54.89 9.29753 54.9355 9.08594C54.9811 8.87435 55.0039 8.64974 55.0039 8.41211ZM58.4414 5.7168V11H57.2598V5.7168H58.4414ZM57.1816 4.33008C57.1816 4.15104 57.2402 4.00293 57.3574 3.88574C57.4779 3.7653 57.6439 3.70508 57.8555 3.70508C58.0638 3.70508 58.2282 3.7653 58.3486 3.88574C58.4691 4.00293 58.5293 4.15104 58.5293 4.33008C58.5293 4.50586 58.4691 4.65234 58.3486 4.76953C58.2282 4.88672 58.0638 4.94531 57.8555 4.94531C57.6439 4.94531 57.4779 4.88672 57.3574 4.76953C57.2402 4.65234 57.1816 4.50586 57.1816 4.33008ZM61.8887 10.1602C62.0807 10.1602 62.2533 10.1227 62.4062 10.0479C62.5625 9.96973 62.6878 9.8623 62.7822 9.72559C62.8799 9.58887 62.9336 9.43099 62.9434 9.25195H64.0518C64.0452 9.59375 63.9443 9.90462 63.749 10.1846C63.5537 10.4645 63.2949 10.6875 62.9727 10.8535C62.6504 11.0163 62.2939 11.0977 61.9033 11.0977C61.4997 11.0977 61.1481 11.0293 60.8486 10.8926C60.5492 10.7526 60.3001 10.5605 60.1016 10.3164C59.903 10.0723 59.7533 9.79069 59.6523 9.47168C59.5547 9.15267 59.5059 8.81087 59.5059 8.44629V8.27539C59.5059 7.91081 59.5547 7.56901 59.6523 7.25C59.7533 6.92773 59.903 6.64453 60.1016 6.40039C60.3001 6.15625 60.5492 5.96582 60.8486 5.8291C61.1481 5.68913 61.498 5.61914 61.8984 5.61914C62.3216 5.61914 62.6927 5.70378 63.0117 5.87305C63.3307 6.03906 63.5814 6.27181 63.7637 6.57129C63.9492 6.86751 64.0452 7.21257 64.0518 7.60645H62.9434C62.9336 7.41113 62.8848 7.23535 62.7969 7.0791C62.7122 6.9196 62.5918 6.79264 62.4355 6.69824C62.2826 6.60384 62.0986 6.55664 61.8838 6.55664C61.6462 6.55664 61.4492 6.60547 61.293 6.70312C61.1367 6.79753 61.0146 6.92773 60.9268 7.09375C60.8389 7.25651 60.7754 7.44043 60.7363 7.64551C60.7005 7.84733 60.6826 8.05729 60.6826 8.27539V8.44629C60.6826 8.66439 60.7005 8.87598 60.7363 9.08105C60.7721 9.28613 60.834 9.47005 60.9219 9.63281C61.013 9.79232 61.1367 9.9209 61.293 10.0186C61.4492 10.113 61.6478 10.1602 61.8887 10.1602ZM66.1416 3.5V11H64.96V3.5H66.1416ZM69.4229 5.7168L67.123 8.26562L65.8633 9.55469L65.5557 8.55859L66.5078 7.38184L68.002 5.7168H69.4229ZM68.2559 11L66.542 8.51953L67.2842 7.69434L69.6182 11H68.2559ZM73.3486 9.75488V5.7168H74.5303V11H73.417L73.3486 9.75488ZM73.5146 8.65625L73.9102 8.64648C73.9102 9.0013 73.8711 9.32845 73.793 9.62793C73.7148 9.92415 73.5944 10.1829 73.4316 10.4043C73.2689 10.6224 73.0605 10.7933 72.8066 10.917C72.5527 11.0374 72.2484 11.0977 71.8936 11.0977C71.6364 11.0977 71.4004 11.0602 71.1855 10.9854C70.9707 10.9105 70.7852 10.7949 70.6289 10.6387C70.4759 10.4824 70.3571 10.279 70.2725 10.0283C70.1878 9.77767 70.1455 9.47819 70.1455 9.12988V5.7168H71.3223V9.13965C71.3223 9.33171 71.3451 9.49284 71.3906 9.62305C71.4362 9.75 71.498 9.85254 71.5762 9.93066C71.6543 10.0088 71.7454 10.0641 71.8496 10.0967C71.9538 10.1292 72.0645 10.1455 72.1816 10.1455C72.5169 10.1455 72.7806 10.0804 72.9727 9.9502C73.168 9.81673 73.3063 9.6377 73.3877 9.41309C73.4723 9.18848 73.5146 8.9362 73.5146 8.65625ZM76.918 6.73242V13.0312H75.7412V5.7168H76.8252L76.918 6.73242ZM80.3604 8.30957V8.41211C80.3604 8.79622 80.3148 9.15267 80.2236 9.48145C80.1357 9.80697 80.0039 10.0918 79.8281 10.3359C79.6556 10.5768 79.4424 10.764 79.1885 10.8975C78.9346 11.0309 78.6416 11.0977 78.3096 11.0977C77.9808 11.0977 77.6927 11.0374 77.4453 10.917C77.2012 10.7933 76.9945 10.6191 76.8252 10.3945C76.6559 10.1699 76.5192 9.90625 76.415 9.60352C76.3141 9.29753 76.2425 8.96224 76.2002 8.59766V8.20215C76.2425 7.81478 76.3141 7.46322 76.415 7.14746C76.5192 6.83171 76.6559 6.5599 76.8252 6.33203C76.9945 6.10417 77.2012 5.92839 77.4453 5.80469C77.6895 5.68099 77.9743 5.61914 78.2998 5.61914C78.6318 5.61914 78.9264 5.68424 79.1836 5.81445C79.4408 5.94141 79.6572 6.1237 79.833 6.36133C80.0088 6.5957 80.1406 6.87891 80.2285 7.21094C80.3164 7.53971 80.3604 7.90592 80.3604 8.30957ZM79.1836 8.41211V8.30957C79.1836 8.06543 79.1608 7.83919 79.1152 7.63086C79.0697 7.41927 78.998 7.23372 78.9004 7.07422C78.8027 6.91471 78.6774 6.79102 78.5244 6.70312C78.3747 6.61198 78.194 6.56641 77.9824 6.56641C77.7741 6.56641 77.5951 6.60221 77.4453 6.67383C77.2956 6.74219 77.1702 6.83822 77.0693 6.96191C76.9684 7.08561 76.8903 7.23047 76.835 7.39648C76.7796 7.55924 76.7406 7.73665 76.7178 7.92871V8.87598C76.7568 9.11035 76.8236 9.3252 76.918 9.52051C77.0124 9.71582 77.1458 9.87207 77.3184 9.98926C77.4941 10.1032 77.7188 10.1602 77.9922 10.1602C78.2038 10.1602 78.3844 10.1146 78.5342 10.0234C78.6839 9.93229 78.806 9.80697 78.9004 9.64746C78.998 9.4847 79.0697 9.29753 79.1152 9.08594C79.1608 8.87435 79.1836 8.64974 79.1836 8.41211Z" fill="#FBB03B"/>
<defs>
<linearGradient id="paint0_linear_279_3035" x1="6.56219" y1="-0.000244141" x2="6.56219" y2="14" gradientUnits="userSpaceOnUse">
<stop stop-color="#FBBD00"/>
<stop offset="1" stop-color="#FEBF02"/>
</linearGradient>
<clipPath id="clip0_279_3035">
<rect width="14" height="14" fill="white"/>
</clipPath>
</defs>
</svg>
