<svg width="20" height="14" viewBox="0 0 20 14" fill="none" xmlns="http://www.w3.org/2000/svg">
<path fill-rule="evenodd" clip-rule="evenodd" d="M0.718803 6.99991C0.718803 6.72641 0.827452 6.4641 1.02085 6.27071C1.21425 6.07731 1.47655 5.96866 1.75005 5.96866L15.7613 5.96866L12.0213 2.22866C11.8391 2.03317 11.74 1.77461 11.7447 1.50744C11.7494 1.24028 11.8576 0.985374 12.0466 0.796431C12.2355 0.607488 12.4904 0.499259 12.7576 0.494545C13.0247 0.489832 13.2833 0.589001 13.4788 0.771161L18.9788 6.27116C19.1719 6.46452 19.2804 6.72663 19.2804 6.99991C19.2804 7.27319 19.1719 7.5353 18.9788 7.72866L13.4788 13.2287C13.2833 13.4108 13.0247 13.51 12.7576 13.5053C12.4904 13.5006 12.2355 13.3923 12.0466 13.2034C11.8576 13.0144 11.7494 12.7595 11.7447 12.4924C11.74 12.2252 11.8391 11.9667 12.0213 11.7712L15.7613 8.03116H1.75005C1.47655 8.03116 1.21425 7.92251 1.02085 7.72911C0.827452 7.53572 0.718803 7.27342 0.718803 6.99991Z" fill="#9A97A5"/>
</svg>
