<svg width="32" height="32" viewBox="0 0 32 32" fill="none" xmlns="http://www.w3.org/2000/svg">
<path d="M16.96 9.05731L10.907 12.1103L8.5 10.9433L14.447 8.05031C14.5144 8.01721 14.5884 8 14.6635 8C14.7386 8 14.8126 8.01721 14.88 8.05031L16.96 9.05731ZM20.833 10.9433L14.673 13.9503L12.367 12.8303L12.033 12.6633L18.093 9.61031L18.427 9.77731L20.833 10.9433ZM14.173 18.2633C13.9435 19.1785 13.9435 20.1361 14.173 21.0513V21.1443L8.273 18.1113C8.19133 18.0684 8.12281 18.0042 8.07473 17.9255C8.02666 17.8468 8.00083 17.7565 8 17.6643V11.8113L10.5 13.0243V15.1573C10.5 15.4303 10.727 15.6573 11 15.6573C11.273 15.6573 11.5 15.4303 11.5 15.1573V13.5173L11.833 13.6773L14.18 14.8173L14.173 18.2633ZM21.34 14.2503C20.7986 14.0809 20.2343 13.9956 19.667 13.9973C18.7993 13.9966 17.9432 14.1959 17.165 14.5797C16.3868 14.9635 15.7076 15.5215 15.18 16.2103V14.8103L21.333 11.8173C21.34 12.3773 21.34 13.4703 21.34 14.2503Z" fill="#7A5AF8"/>
<path d="M24 19.9961C24 22.2052 22.2091 23.9961 20 23.9961C17.7909 23.9961 16 22.2052 16 19.9961C16 17.787 17.7909 15.9961 20 15.9961C22.2091 15.9961 24 17.787 24 19.9961Z" fill="#B8A6E7"/>
<path d="M19.8389 20.9961H17.8829V20.6241L18.6109 19.8881C18.7549 19.7414 18.8723 19.6161 18.9629 19.5121C19.0563 19.4054 19.1243 19.3068 19.1669 19.2161C19.2123 19.1254 19.2349 19.0268 19.2349 18.9201C19.2349 18.7894 19.1976 18.6921 19.1229 18.6281C19.0483 18.5614 18.9496 18.5281 18.8269 18.5281C18.7069 18.5281 18.5949 18.5534 18.4909 18.6041C18.3869 18.6521 18.2789 18.7214 18.1669 18.8121L17.8909 18.4801C17.9709 18.4108 18.0563 18.3481 18.1469 18.2921C18.2376 18.2334 18.3403 18.1868 18.4549 18.1521C18.5696 18.1174 18.7029 18.1001 18.8549 18.1001C19.0389 18.1001 19.1963 18.1334 19.3269 18.2001C19.4603 18.2641 19.5629 18.3534 19.6349 18.4681C19.7069 18.5828 19.7429 18.7161 19.7429 18.8681C19.7429 18.9854 19.7256 19.0948 19.6909 19.1961C19.6563 19.2948 19.6056 19.3921 19.5389 19.4881C19.4723 19.5841 19.3909 19.6814 19.2949 19.7801C19.1989 19.8788 19.0909 19.9854 18.9709 20.1001L18.5189 20.5361V20.5601H19.8389V20.9961Z" fill="#FFFFFE"/>
<path d="M21.164 19.2001C21.3453 19.2001 21.5053 19.2334 21.644 19.3001C21.7827 19.3668 21.8907 19.4641 21.968 19.5921C22.048 19.7174 22.088 19.8721 22.088 20.0561C22.088 20.2588 22.0453 20.4334 21.96 20.5801C21.8747 20.7268 21.7493 20.8401 21.584 20.9201C21.4187 20.9974 21.216 21.0361 20.976 21.0361C20.8267 21.0361 20.6867 21.0228 20.556 20.9961C20.4253 20.9694 20.312 20.9308 20.216 20.8801V20.4321C20.3147 20.4854 20.4333 20.5294 20.572 20.5641C20.7107 20.5988 20.8413 20.6161 20.964 20.6161C21.092 20.6161 21.2013 20.5988 21.292 20.5641C21.3827 20.5268 21.452 20.4708 21.5 20.3961C21.548 20.3188 21.572 20.2214 21.572 20.1041C21.572 19.9441 21.5213 19.8228 21.42 19.7401C21.3187 19.6574 21.1613 19.6161 20.948 19.6161C20.8733 19.6161 20.792 19.6228 20.704 19.6361C20.6187 19.6494 20.548 19.6628 20.492 19.6761L20.276 19.5561L20.384 18.1401H21.888V18.5801H20.828L20.768 19.2401C20.8133 19.2321 20.8667 19.2241 20.928 19.2161C20.992 19.2054 21.0707 19.2001 21.164 19.2001Z" fill="#FFFFFE"/>
<path d="M26 32H6C4.4087 32 2.88258 31.3679 1.75736 30.2426C0.632141 29.1174 0 27.5913 0 26L0 6C0 4.4087 0.632141 2.88258 1.75736 1.75736C2.88258 0.632141 4.4087 0 6 0L26 0C27.5913 0 29.1174 0.632141 30.2426 1.75736C31.3679 2.88258 32 4.4087 32 6V26C32 27.5913 31.3679 29.1174 30.2426 30.2426C29.1174 31.3679 27.5913 32 26 32Z" fill="#7A5AF8" fill-opacity="0.1"/>
</svg>
