<svg width="32" height="32" viewBox="0 0 32 32" fill="none" xmlns="http://www.w3.org/2000/svg">
<g clip-path="url(#clip0_29_8422)">
<path d="M26 32H6C4.4087 32 2.88258 31.3679 1.75736 30.2426C0.632141 29.1174 0 27.5913 0 26L0 6C0 4.4087 0.632141 2.88258 1.75736 1.75736C2.88258 0.632141 4.4087 0 6 0L26 0C27.5913 0 29.1174 0.632141 30.2426 1.75736C31.3679 2.88258 32 4.4087 32 6V26C32 27.5913 31.3679 29.1174 30.2426 30.2426C29.1174 31.3679 27.5913 32 26 32Z" fill="#7A5AF8" fill-opacity="0.1"/>
<path fill-rule="evenodd" clip-rule="evenodd" d="M22.099 19.247L23.372 20.666C23.5175 20.8285 23.5415 21.066 23.4305 21.254C23.32 21.4415 23.1005 21.536 22.888 21.4875L20.5315 20.9455C19.9365 21.2975 19.2415 21.5 18.5 21.5C16.2925 21.5 14.5 19.7075 14.5 17.5C14.5 15.2925 16.2925 13.5 18.5 13.5C20.7075 13.5 22.5 15.2925 22.5 17.5C22.5 18.126 22.356 18.719 22.099 19.247Z" fill="#B8A6E7"/>
<path fill-rule="evenodd" clip-rule="evenodd" d="M18 13.531C19.972 13.7775 21.5 15.4615 21.5 17.5C21.5 18.126 21.356 18.719 21.099 19.247L22.372 20.666C22.5175 20.8285 22.5415 21.066 22.4305 21.254C22.4065 21.2945 22.3775 21.331 22.3445 21.3625L20.5315 20.9455C20.434 21.0035 20.334 21.057 20.231 21.1065L19.5315 20.9455C19.072 21.2175 18.5535 21.4 18 21.469C16.028 21.2225 14.5 19.5385 14.5 17.5C14.5 15.4615 16.028 13.7775 18 13.531Z" fill="#9A7CE6"/>
<path fill-rule="evenodd" clip-rule="evenodd" d="M20 17C20.276 17 20.5 17.224 20.5 17.5C20.5 17.776 20.276 18 20 18C19.724 18 19.5 17.776 19.5 17.5C19.5 17.224 19.724 17 20 17ZM18.5 17C18.776 17 19 17.224 19 17.5C19 17.776 18.776 18 18.5 18C18.224 18 18 17.776 18 17.5C18 17.224 18.224 17 18.5 17Z" fill="#F2F6F8"/>
<path fill-rule="evenodd" clip-rule="evenodd" d="M9.90098 16.247L8.62798 17.666C8.48248 17.8285 8.45848 18.066 8.56948 18.254C8.67998 18.4415 8.89948 18.536 9.11198 18.4875L11.4685 17.9455C12.0635 18.2975 12.7585 18.5 13.5 18.5C15.7075 18.5 17.5 16.7075 17.5 14.5C17.5 12.2925 15.7075 10.5 13.5 10.5C11.2925 10.5 9.49998 12.2925 9.49998 14.5C9.49998 15.126 9.64398 15.719 9.90098 16.247Z" fill="#B8A6E7"/>
<path fill-rule="evenodd" clip-rule="evenodd" d="M13 10.531C11.028 10.7775 9.49998 12.4615 9.49998 14.5C9.49998 15.126 9.64398 15.719 9.90098 16.247L8.62798 17.666C8.48248 17.8285 8.45848 18.066 8.56948 18.254C8.59348 18.2945 8.62248 18.331 8.65548 18.3625L10.4685 17.9455C10.566 18.0035 10.666 18.057 10.769 18.1065L11.4685 17.9455C11.928 18.2175 12.4465 18.4 13 18.469C14.972 18.2225 16.5 16.5385 16.5 14.5C16.5 12.4615 14.972 10.7775 13 10.531Z" fill="#7A5AF8"/>
<path fill-rule="evenodd" clip-rule="evenodd" d="M12 14C11.724 14 11.5 14.224 11.5 14.5C11.5 14.776 11.724 15 12 15C12.276 15 12.5 14.776 12.5 14.5C12.5 14.224 12.276 14 12 14ZM13.5 14C13.224 14 13 14.224 13 14.5C13 14.776 13.224 15 13.5 15C13.776 15 14 14.776 14 14.5C14 14.224 13.776 14 13.5 14ZM15 14C14.724 14 14.5 14.224 14.5 14.5C14.5 14.776 14.724 15 15 15C15.276 15 15.5 14.776 15.5 14.5C15.5 14.224 15.276 14 15 14Z" fill="#B8A6E7"/>
</g>
<defs>
<clipPath id="clip0_29_8422">
<rect width="32" height="32" fill="white"/>
</clipPath>
</defs>
</svg>
