<svg width="32" height="32" viewBox="0 0 32 32" fill="none" xmlns="http://www.w3.org/2000/svg">
<path d="M26 32H6C4.4087 32 2.88258 31.3679 1.75736 30.2426C0.632141 29.1174 0 27.5913 0 26L0 6C0 4.4087 0.632141 2.88258 1.75736 1.75736C2.88258 0.632141 4.4087 0 6 0L26 0C27.5913 0 29.1174 0.632141 30.2426 1.75736C31.3679 2.88258 32 4.4087 32 6V26C32 27.5913 31.3679 29.1174 30.2426 30.2426C29.1174 31.3679 27.5913 32 26 32Z" fill="#7A5AF8" fill-opacity="0.1"/>
<path d="M19.667 15.3303C17.278 15.3303 15.334 17.2743 15.334 19.6633C15.334 22.0523 17.278 23.9963 19.667 23.9963C22.056 23.9963 24 22.0533 24 19.6643C24 17.2753 22.056 15.3303 19.667 15.3303ZM21.545 18.8243L19.378 21.3243C19.333 21.3762 19.2778 21.4182 19.2159 21.4478C19.1539 21.4774 19.0866 21.4939 19.018 21.4963H19C18.8673 21.4964 18.74 21.4439 18.646 21.3503L17.479 20.1833C17.3879 20.089 17.3375 19.9627 17.3386 19.8316C17.3398 19.7005 17.3924 19.5751 17.4851 19.4824C17.5778 19.3897 17.7032 19.3371 17.8343 19.336C17.9654 19.3348 18.0917 19.3852 18.186 19.4763L18.973 20.2633L20.788 18.1693C20.8748 18.0689 20.998 18.0072 21.1304 17.9976C21.2628 17.988 21.3936 18.0315 21.494 18.1183C21.5944 18.2052 21.6561 18.3284 21.6657 18.4608C21.6753 18.5932 21.6318 18.7239 21.545 18.8243Z" fill="#B8A6E7"/>
<path d="M16.96 9.05731L10.907 12.1103L8.5 10.9433L14.447 8.05031C14.5144 8.01721 14.5884 8 14.6635 8C14.7386 8 14.8126 8.01721 14.88 8.05031L16.96 9.05731ZM20.833 10.9433L14.673 13.9503L12.367 12.8303L12.033 12.6633L18.093 9.61031L18.427 9.77731L20.833 10.9433ZM14.173 18.2633C13.9435 19.1785 13.9435 20.1361 14.173 21.0513V21.1443L8.273 18.1113C8.19133 18.0684 8.12281 18.0042 8.07473 17.9255C8.02666 17.8468 8.00083 17.7565 8 17.6643V11.8113L10.5 13.0243V15.1573C10.5 15.4303 10.727 15.6573 11 15.6573C11.273 15.6573 11.5 15.4303 11.5 15.1573V13.5173L11.833 13.6773L14.18 14.8173L14.173 18.2633ZM21.34 14.2503C20.7986 14.0809 20.2343 13.9956 19.667 13.9973C18.7993 13.9966 17.9432 14.1959 17.165 14.5797C16.3868 14.9635 15.7076 15.5215 15.18 16.2103V14.8103L21.333 11.8173C21.34 12.3773 21.34 13.4703 21.34 14.2503Z" fill="#7A5AF8"/>
</svg>
