<svg width="32" height="32" viewBox="0 0 32 32" fill="none" xmlns="http://www.w3.org/2000/svg">
<g clip-path="url(#clip0_29_8444)">
<path d="M26 32H6C4.4087 32 2.88258 31.3679 1.75736 30.2426C0.632141 29.1174 0 27.5913 0 26L0 6C0 4.4087 0.632141 2.88258 1.75736 1.75736C2.88258 0.632141 4.4087 0 6 0L26 0C27.5913 0 29.1174 0.632141 30.2426 1.75736C31.3679 2.88258 32 4.4087 32 6V26C32 27.5913 31.3679 29.1174 30.2426 30.2426C29.1174 31.3679 27.5913 32 26 32Z" fill="#7A5AF8" fill-opacity="0.1"/>
<path d="M20.3215 8H13.9115C12.9857 8 12.233 8.822 12.233 9.833V11.455C12.4299 11.379 12.6341 11.333 12.8438 11.333C13.3328 11.333 13.7925 11.541 14.1386 11.919L16.5808 14.586C16.927 14.964 17.1174 15.466 17.1174 16C17.1174 16.534 16.927 17.036 16.5808 17.414L14.1386 20.081C13.7925 20.459 13.3328 20.667 12.8438 20.667C12.6341 20.667 12.4299 20.621 12.233 20.545V22.167C12.233 23.178 12.9857 24 13.9115 24H20.3215C21.2473 24 22 23.178 22 22.167V9.833C22 8.822 21.2473 8 20.3215 8Z" fill="#744ED5"/>
<path d="M12.8092 18.9544C12.6008 18.8617 12.4652 18.643 12.4652 18.4001V16.6002H8.55835C8.24946 16.6002 8 16.3312 8 16C8 15.6688 8.2503 15.3997 8.55835 15.3997H12.4652V13.5999C12.4652 13.3569 12.6008 13.1383 12.8092 13.0456C13.0176 12.9529 13.2579 13.0042 13.4178 13.1761L15.6504 15.5761C15.868 15.8101 15.868 16.1899 15.6504 16.4247L13.4178 18.8248C13.2579 18.9958 13.0176 19.0471 12.8092 18.9544Z" fill="#B8A6E7"/>
</g>
<defs>
<clipPath id="clip0_29_8444">
<rect width="32" height="32" fill="white"/>
</clipPath>
</defs>
</svg>
