<svg width="35" height="32" viewBox="0 0 35 32" fill="none" xmlns="http://www.w3.org/2000/svg">
<g clip-path="url(#clip0_29_8402)">
<path d="M25.1792 19.501C25.0392 19.501 24.905 19.5537 24.806 19.6474C24.7071 19.7412 24.6515 19.8684 24.6515 20.001C24.6515 21.655 23.2309 23.001 21.4852 23.001C19.7396 23.001 18.319 21.655 18.319 20.001C18.319 18.347 19.7396 17.001 21.4852 17.001C22.2156 17.001 22.9111 17.244 23.4631 17.668H22.7158C22.5759 17.668 22.4417 17.7207 22.3427 17.8144C22.2437 17.9082 22.1881 18.0354 22.1881 18.168C22.1881 18.3006 22.2437 18.4278 22.3427 18.5215C22.4417 18.6153 22.5759 18.668 22.7158 18.668H24.4752C24.6152 18.668 24.7494 18.6153 24.8483 18.5215C24.9473 18.4278 25.0029 18.3006 25.0029 18.168V16.501C25.0029 16.3684 24.9473 16.2412 24.8483 16.1474C24.7494 16.0537 24.6152 16.001 24.4752 16.001C24.3353 16.001 24.201 16.0537 24.1021 16.1474C24.0031 16.2412 23.9475 16.3684 23.9475 16.501V16.762C23.2318 16.2689 22.3701 16.0026 21.4852 16.001C19.157 16.001 17.2636 17.795 17.2636 20.001C17.2636 22.207 19.157 24.001 21.4852 24.001C23.8135 24.001 25.7069 22.207 25.7069 20.001C25.7069 19.8684 25.6513 19.7412 25.5523 19.6474C25.4533 19.5537 25.3191 19.501 25.1792 19.501Z" fill="#B8A6E7"/>
<path d="M18.2768 9.06097L11.8884 12.114L9.34808 10.947L15.6246 8.05397C15.6957 8.02087 15.7739 8.00366 15.8531 8.00366C15.9323 8.00366 16.0105 8.02087 16.0816 8.05397L18.2768 9.06097ZM22.3644 10.947L15.8631 13.954L13.4293 12.834L13.0768 12.667L19.4726 9.61397L19.8251 9.78097L22.3644 10.947ZM15.3428 14.821L15.3354 21.148L9.1085 18.115C9.0223 18.0721 8.94999 18.0079 8.89925 17.9292C8.84851 17.8505 8.82125 17.7602 8.82037 17.668V11.815L11.4589 13.028V15.161C11.4589 15.434 11.6985 15.661 11.9866 15.661C12.2747 15.661 12.5143 15.434 12.5143 15.161V13.521L12.8657 13.681L15.3428 14.821ZM22.8995 14.841C22.4377 14.7267 21.9625 14.6686 21.4853 14.668C20.4184 14.6688 19.3738 14.9569 18.4732 15.4986C17.5725 16.0404 16.8529 16.8136 16.3982 17.728V14.815L22.8921 11.822C22.8995 12.547 22.8995 14.167 22.8995 14.841Z" fill="#7A5AF8"/>
<path d="M27.8177 32H6.70958C5.03011 32 3.41943 31.3679 2.23187 30.2426C1.0443 29.1174 0.377136 27.5913 0.377136 26L0.377136 6C0.377136 4.4087 1.0443 2.88258 2.23187 1.75736C3.41943 0.632141 5.03011 0 6.70958 0L27.8177 0C29.4972 0 31.1079 0.632141 32.2954 1.75736C33.483 2.88258 34.1502 4.4087 34.1502 6V26C34.1502 27.5913 33.483 29.1174 32.2954 30.2426C31.1079 31.3679 29.4972 32 27.8177 32Z" fill="#7A5AF8" fill-opacity="0.1"/>
</g>
<defs>
<clipPath id="clip0_29_8402">
<rect width="33.773" height="32" fill="white" transform="translate(0.377136)"/>
</clipPath>
</defs>
</svg>
