<svg width="32" height="32" viewBox="0 0 32 32" fill="none" xmlns="http://www.w3.org/2000/svg">
<g clip-path="url(#clip0_29_8412)">
<path d="M26 32H6C4.4087 32 2.88258 31.3679 1.75736 30.2426C0.632141 29.1174 0 27.5913 0 26L0 6C0 4.4087 0.632141 2.88258 1.75736 1.75736C2.88258 0.632141 4.4087 0 6 0L26 0C27.5913 0 29.1174 0.632141 30.2426 1.75736C31.3679 2.88258 32 4.4087 32 6V26C32 27.5913 31.3679 29.1174 30.2426 30.2426C29.1174 31.3679 27.5913 32 26 32Z" fill="#7A5AF8" fill-opacity="0.1"/>
<path d="M22.5 14.5H21.97C21.7829 14.4888 21.6028 14.4253 21.45 14.3167C21.2973 14.208 21.1782 14.0587 21.1063 13.8856C21.0344 13.7126 21.0125 13.5228 21.0432 13.3379C21.0739 13.153 21.156 12.9805 21.28 12.84L21.655 12.465C21.7481 12.3713 21.8004 12.2446 21.8004 12.1125C21.8004 11.9804 21.7481 11.8537 21.655 11.76L20.245 10.345C20.1513 10.2519 20.0246 10.1996 19.8925 10.1996C19.7604 10.1996 19.6337 10.2519 19.54 10.345L19.165 10.72C19.0269 10.8563 18.851 10.9478 18.6601 10.9826C18.4692 11.0174 18.2723 10.9938 18.095 10.915C17.9191 10.8434 17.7685 10.7209 17.6625 10.5633C17.5565 10.4056 17.4999 10.22 17.5 10.03V9.5C17.5 9.36739 17.4473 9.24021 17.3536 9.14645C17.2598 9.05268 17.1326 9 17 9H15C14.8674 9 14.7402 9.05268 14.6464 9.14645C14.5527 9.24021 14.5 9.36739 14.5 9.5V10.03C14.4879 10.2166 14.4238 10.3962 14.3148 10.5482C14.2058 10.7002 14.0564 10.8186 13.8835 10.89C13.7106 10.9613 13.5212 10.9827 13.3367 10.9518C13.1523 10.9209 12.9802 10.8388 12.84 10.715L12.465 10.34C12.3713 10.2469 12.2446 10.1946 12.1125 10.1946C11.9804 10.1946 11.8537 10.2469 11.76 10.34L10.345 11.755C10.2519 11.8487 10.1996 11.9754 10.1996 12.1075C10.1996 12.2396 10.2519 12.3663 10.345 12.46L10.72 12.835C10.8563 12.9731 10.9478 13.149 10.9826 13.3399C11.0174 13.5308 10.9938 13.7277 10.915 13.905C10.8434 14.081 10.7209 14.2315 10.5633 14.3375C10.4056 14.4435 10.22 14.5001 10.03 14.5H9.5C9.36739 14.5 9.24021 14.5527 9.14645 14.6464C9.05268 14.7402 9 14.8674 9 15V17C9 17.1326 9.05268 17.2598 9.14645 17.3536C9.24021 17.4473 9.36739 17.5 9.5 17.5H10.03C10.2171 17.5112 10.3972 17.5747 10.55 17.6833C10.7027 17.792 10.8218 17.9413 10.8937 18.1144C10.9656 18.2874 10.9875 18.4772 10.9568 18.6621C10.9261 18.847 10.844 19.0195 10.72 19.16L10.345 19.535C10.2519 19.6287 10.1996 19.7554 10.1996 19.8875C10.1996 20.0196 10.2519 20.1463 10.345 20.24L11.76 21.655C11.8537 21.7481 11.9804 21.8004 12.1125 21.8004C12.2446 21.8004 12.3713 21.7481 12.465 21.655L12.84 21.28C12.9805 21.156 13.153 21.0739 13.3379 21.0432C13.5228 21.0125 13.7126 21.0344 13.8856 21.1063C14.0587 21.1782 14.208 21.2973 14.3167 21.45C14.4253 21.6028 14.4888 21.7829 14.5 21.97V22.5C14.5 22.6326 14.5527 22.7598 14.6464 22.8536C14.7402 22.9473 14.8674 23 15 23H17C17.1326 23 17.2598 22.9473 17.3536 22.8536C17.4473 22.7598 17.5 22.6326 17.5 22.5V21.97C17.5112 21.7829 17.5747 21.6028 17.6833 21.45C17.792 21.2973 17.9413 21.1782 18.1144 21.1063C18.2874 21.0344 18.4772 21.0125 18.6621 21.0432C18.847 21.0739 19.0195 21.156 19.16 21.28L19.535 21.655C19.6287 21.7481 19.7554 21.8004 19.8875 21.8004C20.0196 21.8004 20.1463 21.7481 20.24 21.655L21.655 20.24C21.7481 20.1463 21.8004 20.0196 21.8004 19.8875C21.8004 19.7554 21.7481 19.6287 21.655 19.535L21.28 19.16C21.1437 19.0219 21.0522 18.846 21.0174 18.6551C20.9826 18.4642 21.0062 18.2673 21.085 18.09C21.1574 17.915 21.2802 17.7654 21.4378 17.6604C21.5953 17.5553 21.7806 17.4995 21.97 17.5H22.5C22.6326 17.5 22.7598 17.4473 22.8536 17.3536C22.9473 17.2598 23 17.1326 23 17V15C23 14.8674 22.9473 14.7402 22.8536 14.6464C22.7598 14.5527 22.6326 14.5 22.5 14.5ZM16 20C15.2089 20 14.4355 19.7654 13.7777 19.3259C13.1199 18.8864 12.6072 18.2616 12.3045 17.5307C12.0017 16.7998 11.9225 15.9956 12.0769 15.2196C12.2312 14.4437 12.6122 13.731 13.1716 13.1716C13.731 12.6122 14.4437 12.2312 15.2196 12.0769C15.9956 11.9225 16.7998 12.0017 17.5307 12.3045C18.2616 12.6072 18.8864 13.1199 19.3259 13.7777C19.7654 14.4355 20 15.2089 20 16C20 17.0609 19.5786 18.0783 18.8284 18.8284C18.0783 19.5786 17.0609 20 16 20Z" fill="#B8A6E7"/>
<path d="M16 19C17.6569 19 19 17.6569 19 16C19 14.3431 17.6569 13 16 13C14.3431 13 13 14.3431 13 16C13 17.6569 14.3431 19 16 19Z" fill="#744ED5"/>
</g>
<defs>
<clipPath id="clip0_29_8412">
<rect width="32" height="32" fill="white"/>
</clipPath>
</defs>
</svg>
