<svg width="32" height="32" viewBox="0 0 32 32" fill="none" xmlns="http://www.w3.org/2000/svg">
<g clip-path="url(#clip0_29_8435)">
<path d="M26 32H6C4.4087 32 2.88258 31.3679 1.75736 30.2426C0.632141 29.1174 0 27.5913 0 26L0 6C0 4.4087 0.632141 2.88258 1.75736 1.75736C2.88258 0.632141 4.4087 0 6 0L26 0C27.5913 0 29.1174 0.632141 30.2426 1.75736C31.3679 2.88258 32 4.4087 32 6V26C32 27.5913 31.3679 29.1174 30.2426 30.2426C29.1174 31.3679 27.5913 32 26 32Z" fill="#7A5AF8" fill-opacity="0.1"/>
<path d="M16 22.6667C19.6819 22.6667 22.6666 19.6819 22.6666 16C22.6666 12.3181 19.6819 9.33334 16 9.33334C12.3181 9.33334 9.33331 12.3181 9.33331 16C9.33331 19.6819 12.3181 22.6667 16 22.6667Z" fill="#B8A6E7"/>
<path d="M18 14.6667C18.0001 14.2263 17.8549 13.7983 17.587 13.4489C17.319 13.0995 16.9432 12.8483 16.518 12.7343C16.0927 12.6203 15.6416 12.6498 15.2348 12.8182C14.828 12.9867 14.4882 13.2847 14.268 13.666C14.1852 13.8186 14.1652 13.9974 14.2122 14.1645C14.2592 14.3317 14.3696 14.4738 14.5198 14.5608C14.67 14.6478 14.8483 14.6728 15.0166 14.6305C15.185 14.5881 15.3302 14.4817 15.4213 14.334C15.4797 14.2326 15.5638 14.1483 15.665 14.0897C15.7663 14.0311 15.8812 14.0001 15.9982 14C16.1153 13.9998 16.2303 14.0305 16.3317 14.0889C16.4331 14.1473 16.5173 14.2313 16.576 14.3326C16.6346 14.4339 16.6656 14.5488 16.6657 14.6658C16.6659 14.7828 16.6352 14.8978 16.5769 14.9992C16.5185 15.1006 16.4344 15.1849 16.3332 15.2436C16.2319 15.3022 16.117 15.3332 16 15.3333C15.8232 15.3333 15.6536 15.4036 15.5286 15.5286C15.4036 15.6536 15.3333 15.8232 15.3333 16V16.6667C15.3333 16.8435 15.4036 17.013 15.5286 17.1381C15.6536 17.2631 15.8232 17.3333 16 17.3333C16.1768 17.3333 16.3464 17.2631 16.4714 17.1381C16.5964 17.013 16.6667 16.8435 16.6667 16.6667V16.544C17.0555 16.407 17.3925 16.153 17.6312 15.8169C17.8699 15.4807 17.9988 15.0789 18 14.6667ZM16 19.3333C15.9129 19.3323 15.8268 19.3142 15.7467 19.28C15.6658 19.2463 15.5914 19.1989 15.5267 19.14C15.4679 19.0751 15.4205 19.0007 15.3867 18.92C15.3491 18.8409 15.3309 18.7541 15.3333 18.6667C15.3345 18.6219 15.339 18.5774 15.3467 18.5333C15.3541 18.4916 15.3675 18.4512 15.3867 18.4133C15.4011 18.3708 15.4213 18.3304 15.4467 18.2933C15.4713 18.2584 15.498 18.225 15.5267 18.1933C15.6556 18.0744 15.8246 18.0083 16 18.0083C16.1754 18.0083 16.3444 18.0744 16.4733 18.1933C16.5962 18.3204 16.6654 18.4899 16.6667 18.6667C16.6656 18.7538 16.6475 18.8398 16.6133 18.92C16.5834 19.0027 16.5356 19.0779 16.4734 19.1401C16.4112 19.2023 16.3361 19.25 16.2533 19.28C16.1732 19.3142 16.0871 19.3323 16 19.3333Z" fill="#7A5AF8"/>
</g>
<defs>
<clipPath id="clip0_29_8435">
<rect width="32" height="32" fill="white"/>
</clipPath>
</defs>
</svg>
