<svg width="32" height="32" viewBox="0 0 32 32" fill="none" xmlns="http://www.w3.org/2000/svg">
<g clip-path="url(#clip0_29_8469)">
<path d="M26 32H6C4.4087 32 2.88258 31.3679 1.75736 30.2426C0.632141 29.1174 0 27.5913 0 26L0 6C0 4.4087 0.632141 2.88258 1.75736 1.75736C2.88258 0.632141 4.4087 0 6 0L26 0C27.5913 0 29.1174 0.632141 30.2426 1.75736C31.3679 2.88258 32 4.4087 32 6V26C32 27.5913 31.3679 29.1174 30.2426 30.2426C29.1174 31.3679 27.5913 32 26 32Z" fill="#7A5AF8" fill-opacity="0.1"/>
<path d="M21.3333 9H10.6667C9.19391 9 8 10.1753 8 11.625V20.375C8 21.8247 9.19391 23 10.6667 23H21.3333C22.8061 23 24 21.8247 24 20.375V11.625C24 10.1753 22.8061 9 21.3333 9Z" fill="#744ED5"/>
<path d="M23.3333 14.0911V17.9093H20.6667C20.1362 17.9093 19.6275 17.7082 19.2524 17.3502C18.8774 16.9921 18.6667 16.5066 18.6667 16.0002C18.6667 15.4939 18.8774 15.0083 19.2524 14.6503C19.6275 14.2923 20.1362 14.0911 20.6667 14.0911H23.3333Z" fill="#B8A6E7"/>
</g>
<defs>
<clipPath id="clip0_29_8469">
<rect width="32" height="32" fill="white"/>
</clipPath>
</defs>
</svg>
